<svg width="32" height="32" viewBox="0 0 32 32" fill="none" xmlns="http://www.w3.org/2000/svg">
<path d="M16.0001 2.95947C18.7425 2.95952 21.1536 3.91573 23.2531 5.84717C25.3236 7.75196 26.374 10.3096 26.3741 13.5757C26.3741 14.9148 26.0791 16.2521 25.4806 17.5894C24.8709 18.9518 24.1054 20.2557 23.1847 21.5024C22.2579 22.7574 21.2512 23.9286 20.1642 25.0161C19.065 26.116 18.0394 27.0898 17.088 27.937L17.0831 27.9419L17.0773 27.9468C16.9383 28.0782 16.7783 28.1734 16.5919 28.2339C16.3813 28.3022 16.1809 28.3345 15.9894 28.3345C15.798 28.3345 15.6024 28.302 15.4005 28.2349C15.2223 28.1756 15.0695 28.0824 14.9366 27.9526L14.9279 27.9438L14.9181 27.936L14.1876 27.2769C13.4437 26.5944 12.6592 25.8408 11.8351 25.0161C10.7481 23.9287 9.74125 22.7573 8.81458 21.5024C7.89406 20.2559 7.13047 18.9514 6.52356 17.5894C5.92767 16.2521 5.63391 14.9151 5.63391 13.5757C5.63401 10.3095 6.68313 7.7519 8.7511 5.84717C10.8478 3.91586 13.2576 2.95947 16.0001 2.95947ZM15.9991 4.23877C13.4616 4.23887 11.2985 5.11332 9.54211 6.85986C7.7775 8.61469 6.90549 10.8678 6.9054 13.5757C6.9054 15.4227 7.67783 17.4436 9.14075 19.6226C10.6041 21.802 12.7821 24.2303 15.6593 26.9067L15.9952 27.2202L16.3361 26.9106C19.281 24.239 21.4794 21.8091 22.9122 19.6216C24.3412 17.4398 25.0948 15.4194 25.0948 13.5757C25.0948 10.8677 24.2219 8.61472 22.4572 6.85986C20.7002 5.11327 18.5369 4.23877 15.9991 4.23877ZM15.9972 11.436C16.5292 11.4361 16.968 11.6176 17.3419 11.9897C17.7152 12.3614 17.8966 12.799 17.8966 13.3306C17.8966 13.8627 17.7154 14.2995 17.3439 14.6704C16.9725 15.0412 16.5354 15.2221 16.0031 15.2222C15.4701 15.2222 15.0329 15.042 14.6622 14.6733C14.2922 14.3047 14.1105 13.8688 14.1105 13.3364C14.1105 12.8034 14.2906 12.3635 14.6603 11.9897L14.6613 11.9907C15.0301 11.6183 15.4657 11.436 15.9972 11.436Z" fill="#0C0C0C" stroke="#0C0C0C"/>
</svg>
