<svg width="48" height="48" viewBox="0 0 48 48" fill="none" xmlns="http://www.w3.org/2000/svg">
<path d="M23.9994 44.5501C22.8424 44.5501 21.8604 44.1384 21.0534 43.3151C20.2461 42.4921 19.8424 41.4821 19.8424 40.2851H28.1574C28.1574 41.4821 27.7538 42.4921 26.9464 43.3151C26.1388 44.1384 25.1564 44.5501 23.9994 44.5501ZM17.3874 37.1131C16.9391 37.1131 16.5651 36.9618 16.2654 36.6591C15.9661 36.3564 15.8164 35.9814 15.8164 35.5341C15.8164 35.0898 15.9669 34.7179 16.2679 34.4186C16.5693 34.1193 16.9426 33.9696 17.3879 33.9696H30.6239C31.0659 33.9696 31.4364 34.1223 31.7354 34.4276C32.0341 34.7329 32.1834 35.1076 32.1834 35.5516C32.1834 35.9956 32.0341 36.3669 31.7354 36.6656C31.4364 36.9639 31.0659 37.1131 30.6239 37.1131H17.3874ZM16.0664 30.8481C13.8184 29.3828 12.0289 27.5499 10.6979 25.3496C9.36659 23.1496 8.70093 20.6661 8.70093 17.8991C8.70093 13.7548 10.2129 10.1688 13.2369 7.1411C16.2613 4.11376 19.8478 2.6001 23.9964 2.6001C28.1451 2.6001 31.7346 4.11376 34.7649 7.1411C37.7956 10.1688 39.3109 13.7548 39.3109 17.8991C39.3109 20.6628 38.6536 23.1456 37.3389 25.3476C36.0246 27.5493 34.2228 29.3828 31.9334 30.8481H16.0664ZM17.3014 27.4416H30.7354C32.3301 26.3846 33.5883 25.0154 34.5099 23.3341C35.4316 21.6528 35.8924 19.8419 35.8924 17.9016C35.8924 14.6316 34.7274 11.8336 32.3974 9.5076C30.0671 7.1816 27.2679 6.0186 23.9999 6.0186C20.7319 6.0186 17.9328 7.1816 15.6024 9.5076C13.2724 11.8336 12.1074 14.6316 12.1074 17.9016C12.1074 19.8419 12.5701 21.6523 13.4954 23.3326C14.4208 25.0133 15.6894 26.3829 17.3014 27.4416Z" fill="#015B2C"/>
</svg>
