<svg width="48" height="48" viewBox="0 0 48 48" fill="none" xmlns="http://www.w3.org/2000/svg">
<path d="M11.1075 44.275C10.1709 44.275 9.36888 43.9415 8.70155 43.2745C8.03455 42.6072 7.70105 41.8052 7.70105 40.8685V19.3835C7.70105 18.4435 8.03455 17.6388 8.70155 16.9695C9.36888 16.2998 10.1709 15.965 11.1075 15.965H14.3685V11.4285C14.3685 8.74949 15.3064 6.46849 17.182 4.58549C19.0574 2.70249 21.3309 1.76099 24.0025 1.76099C26.6742 1.76099 28.9469 2.70249 30.8205 4.58549C32.6945 6.46849 33.6315 8.74949 33.6315 11.4285V15.965H36.8925C37.8325 15.965 38.6372 16.2998 39.3065 16.9695C39.9762 17.6388 40.311 18.4435 40.311 19.3835V40.8685C40.311 41.8052 39.9762 42.6072 39.3065 43.2745C38.6372 43.9415 37.8325 44.275 36.8925 44.275H11.1075ZM11.1075 40.8685H36.8925V19.3835H11.1075V40.8685ZM24.0086 33.976C25.0695 33.976 25.975 33.6088 26.725 32.8745C27.475 32.1402 27.85 31.2573 27.85 30.226C27.85 29.226 27.4722 28.3177 26.7165 27.501C25.9609 26.6843 25.0525 26.276 23.9915 26.276C22.9305 26.276 22.025 26.6843 21.275 27.501C20.525 28.3177 20.15 29.2343 20.15 30.251C20.15 31.2677 20.5279 32.1427 21.2836 32.876C22.0392 33.6093 22.9475 33.976 24.0086 33.976ZM17.775 15.965H30.225V11.431C30.225 9.68465 29.6225 8.20615 28.4175 6.99549C27.2125 5.78482 25.7429 5.17949 24.0086 5.17949C22.2746 5.17949 20.8022 5.78482 19.5915 6.99549C18.3805 8.20615 17.775 9.68465 17.775 11.431V15.965Z" fill="#015B2C"/>
</svg>
