<svg width="48" height="48" viewBox="0 0 48 48" fill="none" xmlns="http://www.w3.org/2000/svg">
<path d="M23.8956 37.089L30.9565 22.0935C31.1059 21.7948 31.0894 21.5193 30.907 21.267C30.7247 21.0143 30.4801 20.888 30.173 20.888H25.1V10.885C25.1 10.65 24.9881 10.5126 24.7641 10.473C24.5404 10.433 24.3872 10.5083 24.3046 10.699L17.2436 25.6825C17.0942 25.9891 17.1117 26.2666 17.2961 26.515C17.4804 26.7636 17.7281 26.888 18.0391 26.888H23.1V36.9035C23.1 37.1381 23.2121 37.2753 23.4361 37.315C23.6597 37.355 23.8129 37.2796 23.8956 37.089ZM24.0061 44.299C21.1287 44.299 18.4535 43.7823 15.9805 42.749C13.5076 41.7156 11.3594 40.2873 9.53605 38.464C7.71272 36.6406 6.28438 34.4925 5.25105 32.0195C4.21772 29.5465 3.70105 26.8713 3.70105 23.994C3.70105 21.1503 4.21672 18.4936 5.24805 16.024C6.27938 13.5543 7.70772 11.406 9.53305 9.57896C11.3584 7.7523 13.5076 6.31396 15.9805 5.26396C18.4535 4.21396 21.1287 3.68896 24.0061 3.68896C26.8497 3.68896 29.5067 4.21346 31.977 5.26246C34.447 6.31146 36.5956 7.7493 38.4226 9.57596C40.2499 11.4026 41.688 13.5506 42.737 16.02C43.7864 18.4893 44.311 21.1493 44.311 24C44.311 26.8733 43.786 29.5465 42.736 32.0195C41.686 34.4925 40.2477 36.6416 38.421 38.467C36.594 40.2923 34.4457 41.7206 31.976 42.752C29.5064 43.7833 26.8497 44.299 24.0061 44.299ZM23.9981 40.8925C28.8007 40.8925 32.8172 39.2801 36.0476 36.0555C39.2775 32.8308 40.8925 28.813 40.8925 24.002C40.8925 19.1913 39.2782 15.1728 36.0495 11.9465C32.8209 8.72046 28.8051 7.10746 24.0021 7.10746C19.1994 7.10746 15.1829 8.7198 11.9525 11.9445C8.72255 15.1691 7.10755 19.187 7.10755 23.998C7.10755 28.8086 8.72188 32.8271 11.9505 36.0535C15.1792 39.2795 19.1951 40.8925 23.9981 40.8925Z" fill="#015B2C"/>
</svg>
