<svg width="48" height="48" viewBox="0 0 48 48" fill="none" xmlns="http://www.w3.org/2000/svg">
<path d="M14.3955 40.299C14.0872 40.299 13.7985 40.2235 13.5295 40.0725C13.2605 39.9218 13.0562 39.7115 12.9165 39.4415L8.66854 31.8695H12.278L14.0175 35.133C14.1435 35.4053 14.3309 35.6101 14.5795 35.7475C14.8285 35.8848 15.0934 35.9535 15.374 35.9535H18.2C18.4 35.9535 18.575 35.8785 18.725 35.7285C18.875 35.5785 18.95 35.4035 18.95 35.2035C18.95 35.0035 18.875 34.8285 18.725 34.6785C18.575 34.5285 18.4 34.4535 18.2 34.4535H15.3535L13.6005 31.2015C13.4732 30.9295 13.286 30.7228 13.039 30.5815C12.7917 30.4401 12.5244 30.3695 12.237 30.3695H7.86204L4.71854 24.8455C4.64921 24.7045 4.59254 24.5645 4.54854 24.4255C4.50454 24.2861 4.48254 24.1448 4.48254 24.0015C4.48254 23.9075 4.56121 23.6211 4.71854 23.1425L7.86204 17.6305H12.237C12.5244 17.6305 12.7917 17.5598 13.039 17.4185C13.286 17.2771 13.4734 17.0703 13.601 16.798L15.3555 13.543H18.2045C18.4035 13.543 18.5775 13.4686 18.7265 13.32C18.8755 13.171 18.95 12.9965 18.95 12.7965C18.95 12.5965 18.875 12.4215 18.725 12.2715C18.575 12.1215 18.4 12.0465 18.2 12.0465H15.374C15.0934 12.0465 14.8285 12.1161 14.5795 12.2555C14.3309 12.3948 14.1424 12.5998 14.014 12.8705L12.278 16.1305H8.66854L12.9165 8.54646C13.0562 8.28446 13.2605 8.07613 13.5295 7.92146C13.7985 7.76646 14.0872 7.68896 14.3955 7.68896H20.14C20.621 7.68896 21.0252 7.85496 21.3525 8.18696C21.6799 8.51863 21.8435 8.92446 21.8435 9.40446V18.1545H17.519C17.3207 18.1545 17.1465 18.2295 16.9965 18.3795C16.8465 18.5295 16.7715 18.7045 16.7715 18.9045C16.7715 19.1045 16.8465 19.2795 16.9965 19.4295C17.1465 19.5795 17.3207 19.6545 17.519 19.6545H21.8435V26.3575H16.8345L15.272 23.17C15.132 22.8966 14.9344 22.681 14.679 22.523C14.4237 22.365 14.152 22.286 13.864 22.286H9.93804C9.73804 22.286 9.56304 22.361 9.41304 22.511C9.26304 22.661 9.18804 22.836 9.18804 23.036C9.18804 23.236 9.26304 23.411 9.41304 23.561C9.56304 23.711 9.73804 23.786 9.93804 23.786H13.85L15.474 26.9715C15.6074 27.2461 15.8017 27.4625 16.057 27.6205C16.3124 27.7785 16.5839 27.8575 16.8715 27.8575H21.8435V38.5955C21.8435 39.0765 21.6799 39.4806 21.3525 39.808C21.0252 40.1353 20.621 40.299 20.14 40.299H14.3955ZM28.769 40.299C27.743 40.299 26.8684 39.9363 26.145 39.211C25.4217 38.4856 25.06 37.6138 25.06 36.5955C25.06 35.8795 25.2434 35.2303 25.61 34.648C25.9767 34.0653 26.46 33.6286 27.06 33.338V14.662C26.46 14.3713 25.9767 13.9346 25.61 13.352C25.2434 12.7696 25.06 12.1281 25.06 11.4275C25.06 10.3821 25.423 9.4978 26.149 8.77446C26.875 8.0508 27.7505 7.68896 28.7755 7.68896C29.8002 7.68896 30.6735 8.0518 31.3955 8.77746C32.1175 9.5028 32.4785 10.3785 32.4785 11.4045C32.4785 12.1205 32.2952 12.7696 31.9285 13.352C31.5619 13.9346 31.0785 14.3713 30.4785 14.662V19.836L35.263 16.9675C35.187 15.9101 35.514 14.9921 36.244 14.2135C36.9737 13.4348 37.8762 13.0455 38.9515 13.0455C39.9799 13.0455 40.8565 13.4075 41.5815 14.1315C42.3069 14.8558 42.6695 15.7298 42.6695 16.7535C42.6695 17.7771 42.3069 18.6495 41.5815 19.3705C40.8559 20.0915 39.9802 20.452 38.9545 20.452C38.5835 20.452 38.2344 20.405 37.907 20.311C37.58 20.217 37.2832 20.0886 37.0165 19.926L31.8675 23.0325L37.4475 27.515C37.6759 27.423 37.9195 27.3456 38.1785 27.283C38.4372 27.2203 38.6959 27.189 38.9545 27.189C39.9802 27.189 40.8559 27.551 41.5815 28.275C42.3069 28.9993 42.6695 29.8733 42.6695 30.897C42.6695 31.9206 42.3065 32.793 41.5805 33.514C40.8545 34.235 39.9784 34.5955 38.952 34.5955C37.755 34.5955 36.7969 34.1395 36.0775 33.2275C35.3585 32.3158 35.1124 31.2986 35.339 30.176L30.4785 26.2675V33.38C31.0452 33.676 31.5119 34.1091 31.8785 34.6795C32.2452 35.2498 32.4285 35.8878 32.4285 36.5935C32.4285 37.6168 32.0724 38.4901 31.36 39.2135C30.6477 39.9371 29.784 40.299 28.769 40.299Z" fill="#015B2C"/>
</svg>
