<svg width="32" height="32" viewBox="0 0 32 32" fill="none" xmlns="http://www.w3.org/2000/svg">
<path d="M5.49207 4.29297H10.1591C10.4429 4.29305 10.6543 4.37934 10.827 4.54199C11.0199 4.72357 11.1656 4.97248 11.2509 5.3125L12.1405 9.34082C12.1874 9.6688 12.1776 9.93944 12.1249 10.1611C12.0758 10.3672 11.9768 10.5392 11.8212 10.6875L11.8153 10.6943L8.45789 14.0049L8.17859 14.2803L8.37878 14.6172C8.94459 15.568 9.5456 16.458 10.1815 17.2871C10.8202 18.1199 11.5294 18.912 12.3085 19.6631C13.1221 20.5033 13.9723 21.2654 14.8593 21.9482C15.7522 22.6357 16.6848 23.2372 17.6571 23.752L17.9882 23.9277L18.2499 23.6592L21.4559 20.3691L21.4657 20.3584C21.6698 20.1369 21.8904 19.9983 22.1298 19.9268L22.1307 19.9277C22.3248 19.8702 22.5181 19.8482 22.7128 19.8623L22.9081 19.8887L26.6815 20.7236C27.0066 20.8142 27.2513 20.9736 27.4364 21.1973C27.6173 21.4158 27.7068 21.6631 27.7069 21.96V26.5078C27.7069 26.8656 27.5921 27.1386 27.3671 27.3613C27.1393 27.5866 26.866 27.6992 26.5155 27.6992C23.9879 27.6991 21.4041 27.0919 18.7596 25.8633C16.116 24.6351 13.6586 22.8892 11.3885 20.6191C9.26054 18.4911 7.59227 16.1973 6.37781 13.7383L6.1405 13.2451L5.91687 12.749C4.83533 10.2746 4.30066 7.85669 4.30066 5.49219C4.30068 5.17911 4.38847 4.92968 4.5614 4.7207L4.6405 4.63379C4.86545 4.40761 5.13801 4.29297 5.49207 4.29297ZM5.58777 6.09375C5.62848 7.03203 5.77603 8.01839 6.02722 9.05176C6.27996 10.0914 6.67735 11.2422 7.21375 12.501L7.50281 13.1797L8.02625 12.6592L10.7177 9.98145L10.911 9.78906L10.8544 9.52246L10.0956 5.96777L10.0116 5.57227H5.56531L5.58777 6.09375ZM26.4286 21.9717L26.0292 21.8896L22.7157 21.2041L22.4442 21.1475L22.2528 21.3486L19.6356 24.0918L19.1542 24.5957L19.786 24.8896C20.7021 25.3158 21.6962 25.6624 22.7665 25.9307C23.8381 26.1992 24.8839 26.3605 25.9032 26.4121L26.4286 26.4385V21.9717Z" fill="#0C0C0C" stroke="#0C0C0C"/>
</svg>
