<?xml version="1.0" encoding="UTF-8"?>
<svg id="Laag_1" data-name="Laag 1" xmlns="http://www.w3.org/2000/svg" viewBox="0 0 856.04 142.71">
  <defs>
    <style>
      .cls-1 {
        fill: #015b2c;
      }
    </style>
  </defs>
  <path class="cls-1" d="M47.66,78.72c-5.71,5.09-12.73,7.64-21.08,7.64H6.11v54.53H0V31.83h26.58c8.35,0,15.37,2.44,21.08,7.33,5.7,4.89,8.55,11.46,8.55,19.7s-2.85,14.97-8.55,19.86ZM42.92,43.28c-4.18-3.46-9.67-5.19-16.49-5.19H6.11v42h20.32c6.72,0,12.32-1.83,16.8-5.5,4.48-3.87,6.72-9.11,6.72-15.73s-2.34-11.81-7.03-15.58Z"/>
  <path class="cls-1" d="M149.64,140.88l-12.53-32.69h-49.64l-12.68,32.69h-6.11L112.22,28.32l43.68,112.57h-6.26ZM112.22,44.2l-22.3,57.73h44.6l-22.3-57.73Z"/>
  <path class="cls-1" d="M200.59,38.09v102.79h-6.26V38.09h-24.13v-6.26h54.53v6.26h-24.13Z"/>
  <path class="cls-1" d="M253.94,140.88V31.83h52.39v6.26h-46.13v39.71h46.13v6.72h-46.13v50.1h46.13v6.26h-52.39Z"/>
  <path class="cls-1" d="M344.89,48.32v92.56h-6.11V31.06l81.41,95.46V31.83h6.26v110.89l-81.56-94.39Z"/>
  <path class="cls-1" d="M485.99,38.09v102.79h-6.26V38.09h-24.13v-6.26h54.53v6.26h-24.13Z"/>
  <path class="cls-1" d="M532.24,2.01v32.95h-2.01V2.01h-7.73V0h17.48v2.01h-7.74Z"/>
  <path class="cls-1" d="M613.52,140.88l-12.53-32.69h-49.64l-12.68,32.69h-6.11l43.53-112.57,43.68,112.57h-6.26ZM576.1,44.2l-22.3,57.73h44.6l-22.3-57.73Z"/>
  <path class="cls-1" d="M648.85,140.88V31.83h6.11v102.79h30.7v6.26h-36.81Z"/>
  <path class="cls-1" d="M714.87,140.88V31.83h52.39v6.26h-46.13v39.71h46.13v6.72h-46.13v50.1h46.13v6.26h-52.39Z"/>
  <path class="cls-1" d="M838.47,139.97c-3.97,1.42-8.66,2.14-14.05,2.14-16.7,0-27.44-7.89-32.23-23.67l6.26-2.14c3.56,13.03,12.22,19.55,25.96,19.55,7.84,0,14-1.93,18.48-5.8,4.58-3.97,6.87-9.77,6.87-17.41,0-7.23-2.7-13.23-8.1-18.02-1.43-1.32-3.61-2.8-6.57-4.43-2.95-1.63-6.72-3.46-11.3-5.5-8.65-3.87-14.56-7.23-17.72-10.08-5.3-4.58-7.94-10.64-7.94-18.18s2.7-13.59,8.1-18.18c5.3-4.68,11.81-7.02,19.55-7.02,12.83,0,21.89,4.79,27.19,14.36l-5.96,2.6c-2.04-3.36-4.48-5.86-7.33-7.49-3.56-2.24-8.2-3.36-13.9-3.36-6.01,0-10.99,1.68-14.97,5.04-4.28,3.57-6.42,8.25-6.42,14.05,0,5.19,2.24,9.72,6.72,13.59,2.54,2.04,7.64,4.79,15.27,8.25,4.78,2.14,8.91,4.25,12.37,6.34,3.46,2.09,6.26,4.2,8.4,6.34,5.9,5.8,8.86,13.04,8.86,21.69,0,13.85-5.86,22.96-17.56,27.34Z"/>
</svg>