<?xml version="1.0" encoding="UTF-8"?>
<svg id="Layer_1" data-name="Layer 1" xmlns="http://www.w3.org/2000/svg" viewBox="0 0 625.63 196.03">
  <path d="M226.35,196.03L113.18,0,0,196.03h226.35ZM155.36,188.31l28.82-49.91,28.81,49.91h-57.63ZM148.67,184.45l-31.04-53.77,31.04-53.77,31.04,53.77-31.04,53.77ZM113.18,15.43l31.04,53.77-31.04,53.77-31.04-53.77,31.04-53.77ZM77.68,76.92l31.04,53.77-31.04,53.77-31.04-53.77,31.04-53.77ZM13.37,188.31l28.81-49.91,28.82,49.91H13.37ZM84.36,188.31l28.81-49.91,28.82,49.91h-57.63Z"/>
  <g>
    <path d="M278.97,129.93c8.58,0,15.07,1.24,19.49,3.7,4.41,2.47,6.62,6.76,6.62,12.87,0,3.83-.96,7.04-2.87,9.63-1.91,2.59-4.66,4.2-8.24,4.81v.46c2.41.43,4.6,1.22,6.57,2.36,1.97,1.14,3.53,2.78,4.67,4.91,1.14,2.13,1.71,4.92,1.71,8.38,0,5.99-2.11,10.65-6.34,13.98-4.23,3.33-10.01,5-17.36,5h-24.16v-66.09h19.9ZM280.55,156.87c4.69,0,7.91-.74,9.67-2.22,1.76-1.48,2.64-3.67,2.64-6.57s-1.06-5.09-3.19-6.39-5.48-1.94-10.04-1.94h-8.7v17.12h9.63ZM270.92,166.4v19.72h10.74c4.81,0,8.16-.93,10.04-2.78,1.88-1.85,2.82-4.32,2.82-7.41,0-2.84-.97-5.14-2.92-6.9-1.94-1.76-5.45-2.64-10.51-2.64h-10.18Z"/>
    <path d="M361.36,196.03l-6.02-17.5h-24.9l-5.92,17.5h-12.59l24.25-66.37h13.51l24.25,66.37h-12.59ZM346.55,151.32c-.25-.86-.62-2.04-1.11-3.52-.5-1.48-.97-3.01-1.44-4.58-.46-1.57-.82-2.88-1.06-3.93-.31,1.24-.69,2.65-1.16,4.26-.46,1.61-.91,3.12-1.34,4.54-.43,1.42-.74,2.5-.93,3.24l-5.83,17.03h18.61l-5.74-17.03Z"/>
    <path d="M401.44,129.93c8.7,0,15.13,1.61,19.3,4.81,4.17,3.21,6.25,8.08,6.25,14.62,0,3.21-.6,5.96-1.8,8.24-1.2,2.28-2.76,4.18-4.67,5.69-1.91,1.51-3.98,2.73-6.2,3.66l18.98,29.07h-13.33l-15.83-26.1h-9.63v26.1h-11.85v-66.09h18.79ZM400.7,139.84h-6.2v20.37h6.57c4.88,0,8.41-.88,10.6-2.64,2.19-1.76,3.29-4.37,3.29-7.82s-1.16-6.12-3.47-7.64c-2.31-1.51-5.91-2.27-10.78-2.27Z"/>
    <path d="M461.7,159.09l15.09-29.16h12.77l-21.94,40.36v25.73h-11.85v-25.27l-21.94-40.82h12.87l15,29.16Z"/>
    <path d="M555.38,162.89c0,6.85-1.13,12.82-3.38,17.91-2.25,5.09-5.69,9.06-10.32,11.9-4.63,2.84-10.43,4.26-17.4,4.26s-12.85-1.42-17.45-4.26c-4.6-2.84-8.02-6.82-10.28-11.94-2.25-5.12-3.38-11.11-3.38-17.96s1.12-12.73,3.38-17.82c2.25-5.09,5.68-9.04,10.28-11.85,4.6-2.81,10.44-4.21,17.54-4.21s12.76,1.4,17.36,4.21c4.6,2.81,8.02,6.76,10.27,11.85,2.25,5.09,3.38,11.06,3.38,17.91ZM505.67,162.89c0,7.47,1.48,13.33,4.44,17.59,2.96,4.26,7.68,6.39,14.16,6.39s11.28-2.13,14.21-6.39c2.93-4.26,4.4-10.12,4.4-17.59s-1.45-13.33-4.35-17.59c-2.9-4.26-7.62-6.39-14.16-6.39s-11.22,2.13-14.21,6.39c-2.99,4.26-4.49,10.12-4.49,17.59Z"/>
    <path d="M625.63,196.03h-14.72l-31.29-51.84h-.37c.19,2.78.35,5.75.51,8.93.15,3.18.26,6.37.32,9.58v33.32h-10.65v-66.09h14.63l31.2,51.47h.28c-.12-2.47-.25-5.31-.37-8.52-.12-3.21-.22-6.33-.28-9.35v-33.6h10.74v66.09Z"/>
  </g>
</svg>