<?xml version="1.0" encoding="UTF-8"?>
<svg id="Laag_1" xmlns="http://www.w3.org/2000/svg" version="1.1" viewBox="0 0 862.11 236.69">
  <!-- Generator: Adobe Illustrator 30.4.0, SVG Export Plug-In . SVG Version: 2.1.4 Build 226)  -->
  <defs>
    <style>
      .st0 {
        fill: #015b2c;
      }
    </style>
  </defs>
  <path class="st0" d="M862.11,118.49c0-10.79-14.78-20.2-45.05-28.62.57-.16,1.15-.31,1.7-.47,29.17-8.3,43.35-17.52,43.35-28.19s-14.18-19.89-43.35-28.19c-21.07-6-49.72-11.45-85.16-16.2C652.77,5.97,545.32,0,431.05,0S209.35,5.97,128.5,16.81c-35.42,4.75-64.07,10.2-85.15,16.2C14.18,41.32,0,50.54,0,61.2s14.18,19.88,43.35,28.18c.55.16,1.13.31,1.69.47C14.78,98.28,0,107.69,0,118.48s14.02,19.78,42.86,28.05C13.36,154.61,0,163.73,0,175.48c0,10.67,14.18,19.89,43.35,28.19,21.07,6,49.72,11.45,85.15,16.2,80.78,10.84,188.14,16.81,302.34,16.81.07,0,.14,0,.22,0,114.27,0,221.72-5.97,302.55-16.81,35.42-4.75,64.07-10.2,85.15-16.2,29.17-8.3,43.35-17.52,43.35-28.19s-14.62-20.09-44.55-28.48c.4-.11.81-.22,1.2-.33,29.17-8.3,43.35-17.52,43.35-28.19ZM732.57,155.1c-80.51,10.79-187.58,16.74-301.51,16.74s-221-5.95-301.51-16.74c-38.99-5.23-69.56-11.3-90.87-18.06-27.83-8.83-30.84-15.92-30.84-18.56,0-2.9,3.92-13.07,53.16-24.6,18.54,4.25,41.14,8.17,67.5,11.7,80.78,10.83,188.14,16.8,302.33,16.81.08,0,.15.01.23.01,114.27,0,221.72-5.97,302.55-16.81,26.37-3.54,48.98-7.46,67.51-11.71,49.31,11.54,53.16,21.74,53.16,24.6,0,2.64-3.01,9.74-30.84,18.56-21.31,6.76-51.88,12.83-90.87,18.06ZM431.05,228.84c-113.92,0-221-5.95-301.51-16.74-38.99-5.23-69.56-11.3-90.87-18.06-27.83-8.83-30.84-15.92-30.84-18.56,0-4.97,6.66-14.77,50.93-24.85,18.94,4.45,42.29,8.55,69.74,12.23,80.79,10.84,188.15,16.81,302.34,16.81.07,0,.14,0,.22,0,114.27,0,221.72-5.97,302.55-16.81,26.65-3.58,49.47-7.55,68.12-11.85,48.73,11.48,52.55,21.61,52.55,24.45,0,2.64-3.01,9.74-30.84,18.56-21.31,6.76-51.88,12.83-90.87,18.06-80.5,10.79-187.58,16.74-301.51,16.74ZM431.05,7.83c113.96,0,221.04,5.95,301.51,16.75,38.99,5.23,69.57,11.3,90.87,18.06,27.83,8.83,30.84,15.92,30.84,18.56s-3.01,9.74-30.84,18.56c-6.43,2.04-13.71,4.01-21.8,5.92-2.27-.43-4.55-.85-6.82-1.27-1.33-.24-2.61.64-2.85,1.97l-.28,1.53c-16.78,3.57-36.53,6.88-59.12,9.91-80.5,10.79-187.58,16.74-301.51,16.74s-221-5.95-301.51-16.74c-22.47-3.01-42.12-6.31-58.84-9.85l-.32-1.6c-.26-1.33-1.55-2.19-2.87-1.93-3.33.65-5.59,1.12-6.62,1.34-8.26-1.94-15.68-3.95-22.22-6.02-27.83-8.82-30.84-15.92-30.84-18.56s3-9.75,30.84-18.57c21.31-6.76,51.89-12.83,90.87-18.06C210.05,13.78,317.12,7.83,431.05,7.83Z"/>
  <path class="st0" d="M81.34,87.09c.11,1.26,1.17,2.23,2.44,2.23h.01c.18,0,.35-.02.52-.06,5.41-.96,10.37-1.81,15.16-2.61,1.33-.22,2.23-1.48,2.01-2.81l-.48-2.9c-.11-.64-.46-1.21-.99-1.59-.53-.38-1.18-.53-1.83-.42-5.11.85-10.27,1.74-15.34,2.65-.64.11-1.21.48-1.58,1.01s-.51,1.19-.4,1.83l.48,2.67Z"/>
  <path class="st0" d="M111.95,82.07c.07.61.37,1.17.84,1.57.45.38,1.01.59,1.59.59.13,0,.25,0,.38-.03,4.44-.7,9.3-1.43,15.31-2.32,1.34-.2,2.26-1.44,2.07-2.77l-.42-2.91c-.09-.64-.44-1.22-.96-1.61-.52-.39-1.17-.55-1.82-.46-6.03.89-10.92,1.62-15.39,2.32-1.33.21-2.25,1.46-2.04,2.79l.44,2.82Z"/>
  <path class="st0" d="M640.08,70.53c5.49.54,10.53,1.07,15.41,1.59.09,0,.17.01.26.01.6,0,1.19-.23,1.64-.63s.73-.97.8-1.56l.31-2.92c.07-.65-.12-1.29-.53-1.8-.41-.51-1-.83-1.65-.9-5.16-.55-10.33-1.09-15.47-1.6-1.34-.14-2.54.85-2.68,2.19l-.29,2.93c-.07.65.13,1.29.54,1.79.41.5,1.01.82,1.65.89Z"/>
  <path class="st0" d="M485.45,61.07c5.13.13,10.3.26,15.49.43.03,0,.05,0,.08,0,.62,0,1.22-.24,1.68-.66.47-.45.75-1.06.77-1.71l.09-2.94c.04-1.35-1.02-2.48-2.37-2.52-5.21-.17-10.39-.3-15.55-.43-.65-.01-1.28.23-1.75.68-.47.45-.74,1.07-.76,1.71l-.07,2.94c-.03,1.35,1.04,2.47,2.39,2.5Z"/>
  <path class="st0" d="M547.38,63.46c5.13.27,10.29.57,15.47.88.05,0,.1,0,.15,0,.62,0,1.22-.24,1.68-.67.46-.43.73-1.03.77-1.66l.17-2.91c.08-1.35-.95-2.51-2.3-2.59-5.19-.31-10.37-.61-15.53-.88-1.33-.08-2.5.96-2.57,2.31l-.16,2.94c-.04.65.19,1.28.62,1.77.43.48,1.04.77,1.69.81Z"/>
  <path class="st0" d="M516.43,62.04c5.13.2,10.3.42,15.48.66.04,0,.08,0,.11,0,1.3,0,2.38-1.02,2.44-2.33l.14-2.94c.03-.65-.2-1.28-.64-1.76s-1.05-.77-1.7-.8c-5.2-.23-10.38-.46-15.54-.66-1.33-.05-2.48,1-2.54,2.35l-.12,2.94c-.03.65.21,1.28.65,1.76.44.48,1.05.76,1.7.78Z"/>
  <path class="st0" d="M578.32,65.35c5.12.35,10.28.72,15.45,1.11.06,0,.13,0,.19,0,1.28,0,2.34-.98,2.44-2.26l.23-2.93c.05-.65-.16-1.29-.58-1.78-.42-.49-1.02-.8-1.67-.85-5.2-.39-10.37-.76-15.52-1.12-1.36-.09-2.51.92-2.61,2.27l-.21,2.93c-.04.65.17,1.29.6,1.78.43.49,1.03.79,1.68.84Z"/>
  <path class="st0" d="M732.22,81.94c5.09.76,10.19,1.55,15.3,2.35.13.02.25.03.38.03.91,0,1.76-.51,2.18-1.34.14-.28.22-.58.25-.87l.44-2.76c.1-.64-.06-1.3-.44-1.82s-.96-.88-1.6-.98c-5.13-.8-10.24-1.59-15.35-2.35-.64-.1-1.3.07-1.82.45-.52.39-.87.97-.96,1.61l-.43,2.91c-.2,1.34.72,2.58,2.06,2.78Z"/>
  <path class="st0" d="M762.78,86.76c4.57.76,9.53,1.6,15.15,2.58.17.04.34.05.51.05h0c1.27,0,2.33-.97,2.44-2.24,0,0,0,0,0,0l.47-2.69c.11-.64-.03-1.3-.41-1.83-.37-.53-.94-.89-1.58-1-5.07-.88-10.22-1.76-15.31-2.61-1.34-.22-2.59.68-2.81,2.02l-.48,2.9c-.22,1.33.68,2.59,2.02,2.81Z"/>
  <path class="st0" d="M701.58,77.64c5.45.72,10.46,1.41,15.32,2.09.12.02.23.02.35.02,1.2,0,2.25-.88,2.42-2.11l.41-2.91c.09-.64-.08-1.3-.47-1.81-.39-.52-.97-.86-1.61-.95-4.86-.68-9.89-1.37-15.39-2.1-.64-.08-1.29.09-1.81.48-.52.4-.85.98-.94,1.62l-.38,2.91c-.18,1.34.77,2.57,2.11,2.75Z"/>
  <path class="st0" d="M670.89,73.84c4.87.56,9.9,1.16,15.35,1.84.1.01.2.02.3.02,1.22,0,2.27-.91,2.43-2.15l.36-2.92c.08-.64-.1-1.29-.5-1.81-.4-.51-.99-.84-1.63-.92-5.59-.69-10.63-1.29-15.42-1.84-.65-.07-1.29.11-1.8.52-.51.4-.84.99-.91,1.64l-.33,2.92c-.15,1.34.81,2.56,2.15,2.71Z"/>
  <path class="st0" d="M609.22,67.69c5.12.43,10.27.89,15.43,1.36.07,0,.16.01.23.01,1.27,0,2.32-.97,2.44-2.23l.26-2.93c.12-1.34-.87-2.53-2.21-2.66-4.86-.45-9.93-.9-15.5-1.36-.65-.06-1.29.15-1.79.57-.5.42-.81,1.02-.86,1.67l-.24,2.93c-.11,1.35.89,2.53,2.23,2.64Z"/>
  <path class="st0" d="M204.24,70.09c.06.56.32,1.09.71,1.49.46.46,1.08.72,1.73.72.08,0,.17,0,.26-.01,5.03-.53,10.16-1.06,15.41-1.56.65-.06,1.24-.38,1.65-.88.41-.5.61-1.15.55-1.79l-.28-2.93c-.13-1.35-1.32-2.32-2.67-2.2-5.27.51-10.43,1.04-15.48,1.57-1.34.14-2.32,1.34-2.18,2.69l.3,2.92Z"/>
  <path class="st0" d="M268.48,66.7c.06,0,.12,0,.19,0,5.09-.38,10.24-.75,15.47-1.12.65-.04,1.25-.35,1.68-.84.43-.49.64-1.13.59-1.78l-.21-2.93c-.09-1.35-1.25-2.36-2.61-2.27-5.24.36-10.42.74-15.51,1.12-.65.05-1.25.35-1.67.85-.42.49-.63,1.13-.58,1.78l.23,2.93c.1,1.28,1.17,2.26,2.44,2.26Z"/>
  <path class="st0" d="M235.99,68.7c.44.37,1,.57,1.57.57.07,0,.15,0,.22-.01,5.43-.49,10.48-.93,15.44-1.34.65-.05,1.25-.36,1.67-.86.42-.5.63-1.14.57-1.79l-.24-2.93c-.05-.65-.36-1.25-.86-1.67-.49-.42-1.14-.62-1.78-.57-5.25.44-10.42.88-15.5,1.34-1.35.12-2.34,1.31-2.22,2.66l.26,2.93c.06.65.37,1.24.87,1.66Z"/>
  <path class="st0" d="M454.47,60.56c5.12.05,10.3.12,15.49.21.01,0,.03,0,.04,0,.63,0,1.24-.25,1.7-.69.47-.45.73-1.07.75-1.72l.05-2.94c.02-1.35-1.05-2.47-2.41-2.49-5.21-.09-10.4-.16-15.55-.21-1.36,0-2.46,1.07-2.47,2.42l-.03,2.94c0,.65.25,1.27.7,1.74.46.46,1.07.73,1.72.73Z"/>
  <path class="st0" d="M142.61,77.39c.01.33.1.67.25.98.42.84,1.27,1.36,2.19,1.36.11,0,.22,0,.33-.02,4.93-.68,10.05-1.36,15.36-2.04,1.34-.17,2.29-1.4,2.11-2.74l-.37-2.92c-.08-.64-.42-1.23-.93-1.63-.51-.4-1.16-.57-1.81-.49-5.33.69-10.47,1.37-15.42,2.05-.64.09-1.23.43-1.62.95-.39.52-.56,1.17-.47,1.81l.37,2.69Z"/>
  <path class="st0" d="M173.41,73.61c.08.64.41,1.23.92,1.63.43.34.97.52,1.51.52.1,0,.2,0,.3-.02,4.99-.61,10.12-1.2,15.39-1.8.65-.07,1.24-.4,1.64-.91s.59-1.16.52-1.8l-.33-2.92c-.15-1.34-1.36-2.31-2.71-2.16-5.29.6-10.44,1.2-15.45,1.8-1.34.16-2.3,1.38-2.14,2.72l.35,2.92Z"/>
  <path class="st0" d="M423.47,60.49h0c5.12-.02,10.3-.03,15.5-.02.66,0,1.27-.26,1.73-.72.46-.46.72-1.08.72-1.73v-2.94c0-1.35-1.09-2.45-2.44-2.45-5.22,0-10.4,0-15.54.02-1.35,0-2.43,1.1-2.43,2.45v2.94c0,.65.26,1.27.72,1.73.46.46,1.08.71,1.73.71Z"/>
  <path class="st0" d="M392.44,60.85c.06,0,.13,0,.2,0,5.07-.09,10.19-.17,15.34-.23.65,0,1.27-.27,1.72-.74.45-.47.7-1.09.7-1.74l-.04-2.94c-.02-1.34-1.11-2.42-2.45-2.42h-.03c-5.22.07-10.4.15-15.54.25-.65.01-1.27.28-1.72.75-.45.47-.7,1.1-.68,1.75l.06,2.94c.03,1.33,1.12,2.39,2.45,2.39Z"/>
  <path class="st0" d="M297.76,63.93c.46.43,1.06.66,1.68.66.05,0,.1,0,.15,0,5.1-.31,10.25-.61,15.47-.89,1.35-.07,2.38-1.23,2.31-2.57l-.16-2.94c-.03-.65-.33-1.26-.81-1.69-.48-.43-1.11-.66-1.77-.62-5.23.28-10.41.58-15.53.89-1.35.08-2.37,1.24-2.29,2.59l.17,2.89c.02.64.3,1.25.77,1.69Z"/>
  <path class="st0" d="M359.75,61c.45.42,1.05.66,1.67.66.03,0,.06,0,.08,0,5.11-.18,10.28-.32,15.49-.46.65-.02,1.26-.29,1.71-.76.45-.47.69-1.1.67-1.75l-.08-2.94c-.04-1.35-1.14-2.41-2.51-2.38-5.22.14-10.41.29-15.54.46-.65.02-1.26.3-1.71.77-.44.47-.68,1.11-.66,1.75l.1,2.94c.02.65.3,1.26.77,1.71Z"/>
  <path class="st0" d="M328.77,62.27c.45.41,1.04.64,1.65.64.04,0,.08,0,.12,0,5.07-.24,10.27-.47,15.48-.67.65-.03,1.26-.31,1.7-.78s.67-1.11.65-1.76l-.12-2.94c-.05-1.35-1.21-2.41-2.54-2.35-5.19.2-10.42.43-15.54.68-1.35.06-2.39,1.21-2.33,2.56l.14,2.94c.03.65.32,1.26.8,1.7Z"/>
</svg>