<?xml version="1.0" encoding="UTF-8"?>
<svg id="Laag_1" data-name="Laag 1" xmlns="http://www.w3.org/2000/svg" viewBox="0 0 875.55 236.69">
  <defs>
    <style>
      .cls-1 {
        fill: #015b2c;
      }
    </style>
  </defs>
  <path class="cls-1" d="M437.77,178.47c-116.6,0-226.23-6.09-308.69-17.15C70.2,153.42,0,139.58,0,118.46c0-11.52,21.08-22.1,62.66-31.43l.66,2.93C10.84,101.74,3,112.87,3,118.46c0,4.93,5.77,12.63,33.24,21.34,21.89,6.94,53.26,13.18,93.24,18.54,82.34,11.04,191.82,17.12,308.29,17.12s225.96-6.08,308.29-17.12c39.98-5.36,71.35-11.6,93.24-18.54,27.47-8.71,33.24-16.41,33.24-21.34,0-5.41-7.39-16.21-56.92-27.72l.68-2.92c39.31,9.14,59.24,19.45,59.24,30.65,0,21.11-70.2,34.96-129.08,42.86-82.46,11.06-192.09,17.15-308.69,17.15Z"/>
  <path class="cls-1" d="M437.77,236.69c-116.6,0-226.23-6.09-308.69-17.15C70.2,211.64,0,197.8,0,176.68c0-12.35,18.25-22.2,57.43-31l.66,2.93c-36.55,8.21-55.09,17.65-55.09,28.07,0,4.93,5.77,12.63,33.24,21.34,21.89,6.94,53.26,13.18,93.24,18.54,82.34,11.04,191.82,17.12,308.29,17.12s225.96-6.08,308.29-17.12c39.98-5.36,71.35-11.6,93.24-18.54,27.47-8.71,33.24-16.41,33.24-21.34,0-5.41-7.39-16.21-56.92-27.72l.68-2.92c39.31,9.14,59.24,19.45,59.24,30.65,0,21.11-70.2,34.96-129.08,42.86-82.46,11.06-192.09,17.15-308.69,17.15Z"/>
  <path class="cls-1" d="M437.77,119.96c-116.6,0-226.23-6.09-308.69-17.15C70.2,94.92,0,81.07,0,59.96S70.2,25,129.08,17.1C211.55,6.04,321.18-.05,437.77-.05s226.23,6.09,308.69,17.15c58.89,7.9,129.08,21.74,129.08,42.86s-70.2,34.96-129.08,42.86c-82.46,11.06-192.09,17.15-308.69,17.15ZM437.77,2.95c-116.47,0-225.96,6.08-308.29,17.12-39.98,5.36-71.35,11.6-93.24,18.54C8.77,47.32,3,55.03,3,59.96s5.77,12.63,33.24,21.34c21.89,6.94,53.26,13.18,93.24,18.54,82.34,11.04,191.82,17.12,308.29,17.12s225.96-6.08,308.29-17.12c39.98-5.36,71.35-11.6,93.24-18.54,27.47-8.71,33.24-16.41,33.24-21.34s-5.77-12.63-33.24-21.34c-21.89-6.94-53.26-13.18-93.24-18.54C663.73,9.03,554.24,2.95,437.77,2.95Z"/>
  <g>
    <path class="cls-1" d="M60.2,90.58l-.63-2.93s2.58-.56,7.37-1.5l.58,2.94c-4.76.93-7.29,1.48-7.32,1.49Z"/>
    <path class="cls-1" d="M83.08,86.18l-.53-2.95c5.02-.9,10.28-1.81,15.64-2.7l.49,2.96c-5.35.89-10.6,1.8-15.61,2.69ZM114.33,80.97l-.46-2.96c5.16-.81,10.44-1.6,15.69-2.37l.43,2.97c-5.24.77-10.51,1.56-15.66,2.37Z"/>
    <path class="cls-1" d="M792.59,86.26c-5.16-.9-10.41-1.8-15.6-2.66l.49-2.96c5.2.86,10.45,1.76,15.62,2.66l-.52,2.96ZM761.38,81.07c-5.22-.82-10.44-1.62-15.64-2.4l.44-2.97c5.21.78,10.43,1.58,15.66,2.4l-.47,2.96ZM730.08,76.41c-5.24-.74-10.46-1.45-15.67-2.14l.39-2.97c5.22.69,10.45,1.4,15.7,2.14l-.42,2.97ZM145.67,76.38l-.41-2.97c5.05-.69,10.29-1.39,15.73-2.09l.38,2.98c-5.43.7-10.67,1.4-15.71,2.09ZM177.1,72.33l-.36-2.98c5.11-.62,10.36-1.23,15.76-1.84l.34,2.98c-5.39.61-10.64,1.22-15.74,1.84ZM698.72,72.27c-5.25-.65-10.49-1.28-15.7-1.88l.34-2.98c5.23.6,10.47,1.23,15.73,1.88l-.37,2.98ZM208.59,68.78l-.31-2.98c5.15-.54,10.41-1.08,15.79-1.6l.29,2.99c-5.37.52-10.62,1.06-15.76,1.6ZM667.27,68.63c-5.27-.57-10.52-1.11-15.76-1.63l.3-2.99c5.24.52,10.51,1.07,15.78,1.63l-.32,2.98ZM240.14,65.7l-.27-2.99c5.18-.47,10.45-.92,15.81-1.37l.25,2.99c-5.35.44-10.62.9-15.79,1.37ZM635.73,65.49c-5.28-.48-10.54-.95-15.78-1.39l.25-2.99c5.25.44,10.52.9,15.81,1.39l-.27,2.99ZM271.72,63.08l-.23-2.99c5.2-.39,10.48-.77,15.83-1.14l.21,2.99c-5.34.37-10.61.75-15.81,1.14ZM604.16,62.84c-5.29-.4-10.56-.78-15.8-1.14l.21-2.99c5.25.36,10.53.74,15.83,1.14l-.23,2.99ZM303.34,60.92l-.18-2.99c5.22-.32,10.5-.62,15.84-.91l.16,3c-5.34.29-10.61.59-15.82.91ZM572.54,60.67c-5.3-.32-10.57-.62-15.82-.9l.16-3c5.26.28,10.54.58,15.84.9l-.18,2.99ZM334.98,59.2l-.14-3c5.23-.25,10.51-.48,15.85-.69l.12,3c-5.33.21-10.61.44-15.83.69ZM540.9,58.99c-5.3-.24-10.58-.47-15.83-.67l.12-3c5.26.2,10.54.43,15.85.67l-.14,3ZM366.65,57.93l-.1-3c5.24-.17,10.53-.33,15.86-.47l.08,3c-5.33.14-10.61.29-15.84.47ZM509.23,57.77c-5.31-.17-10.59-.31-15.84-.44l.07-3c5.26.13,10.54.27,15.86.44l-.09,3ZM398.33,57.11l-.06-3c5.25-.1,10.53-.18,15.86-.25l.04,3c-5.32.06-10.6.15-15.84.24ZM477.55,57.01c-5.31-.09-10.6-.16-15.84-.21l.03-3c5.25.05,10.54.12,15.86.21l-.05,3ZM430.02,56.73v-3c5.24-.03,10.53-.03,15.85-.02v3c-5.32-.01-10.61,0-15.85.02Z"/>
    <path class="cls-1" d="M815.69,90.45c-2.46-.46-4.91-.92-7.37-1.37l.54-2.95c2.46.45,4.92.91,7.38,1.37l-.55,2.95Z"/>
  </g>
</svg>