<?xml version="1.0" encoding="UTF-8"?><svg id="Layer_2" xmlns="http://www.w3.org/2000/svg" xmlns:xlink="http://www.w3.org/1999/xlink" viewBox="0 0 2100 2100"><defs><style>.cls-1{opacity:.6;}.cls-2{stroke:#b3b3b3;stroke-width:15.79px;}.cls-2,.cls-3,.cls-4,.cls-5,.cls-6,.cls-7,.cls-8,.cls-9{fill:none;}.cls-2,.cls-3,.cls-5,.cls-10,.cls-6,.cls-7,.cls-8,.cls-9,.cls-11{stroke-miterlimit:10;}.cls-3{stroke:#e6e6e6;stroke-width:9.47px;}.cls-12,.cls-10{fill:#015b2c;}.cls-5{stroke-dasharray:12.19 20.32;}.cls-5,.cls-6,.cls-7,.cls-8,.cls-9,.cls-11{stroke:#015b2c;}.cls-5,.cls-6,.cls-8{stroke-linecap:round;stroke-width:13px;}.cls-13,.cls-11{fill:#f6f6ec;}.cls-10{stroke:#f6f6ec;stroke-width:3.88px;}.cls-14{fill:#99bdab;opacity:.7;}.cls-7,.cls-11{stroke-width:6.31px;}.cls-8{stroke-dasharray:12 20;}.cls-9{stroke-width:3px;}.cls-15{clip-path:url(#clippath);}</style><clipPath id="clippath"><rect class="cls-4" x="90" y="90" width="1920" height="1920"/></clipPath></defs><rect class="cls-13" width="2100" height="2100"/><g class="cls-15"><path id="Water" class="cls-14" d="M735.99-189.84c44.18-22.02,74.8-13.76,95.28,2.22,20.48,15.98,114.75,64.89,160.97,80.08,46.22,15.19,135.39,48.88,153.53,58.62,18.14,9.75,69.68,24.38,116.16,80.66,46.48,56.28,102.15,177.23,121.42,215.01,19.27,37.78,51.53,96.42,78.81,126.42,27.28,30,63.92,80.23,73.94,84.38,10.02,4.14,45.77,16.9,71.42,43.86,25.65,26.96,51.93,39.25,92.13,23.61s281.89-93.81,281.89-93.81l1.95,6.76s88.93-29.26,119.57-39.72c30.64-10.45,52.83-66.41,38.14-97.12s-31.05-96.19-31.05-96.19c0,0-35.43-86.13-46.54-111.74-11.11-25.6-128.66-277.62-128.66-277.62l-53.17-17.68-111.76-241.6,3.43-8.5-114.27-242.63,179.32-26.78,92.65,198.61-86.88,41.41,259.54,563.84s13.23,28.81,18.37,50.61c5.14,21.8,49.02,140.98,49.02,140.98,0,0,33.66-15.37,61.25,16.7,27.59,32.07,27.16,98.42-25.44,109.8s-76.38,3.18-103.97,12c-27.59,8.82-116.09,39.43-116.09,39.43l2.83,11.09s-247.65,85.4-269.27,93.33c-21.61,7.93-23.29,43.9-18.09,55.11,5.2,11.21,88.95,195.89,105.13,238.12,16.18,42.24,67.43,212.26,72.64,225.12s42.24,71.95,85.84,124.67c43.6,52.71,89.1,105.61,109.95,138.22,20.85,32.61,216.16,322.13,216.16,322.13,0,0,87.34,128.44,94.34,139.15,7,10.71,24.79,46.36,28.9,62.9,4.12,16.54,80.94,342.09,80.94,342.09l9,39.8-47.36,7.07s-67.93-275.42-72.79-300.08c-4.86-24.66-16.01-81.98-35.78-115.22-19.77-33.24-132.82-198.5-132.82-198.5,0,0-157.08-244.47-170.96-266.6-13.88-22.13-53.1-78.56-77.88-104.47-24.79-25.91-89.16-93.39-101.25-119.31-12.1-25.93-59.53-138.94-61.97-145.86-2.44-6.92-8.44-9.32-14.02-7.31-5.58,2.01-9.32,8.44-6.71,14.87,2.61,6.43,114.99,252.16,122.31,271.28,7.32,19.12,54.1,127.76,65.11,147.98,11.01,20.21,129.28,173.18,143.4,192.22,14.13,19.04,110.17,141.25,141.55,195.55,31.38,54.3,52,91.65,54.95,111.42,2.95,19.77,8,218.79,7.88,236.9-.11,18.11,6.51,71.91,12.31,106.05-13.56,2.03-34.94,5.22-34.94,5.22,0,0-13.32-89.21-15.93-106.68-2.61-17.47-4.44-135.18-4.4-160.1.04-24.92-.25-55.19-4.36-70.09-4.11-14.9-27.23-69.03-53.33-110.02-26.1-40.99-52.37-78.43-88.87-126.1-36.5-47.66-102.77-135.77-122.74-164.05s-60.21-75.85-89.9-137.69c-29.68-61.84-59.09-142.3-75.39-177.47-16.3-35.17-59.78-115.4-66.8-134.09-7.02-18.69-34.64-101.29-34.64-101.29l9.58-3.55-45.72-133.01-21-24.13s-23-34.4-36.98-35.14c-13.98-.73-27.99-1.7-49.27,11.59-21.28,13.28-118.95,75.35-151.92,106.36-32.97,31.01-110.22,114.94-138.36,160.97-28.14,46.04-46.17,74.82-67.01,143.03-20.84,68.21-56.06,142.34-75.21,171.52-9.15-6.15-26.31-17.22-26.31-17.22,0,0,42.02-71.14,58.98-113.39,16.96-42.25,45.89-119.2,66.43-156.34,20.54-37.15,73.89-109.51,105.88-140.85s69.81-69.16,102.68-91.47c32.86-22.31,101.93-74.46,118.61-82.36,16.68-7.9,47.44-20.72,50.34-34.31,2.9-13.6,4.15-30.47-13-69.74-17.15-39.27-73.83-133.98-85.02-150.64-11.18-16.66-25.46-49.31-44.07-70.04-18.61-20.72-67.57-70.05-80.84-83.35-13.27-13.3-67.24-89.84-98.25-154.31-31.02-64.47-83.58-152.03-112.17-181.37-28.59-29.34-79.15-54.69-131.14-73.95-52-19.26-104.5-35.63-161.97-67.94-57.47-32.31-97.57-61.58-111.27-71.52-13.71-9.94-35.17-4.15-46.58,6.02-11.41,10.16-40.74,40.4-54.57,67.38-13.83,26.98-27.79,49.98-37.84,92.85-10.05,42.87-17.68,78.32-18.65,106.43-.97,28.11-3.17,110.94-8.53,127.01s-12.95,56.46-38.5,97.88c-25.54,41.42-68.99,131.34-78.99,146.23s-110.73,127.23-133.28,158.81c-22.55,31.57-89.89,110.96-119.13,135.54-29.23,24.58-47.76,62.6-48.96,86.05-1.2,23.45-11.8,119.27-10.79,133.93,1.01,14.66,21.61,150.95,31.25,168.31,9.64,17.36,21.12,43.85,26.35,64.69,5.23,20.84,36.14,188.5,38.08,214.06,1.94,25.56,2.09,54.92-1.27,74.93-3.36,20.01-9.84,50.59-10.83,64.37-1,13.78-12.85,109.09-15.65,128.08-2.8,18.99-3.06,36.18-.21,59.96,2.85,23.78,25.92,142.08,26,155.23.08,13.15-4.07,32.57,1.04,40.03,5.11,7.46,9.54,11.97,25.77,10.49,16.23-1.48,49.77-5.08,65.25-11.63,15.47-6.54,67.77-27.75,88.68-32.52s252.39-64.72,279.93-70.72c27.54-5.99,170.18-47.04,190.71-49.64,20.53-2.6,99.67-6.19,121.33-10.6,21.67-4.41,37.62-7.73,53.05-22.49,15.42-14.76,47.98-59.58,50.33-67.45,2.35-7.87,4.95-7.79-3.09-15.99-8.04-8.2-39.6-29.1-43.1-36.81-3.5-7.7-9.45-22.33-9.45-22.33l21.57-5.1s6.76,18.5,16.96,25.43c10.2,6.94,109.18,37.04,117.19,40.31,8.01,3.27,13.91,11.32,18.52,16.98,4.61,5.66,31.75,30.04,34.63,33.61,2.88,3.56,4.75,8.22,6.07,13.9,1.32,5.68,10.81,56.67-6.58,133.77s-31.8,174.2-32.71,185.39,7.06,190.49,7.79,206.36,13.36,146.08,13.36,146.08l-20.23,3.02s-15.95-171.31-18.7-200.75c-2.75-29.44-7.92-76.61-6.47-103.15,1.44-26.54,3.42-98.28,8.67-126.09,5.25-27.81,26.48-162.6,26.85-182.16.37-19.56,4.42-39.67-18.59-64.68-23.01-25-64.32-18.36-83.37-5.88-19.05,12.48-69.48,49.39-83.38,55.46-13.9,6.07-90.53,21.75-118.89,22.22-28.37.48-42.07,1.58-68.3,6.91-26.23,5.33-362.69,94.12-392.09,101.81-29.41,7.68-113.6,32.48-131.84,44.13-18.24,11.65-24.19,15.83-36.05,16.67-11.86.83-48.8,2.12-51.08,10.45-2.28,8.33-3.36,76.65,6.51,103.38,9.87,26.73,14.44,36.86,23.95,48.6,9.51,11.74,25.91,31.85,31.86,48.12,5.95,16.27,59.78,131.15,65.03,150.57,5.25,19.43,44.04,194.14,44.04,194.14l-38.39,5.73s-7.34-42.86-12.64-59.46-28.88-95.81-28.88-95.81l-60.28-3.92s-146.72,45.18-172.73,50.48c-26,5.29-53.18,13.58-88.26,12.48-1.59-12.92-6.15-41.15-6.15-41.15,0,0,5.67,1.03,19.73-.83,14.06-1.86,191.36-40.57,191.36-40.57,0,0,43.53-4.39,56.2-17.09,12.67-12.7,21.43-42.21,19.32-53.18-2.11-10.97-64.65-137-75.65-166.62-11-29.61-34.68-103.17-39.7-132.03-5.02-28.86-17.61-215.47-19.1-233.35s-1.95-42.95.6-55.79c2.55-12.84,26.43-139.32,27.97-155.77,1.54-16.45,3.88-107.75,2.95-120.3-.93-12.55-18.86-75.92-22.47-95.35-3.61-19.44-24.71-137.09-28.57-150.38-3.87-13.29-43.63-130.03-45.55-142.91s-6.73-81.25-6.8-97.46c-.07-16.21,11.29-111.68,11.27-124.37s-7.04-47.13-11.56-55.38c-4.52-8.26-16.54-16.33-22.54-23.43s-61.92-90.4-65.43-99.75-29.45-148.37-28.27-154.65,4.06-12.12,2.44-19.87c-1.63-7.75-15.03-37.71-25.31-51.45-10.28-13.74-133.51-155.86-140.18-165.91-6.67-10.05-22.43-27.44-36.14-27.98-13.71-.54-49.2-8.4-60.99-7.11-11.79,1.29-30.57,2.21-30.57,2.21l-2.78-18.62s95.02,1.32,103.88,3.99,23.4,15.07,33.37,26.74c9.97,11.67,131.16,154.33,140.18,165.91s17.34,18.56,21.98,33.85,19.84,65.19,19.84,65.19c0,0,17.38-1.66,21.11,1.31,3.73,2.97,8.77,9.97,6.53,13.83s-11.98,12.6-12.04,20.13,7.42,56,13,65.04,19.94,39.09,15.2,43.56-11.56,17-7.15,22.93,45.21,63.52,47.68,69.03,10.06,20.12,17.4,22.08c7.34,1.96,23.47-.22,33.9-9.06,10.43-8.84,83.28-65.55,88.24-71.7s27.15-46.36,31.47-55.23c4.32-8.87,117.7-132.51,127.85-138.49s14.42-7.32,23.92-17.67c9.5-10.35,27.05-37.65,37.19-54.68,10.15-17.03,39.25-72.37,43.76-81.51s28.87-86.81,35.95-110.19c7.08-23.39,15.4-49.54,16.08-60.69.69-11.15-1.22-99.47-1.13-116.17.09-16.7,8.24-73.85,43.14-132.89,34.9-59.03,58.17-90.48,75.67-99.2Z"/><g id="Small_streets" class="cls-1"><path class="cls-3" d="M1785.51,1725.54c-13.56,1.48-180.75,154.69-215.79,182.64l-36.27,29.52-78.33,68.02s-61.94,15.61-75.88,13.84"/><path class="cls-3" d="M1395.55,1006.12c-78,53.21-92.82,90.29-116.59,135.67-23.77,45.39-48.44,125.69-55.29,145.98-6.84,20.29-38.84,74.58-64.28,118.21-15.72,26.96-25.85,54.83-23.15,75.86s21.08,123.29,21.08,123.29"/><path class="cls-3" d="M1226.3,1285.14c-1.84.27,285.64,101.07,285.64,101.07"/><polyline class="cls-3" points="1400.4 1514.27 1511.94 1386.21 1592.41 1290.36 1687.69 1178.17"/><line class="cls-3" x1="1198.4" y1="1214.27" x2="1243.04" y2="1229.68"/><path class="cls-3" d="M1198.4,1214.27s22.16-44.99,30.94-62.98,34.79-79.04,53.17-103.52c18.38-24.48,73.85-89.08,73.85-89.08"/><path class="cls-3" d="M1166.2,881.04s60.69,65.47,71.97,71.23c11.28,5.76,87.28,42.82,87.28,42.82"/><path class="cls-3" d="M1137.41,934.5c21.97,24.48,52.28,55.98,60.6,61.88,8.33,5.9,86,49.4,86,49.4"/><path class="cls-3" d="M1198.02,996.38c-11.16,12.98-70.54,101.59-70.54,101.59"/><line class="cls-3" x1="1204.39" y1="1202.11" x2="1009.63" y2="1115.57"/><path class="cls-3" d="M1198.4,1214.27s-3.46,12.72-6.04,13.41-33.37-2.12-47.03-1.89-132.78,12.07-139.14,13.32c-6.36,1.25-15.56,2.96-19.19,15.84"/><line class="cls-3" x1="920.12" y1="834.23" x2="1025.19" y2="666.72"/><polyline class="cls-3" points="1088.89 722.87 1057.87 763.77 959.8 878.62 917.02 878.45"/><polyline class="cls-3" points="959.8 878.62 1020.73 937.7 1073.49 997.51"/><path class="cls-3" d="M1018.91,935.94c16.65-16.53,135.8-154.67,135.8-154.67"/><polyline class="cls-3" points="1057.87 763.77 1120.44 820.89 1174.07 869.61"/><line class="cls-3" x1="1065.89" y1="883.51" x2="1133.91" y2="939.7"/><path class="cls-3" d="M900.75,979.3s-3.9,53.98-4.81,57.86-26.19,15.99-27.68,18,8.12,36.42,7.26,40.66-12.84,31.63-12.84,31.63"/><line class="cls-3" x1="895.94" y1="1037.16" x2="978.32" y2="1019.9"/><polyline class="cls-3" points="732.98 1004.77 764.24 1096.3 859.89 1133.53"/><line class="cls-3" x1="764.24" y1="1096.3" x2="736.96" y2="1143.42"/><line class="cls-3" x1="708.87" y1="1042.55" x2="755.67" y2="1071.2"/><path class="cls-3" d="M1135.23,1383.94c-15.84,20.93-21.46,31.15-25.18,45.1-3.72,13.95-12.02,84.42-9.53,97.89s11.23,73.24,11.23,73.24"/><line class="cls-3" x1="1100.51" y1="1526.93" x2="957.53" y2="1523.28"/><polyline class="cls-3" points="938.34 1616.06 957.53 1523.28 990.06 1256.43"/><path class="cls-3" d="M1143.44,1438.92l-32.35-13.49-134.88-55.36-144.55-22.71s-70.6,8.76-83.44,12.46c-12.85,3.7-225.03,30.33-225.03,30.33l-214.5,32.04-131.5,19.64-111.76,16.69"/><path class="cls-3" d="M1472.64,452.68s79.28,107.34,91.81,131.38c12.52,24.03,63.22,127.22,65.04,139.46,1.83,12.23-.08,14.41-5.59,19.42s-150.25,110.59-162.07,116.83c-15.27,8.05-110.55,97.99-105.47,98.93"/><line class="cls-3" x1="1327.67" y1="933.04" x2="1446.89" y2="835.65"/><polyline class="cls-3" points="1461.83 859.77 1446.89 835.65 1386.88 689.99"/><path class="cls-3" d="M1209.33,829.1s10.99-9.91,27.08-16.96c16.09-7.04,109.61-45.85,115.25-52.94s35.22-69.22,35.22-69.22c0,0,22.85-74.28,30.06-79.85,7.21-5.57,110.74-81.36,110.74-81.36"/><path class="cls-3" d="M1088.89,722.87l36.59-49.13,35.89-90.25s23.85-74.99,23.58-78.07c-.27-3.09,7.09-104.6,7.09-104.6l11-116.72-96.35-.35"/><polyline class="cls-3" points="1004 549.94 1161.36 583.49 1407.11 630.23 1616.09 690.55"/><path class="cls-3" d="M1125.48,673.74l234.96,69.94s8.94,2.61,14.19,1.83,31.87-7.89,31.87-7.89"/><line class="cls-3" x1="1305.19" y1="782.5" x2="1396.56" y2="876.76"/><path class="cls-3" d="M1185.14,500.45s13.29-1.66,17.29-.77,60.56,30.72,63.64,37.33c3.07,6.6-2.52,58.4-3.7,65.7"/><path class="cls-3" d="M1414.05,395.61s-37.79-42.93-57.23-72.85c-19.44-29.92-56.97-103.37-56.97-103.37,0,0-48.6-101.27-68.96-129.05-20.36-27.78-41.14-29.36-63.89-23.95"/><path class="cls-3" d="M832.39,334.09s257.07-185.11,280.5-199.33c23.43-14.22,49.38-45.56,52.46-54.06,3.08-8.5-2.93-26.36-11.75-36.43s-80.92-66.97-80.92-66.97c-29.76-14.31-95.04-38.73-95.04-38.73,0,0-42.95-4.97-56.12,1.01-13.17,5.99-22.4,4.02-31.18,20.74-8.78,16.72-21.16,47.37-21.16,47.37l-41.38,56.43-65.41,79.44-53.7,102.48-21.66,56.83s-33.55,102.82-32.94,109.87,9.86,18.18,9.86,18.18l-23.41,44.59-30.09,54.41"/><polyline class="cls-3" points="1018.94 459.48 1059.58 367.15 1106.67 283.75 1057.12 173.37"/><polyline class="cls-3" points="1203.02 284.1 1204.68 216.19 1112.89 134.77 1040.11 78.65 869.19 7.7"/><polyline class="cls-3" points="1204.68 216.19 1232.22 164.51 1165.88 71.25"/><line class="cls-3" x1="1232.22" y1="164.51" x2="1288.71" y2="196.55"/><line class="cls-3" x1="1203.47" y1="265.73" x2="1299.86" y2="219.39"/><polyline class="cls-3" points="697.49 -44.36 793.85 -11.19 857.36 23.84"/><polyline class="cls-3" points="868.14 223.58 1023.03 105.31 1040.11 78.65"/><line class="cls-3" x1="827.81" y1="64.13" x2="955.15" y2="157.99"/><polyline class="cls-3" points="990.73 494.11 860.11 534.13 871.4 599.74 884.16 609.44 995.39 585"/><line class="cls-3" x1="884.16" y1="609.44" x2="949.21" y2="650.87"/><polyline class="cls-3" points="860.11 534.13 778.28 620.19 913.98 702.25 978.69 740.85"/><line class="cls-3" x1="871.4" y1="599.74" x2="821.16" y2="575.1"/><polyline class="cls-3" points="778.28 620.19 536.11 489.92 469.68 619.24 432.31 695.98 387.05 769.74 364.15 809.78 344.15 861.3 337.72 923.89 336.56 995.82 354.65 1116.96"/><path class="cls-3" d="M243.41,1109.78l-11.35-42.07s-10.03-45.25-11.06-62.07c-1.02-16.82-1.29-58.46,3.34-77.32s10.52-55.17,23.87-77.41c13.35-22.24,16.84-16.81,31.03-31.43,14.19-14.62,26.62-45.06,26.62-45.06l40.55-41.49"/><path class="cls-3" d="M428.15,590.35l41.53,28.89,168.57,78.07,78.93,32.05,31.23,11.71,102.18,53.65,69.54,39.5s-4.79,65.62-4.59,70.95-16.54,50.71-21.88,70.4"/><line class="cls-3" x1="692.98" y1="719.54" x2="763.76" y2="612.38"/><path class="cls-3" d="M638.25,697.31s-24.9,58.58-25.29,61.91,8.04,19.94,9.61,24.47,4.86,10.59,3.97,14.59-19.5,74.97-19.5,74.97"/><line class="cls-3" x1="714.91" y1="897.63" x2="746.18" y2="740.24"/><line class="cls-3" x1="399.01" y1="626.52" x2="447.57" y2="664.64"/><line class="cls-3" x1="432.31" y1="695.98" x2="497.28" y2="728.26"/><path class="cls-3" d="M338,921.17l168.56,36.76s47,49.55,50.54,55.28c3.53,5.72,15.21,34.05,15.21,34.05l116.3,27.04"/><polyline class="cls-3" points="627.85 880.86 613 1008.72 605.66 1033.34 589.89 1051.34"/><polyline class="cls-3" points="613 1008.72 677.69 1001.15 726.1 1015.55"/><polyline class="cls-3" points="572.31 1047.26 429.21 1040.04 415.82 1115.04"/><polyline class="cls-3" points="380.76 930.49 381.06 1012.7 404.2 1037.23 429.21 1040.04"/><polyline class="cls-3" points="344.15 861.3 291.57 850.1 248.22 850.91 161.52 852.55 72.48 892.35 -15.75 915.05"/><polyline class="cls-3" points="152.7 856.49 123.92 774.2 62.42 659.52 31.84 598.29 -64.4 500.12 -78.56 494.49"/><polyline class="cls-3" points="-47.46 702.73 65.16 664.62 136.01 645.85 239.99 604.42 249.34 601.24 294.49 668.33 328.71 712.05 346.42 732.93 389.71 765.4 553.84 853.8 627.85 880.86 714.91 897.63 770.71 911.23 1229.34 1151.29"/><path class="cls-3" d="M183.65,626.87s19.87,38.38,24.41,38.89,63.11-32.09,63.11-32.09l73.7-40.75,69.04-74.03s35.22-47.27,41.05-58.1,20.8-60.11,20.8-60.11l20.64-81.09,58.82-159.74,5.8-45.53-4.82-44.24"/><polyline class="cls-3" points="476.27 398.62 553.05 435.88 640.56 475.52"/><path class="cls-3" d="M536.11,489.92s-8.33-13.94-5.01-21.58c3.32-7.64,21.95-32.46,21.95-32.46"/><path class="cls-3" d="M161.52,852.55s-12.26,109.32-12.1,120.31,8.92,53.75,15.71,73.28,20.3,78.11,20.3,78.11c0,0,9.16,29.44,9.39,32.98s-1.14,10.29-4.88,11.15c-3.74.86-41.57,4.72-48.4,4.85s-79.07,1.92-79.07,1.92"/><path class="cls-3" d="M41.67,1182.28s-5.15-32.37-3.23-37.42,55.13-47.54,58.74-55.22,20.33-31.32,21.53-39.24c1.2-7.92,16.65-54,18.03-58.67s12.76-16.83,12.76-16.83"/><path class="cls-3" d="M149.52,974.89s-101.54-33.33-110.39-36.77c-8.85-3.44-43.03-15.01-46.22-24.36"/><path class="cls-3" d="M10.45,1196.35s5.54,20.34,19.87,27.13c14.33,6.79,29.3,15.28,40.39,17.79,11.09,2.51,36.85,5.51,43.04,9.05s21.03,13.23,23.11,19.18,31.82,123.87,31.82,123.87c0,0,15.56,69.73,15.47,83.14s-4.32,100.69-8.65,113.54-26.6,112.95-26.6,112.95"/><path class="cls-3" d="M308.68,1422.19s-4.64-38.01-8.74-58.54c-4.11-20.53-14.63-77.02-16.75-89.2-2.12-12.19-17.82-91.43-17.82-91.43,0,0-10.68-35.62-14.59-39.85s-7.37-33.39-7.37-33.39l107.28-19.3"/><path class="cls-3" d="M399.41,1855.25s141.98-44.16,158.53-49c16.55-4.84,241.1-62.31,249.42-68.41,8.32-6.1-1.28-67.57-1.28-67.57l-5.39-155.28"/><path class="cls-3" d="M535.11,1719.17s18.21,36.2,19.79,50.75c1.58,14.54,1.61,36.77,1.61,36.77"/><path class="cls-3" d="M810.64,1714.88c31.9-8.59,67.05-20.39,74.89-25.73,7.84-5.34,60.52-31.37,60.52-31.37"/><path class="cls-3" d="M925.81,1617.93c3.71,6.89,20.24,39.85,20.24,39.85,0,0,70.84,165.09,77.13,173.38,6.28,8.29,30.89,53.45,37.09,65.03,6.2,11.58,29.84,82.19,29.84,82.19l16.35,49.72"/><line class="cls-3" x1="963.86" y1="1699.05" x2="1099.71" y2="1657.13"/><path class="cls-3" d="M1020.56,1826.44s-27.22,10.38-43.02,14.23c-15.8,3.85-228.93,46.1-254.04,53.42-25.11,7.32-268.15,86.5-276.26,88.01-8.11,1.51-41.42,9.76-41.42,9.76l-69.91,8.36"/><polyline class="cls-3" points="372.78 1995.81 374.09 2116.29 349.91 2119.9"/><path class="cls-3" d="M440.95,2029.87s135.66,7.05,152.2,4.13c16.53-2.92,159.17-50.63,159.17-50.63l155.92-38.56,146.46-58.92"/><polyline class="cls-3" points="725.73 1893.48 752.32 1983.37 770.45 2032.97"/><path class="cls-3" d="M1020.56,1826.44s75.09-9.37,95.91-16.5c20.82-7.13,69.24-35.8,82.72-47.19,13.48-11.39,56.23-18.22,72.54-7.71,16.31,10.52,33.15,36.58,27.37,60.67-5.78,24.09-32.06,132.22-31.78,143.05s-.17,19.82-.17,19.82l55.24,7.44s34.32,14.86,45.24,14.18c10.92-.67,156.39-88.43,156.39-88.43l21.62-28.41"/><path class="cls-3" d="M1075.67,1936.4s53.65-19.39,73.93-33.14c20.28-13.76,42.11-29.08,46.82-54.34s-1.51-57.99-13.71-76.86"/><path class="cls-3" d="M1193.77,1858.23s18.36,12.15,23.76,27.35c5.4,15.2,17.69,58.61,19.31,69.47,1.62,10.86.55,75.45.55,75.45"/><line class="cls-3" x1="1267.15" y1="1978.59" x2="1237.68" y2="1976.59"/><path class="cls-3" d="M1400,1649.33l40.43,4.59,127.53,18.25,76.23,8.04s110.26,32.54,114.79,35.94,26.53,9.39,26.53,9.39"/><path class="cls-3" d="M1355.06,1834.14l182.86,36.63,81.7-115.88,19.03-75.27,121.62-143.44c21.25-18.95,47.06-37.55,48.64-53.86,1.58-16.31-5.63-61.6-13.53-90.61-7.91-29.01-8.82-56.08-33.13-105.17-24.3-49.09-57.76-92.37-74.57-108.37-16.81-16-35.13-43-35.13-43l-75.01-32.76s-39.68-50.39-40.33-54.74-9.96-42.74-5.66-49.84c4.3-7.1,9.64-13.23,27.95-16.2,18.31-2.97,103.54-15.46,103.54-15.46"/><polyline class="cls-3" points="1541.64 1668.4 1528.71 1753.28 1483.59 1782.78"/><line class="cls-3" x1="1617.71" y1="1866.83" x2="1528.71" y2="1753.28"/><line class="cls-3" x1="1567.96" y1="1672.17" x2="1795.38" y2="1391.71"/><polyline class="cls-3" points="1424.06 1046.74 1692.52 1028.97 1748.27 1031.42 1868.15 993.8"/><path class="cls-3" d="M1799.62,1015.31s56.18,138,66.77,152.05c10.58,14.05,124.26,138.2,124.26,138.2l26.42,37.31"/><path class="cls-3" d="M1652.56,1135.17l63.24-52.07s-14.72-35.76-23.27-54.14l-29.48-62.8-48.93-160.06"/><line class="cls-3" x1="1814.96" y1="1184.86" x2="1715.8" y2="1083.11"/><polyline class="cls-3" points="1784.12 1515.52 1850.47 1572.13 1896.95 1575.11"/><line class="cls-3" x1="1426.65" y1="1652.36" x2="1648.92" y2="1372.79"/><line class="cls-3" x1="1472.06" y1="1432" x2="1651.39" y2="1569.28"/><path class="cls-3" d="M1388.06,1635.69l12.33-121.42s-3.32-8.4-10.72-13.1c-7.4-4.7-158.22-75.53-164.41-72.14-6.19,3.38-22.85,19.37-22.85,19.37"/><path class="cls-3" d="M1058.08,1525.85l12.88,77.06s40.14,75.48,43.18,81.88c3.04,6.39,4.7,31.45-6.76,36.44-11.46,4.99-119.23,33.58-119.23,33.58"/><path class="cls-3" d="M708.71,246.05l79.42,32.35,47.52,55.21,47.35,50.76s68.81,54.04,71.45,56.77,7.44,10.95,2.41,16.16c-5.03,5.22-78.18,71.14-78.18,71.14"/><polyline class="cls-3" points="663.97 430.93 794.78 499.38 733.19 595.93"/><path class="cls-3" d="M878.69,528.44s-64.36-40.11-70.68-41.36-8.54,4.94-13.23,12.29"/><polyline class="cls-3" points="723.29 461.97 750.91 417.95 788.66 371.67 835.65 333.61"/><path class="cls-3" d="M885.39,386.25s-27,31.72-29.37,34.76-6.18,4.5-11.07,1.65-56.3-50.99-56.3-50.99"/><path class="cls-3" d="M680.89,439.78s54.69-107.53,53.35-114.48-9.7-19.99-9.7-19.99"/><polyline class="cls-3" points="641.33 279.34 686.16 305.6 713.93 316.92 724.54 305.32 742.95 260"/><polyline class="cls-3" points="788.12 278.4 817.17 236.55 803.28 215.4 822.39 187.98"/><line class="cls-3" x1="926.72" y1="418.84" x2="963.4" y2="387.89"/><line class="cls-3" x1="883.17" y1="297.6" x2="949.43" y2="399.68"/><path class="cls-3" d="M249.34,601.24s-64.1-101.26-66.75-110.02-46.25-181.12-46.25-181.12l-29.29-104.82-7.73-51.78-20.88-55.99"/><polyline class="cls-3" points="-95.1 479.99 35.37 384.72 137.42 317.3 189.48 259.28 267.34 184.01 336.21 122.81 383.88 79.83 449.94 36.99"/><line class="cls-3" x1="-122.6" y1="199.61" x2="35.37" y2="384.72"/><path class="cls-3" d="M-7.67,416.15s22.8,39.34,25.55,44.29,17.86,42.89,17.86,42.89l-54.19,43.67"/><polyline class="cls-3" points="67.28 424.25 161.72 410.14 209.67 398.96 280.57 435.6 294.93 476.42 367.3 566.24"/><line class="cls-3" x1="344.86" y1="592.92" x2="254.01" y2="480.55"/><polyline class="cls-3" points="280.57 435.6 328.53 365.93 394.27 307.75"/><line class="cls-3" x1="189.48" y1="259.28" x2="328.53" y2="365.93"/><polyline class="cls-3" points="368.41 93.79 449.94 164.11 428.85 193.39 424.29 239.62 369.97 278.62 394.27 307.75 445.98 366.35 478.29 390.67"/><line class="cls-3" x1="534.2" y1="216.88" x2="449.94" y2="164.11"/><polyline class="cls-3" points="404.5 66.46 555.2 159.85 607.16 176.13 562.56 319.38 510.59 413.2"/><line class="cls-3" x1="445.98" y1="366.35" x2="312.03" y2="497.64"/><line class="cls-3" x1="367.39" y1="331.54" x2="422.45" y2="389.41"/><polyline class="cls-3" points="391.3 263.31 450.68 303.65 496.38 319.59"/><polyline class="cls-3" points="424.29 239.62 458.74 223.09 499.36 266.6 514.36 271.91"/><polyline class="cls-3" points="107.96 208.52 138.12 197.95 227.17 143.79 224.2 109.87 256.45 78.29"/><line class="cls-3" x1="415.69" y1="1158.08" x2="265.37" y2="1183.02"/><polyline class="cls-3" points="422.09 1264.33 365.33 1260.24 282.52 1270.79"/><line class="cls-3" x1="365.66" y1="1166.79" x2="365.33" y2="1260.24"/><polyline class="cls-3" points="418.09 1331.1 332.35 1320.55 292.79 1326.45"/><line class="cls-3" x1="300.47" y1="1366.43" x2="415.36" y2="1372.51"/><path class="cls-3" d="M519.5,1130.19l1.76,196.25,1.92,63.71,19.85,111.98-20.9,144.12s1.19,46.83,3.28,51.88,9.69,21.03,9.69,21.03"/><path class="cls-3" d="M376.68,1641.74l145.96,1.02,135.51-54.67,142.54-73.1,20.75-35.7,8.09-44.53,6.3-11.66-4.17-75.75-6.34-63.37,11.49-100.13,25.87-56.41s118.93,15.73,126.13,14.66c7.2-1.08,11.16-4.5,13.57-9.25,2.42-4.75,33.69-82.73,33.69-82.73,0,0,11.67-26.25,16.37-33.65s77.01-61.52,87.16-86.26c10.15-24.74,34.86-68.63,69.72-101.12"/><line class="cls-3" x1="821.44" y1="1479.29" x2="926.78" y2="1619.76"/><line class="cls-3" x1="805.08" y1="1641.43" x2="901.58" y2="1586.16"/><polyline class="cls-3" points="825.08 1459.23 890.09 1509.23 919.89 1522.47 957.53 1523.28"/><line class="cls-3" x1="838.97" y1="1422.63" x2="969.21" y2="1437.7"/><path class="cls-3" d="M705,1366.48s9.69,82.75,12.56,84.11c2.88,1.36,111.04-10.74,111.04-10.74"/><line class="cls-3" x1="372.78" y1="1554.02" x2="535.69" y2="1552.79"/><line class="cls-3" x1="374.12" y1="1593.85" x2="529.96" y2="1592.31"/><path class="cls-3" d="M420.51,1292.09l100.75,34.36s14.13,1.9,31.23-3.19,69.92-34.23,69.92-34.23l69.96-45.92"/><polyline class="cls-3" points="653.75 1128.94 692.37 1243.1 750.28 1358.71"/><polyline class="cls-3" points="590.46 1129.75 608.33 1249.4 622.42 1289.03"/><path class="cls-3" d="M737.81,1236.32c1.68-.7,42.9,2.53,42.9,2.53l48.13,7.55"/><line class="cls-3" x1="781.78" y1="1160.29" x2="760.84" y2="1235.04"/><polyline class="cls-3" points="732.6 1323.41 779.7 1302.86 770.01 1238.04"/><line class="cls-3" x1="825.32" y1="1283.99" x2="779.7" y2="1302.86"/><polyline class="cls-3" points="756.05 1313.18 776.76 1354.76 828.6 1439.85"/><line class="cls-3" x1="155" y1="1339.37" x2="44.61" y2="1358.61"/><line class="cls-3" x1="167.61" y1="1386.27" x2="52.18" y2="1409.29"/><polyline class="cls-3" points="180.35 1549.02 121.88 1544.03 73.39 1551.27"/><line class="cls-3" x1="166.73" y1="1624.83" x2="81.27" y2="1630.93"/><polyline class="cls-3" points="148.9 1703.01 132.93 1795.27 115.2 1897.7 140.77 1900.73 236.2 1894.51"/><path class="cls-3" d="M259.9,1429.47s3.2,97.18,3.08,110.3-12.19,67.92-13.58,78.55-17.9,93.49-17.9,93.49l-5.15,11.34.82,80.27,17.42,175.72,4.48,30.03,24.71,91.44"/><line class="cls-3" x1="143.4" y1="2020.03" x2="249.07" y2="2009.16"/><line class="cls-3" x1="227.17" y1="1803.42" x2="132.31" y2="1798.85"/><polyline class="cls-3" points="1519.86 428.95 1505 377 1488.19 167.73 1471.18 -4.5 1482.67 -53.12"/><polyline class="cls-3" points="1230.69 -18.82 1260.48 7.55 1322.64 82.67 1488.19 167.73"/><line class="cls-3" x1="1505.87" y1="382.85" x2="1754.5" y2="313.61"/><polyline class="cls-3" points="1589.89 -84.31 1665.06 82.57 1754.5 313.61 1781.9 385.32 1810.16 470.1 1832.78 532.72 1857.66 609.57 1893.17 748.64 1900.8 840.1 2023.76 837.82"/><line class="cls-3" x1="1803.24" y1="-23.94" x2="1648.33" y2="45.42"/><line class="cls-3" x1="1704.07" y1="183.32" x2="1883.69" y2="102.05"/><path class="cls-3" d="M2019.34,471.2s-288.7,90.86-296.85,94.58-19.29,18.85-9.35,36.08c9.94,17.24,86.74,168.11,91.26,180.39s29.87,60.97,32.97,86.19c3.1,25.22,30.78,125.37,30.78,125.37,0,0,25.81,83.13,33.64,95.19,7.83,12.06,153.09,203.7,153.09,203.7"/><line class="cls-3" x1="2103.15" y1="1051.15" x2="1930.96" y2="1130.91"/><line class="cls-3" x1="2067.62" y1="983.72" x2="1888.99" y2="1057.24"/><path class="cls-3" d="M2017.58,764.5c-4.88-1.28-125.12-18.66-125.12-18.66"/><line class="cls-3" x1="2019.34" y1="551.01" x2="1739.07" y2="652.96"/><path class="cls-3" d="M1383.89,989.73s44.93-51.79,55.42-62.29c10.49-10.5,43.51-37.61,65.49-51.91,21.98-14.3,102.19-69.32,117.74-72.9s34.11-1.89,41.57,12.18c7.46,14.07,49.01,97.88,52.58,112.85,3.58,14.98,17.54,69.61,17.54,69.61l14.03,34.14,13.87,51.02,52.81,102.43s33.55,69.13,42.39,104.43c8.85,35.3,31.71,104.68,33.93,119.54,2.22,14.85,6.9,216.79,6.9,216.79"/><line class="cls-3" x1="1606.63" y1="755.99" x2="1622.54" y2="802.63"/><polyline class="cls-3" points="1420.42 948.1 1465.11 1012.46 1468.63 1043.79"/><line class="cls-3" x1="1808.05" y1="1457.45" x2="1891.23" y2="1438.36"/><line class="cls-3" x1="115.2" y1="1897.7" x2="66.36" y2="1895"/><line class="cls-3" x1="314.53" y1="72.99" x2="342.16" y2="117.45"/><polyline class="cls-3" points="1849.13 26.24 1883.69 102.05 1991.96 328.37"/><line class="cls-3" x1="1934.48" y1="345.17" x2="1959.24" y2="416.99"/><line class="cls-3" x1="1928.01" y1="194.69" x2="2013.75" y2="153.16"/><polyline class="cls-3" points="1974.29 76.3 2013.75 153.16 2041.43 212.06 2049.09 238.85 2096.03 299.12"/><path class="cls-3" d="M1884.25,600.15s78.56,77.46,80.62,78.79c2.06,1.33,3.83,8.33,3.24,11.61-.59,3.27-17.67,61.29-17.67,61.29"/><line class="cls-3" x1="2023.76" y1="1184.86" x2="1986.5" y2="1202.28"/><path class="cls-3" d="M1874.86,2016.46l229.59-188.14s-113.05-128.95-123.55-139.44c-10.5-10.49-17.9-15.19-45.93-10.59"/></g><g id="Large_streets"><path class="cls-2" d="M1017.52,502.33c-20.03,45.3-19.75,103.78-9.19,136.75,10.56,32.97,53.82,58.24,79.32,82.63,25.5,24.39,267.57,233.61,283.55,250.96,15.99,17.35,433.4,625.12,468.88,683.27"/><path class="cls-2" d="M1819.33,1653.36h86.85c20.91,0,37.89,16.98,37.89,37.89v10.14c0,23.53-19.1,42.62-42.62,42.62h-83.69c-22.65,0-41.05-18.39-41.05-41.05v-6.98c0-23.53,19.1-42.62,42.62-42.62Z" transform="translate(-658.82 1685.35) rotate(-42.1)"/><path class="cls-2" d="M1828.16,1772.47c.58,32.24,29.78,127,34.46,164.64,4.68,37.64,23.02,151,34.59,181.24,11.57,30.24,34.74,106.7,95.01,201.81"/><path class="cls-2" d="M1768.53,2353.57s-41.25-63.77-39.28-78.87c1.97-15.1,10.96-68.27,7.3-85.7-3.66-17.43-130.33-256.57-137.78-263.92-7.44-7.35-38.57-17.51-48.44-34.01-9.87-16.51-138.2-224.29-150.33-241.73-12.12-17.44-236.77-239.83-236.77-239.83"/><circle class="cls-2" cx="1009.14" cy="480.31" r="23.01"/><line class="cls-2" x1="1010.4" y1="644.49" x2="966.01" y2="626.36"/><line class="cls-2" x1="1001.4" y1="576.53" x2="966.01" y2="626.36"/><polyline class="cls-2" points="966.01 626.36 770.71 911.23 732.98 1004.77 653.75 1128.94"/><path class="cls-2" d="M1163.24,1409.5s-150.65-137.67-163.4-147.52c-12.75-9.85-105.94-45.28-105.94-45.28l-57.08-32.84s-84.06-37.27-102.5-41.1-80.56-13.82-80.56-13.82c0,0-107.88,1.54-134.25,1.25s-106.22-15.63-106.22-15.63c0,0-132.2,3.97-171.13,12.4-38.93,8.43-202.32,49.02-231.71,69.39"/><path class="cls-2" d="M663.65,1692.46c66.31-9.2,120.54-12.36,150.83-25.35,30.29-12.98,79.44-46.41,109.13-48.73,29.69-2.32,183.9-22.53,210.02-17.62,26.12,4.91,209.06,38.23,223.88,41.65,14.82,3.43,32.02,24.13,29.97,43.47-2.05,19.34-67.3,295.25-65.68,306.12,3.78,25.32,37.92,22.6,51.39,41.97,13.47,19.38,198.77,348.95,198.77,348.95"/><path class="cls-2" d="M79.61,1735.1c12.65-8.44,54.74-33.79,69.29-32.09,14.55,1.7,82.6,8.8,82.6,8.8,0,0,39.31,11.99,53.93,12.19,14.62.2,105.36-.25,105.36-.25,0,0,126.46-2.51,144.32-4.58s134.35-27.5,134.35-27.5"/><path class="cls-2" d="M1030.61,472.01s141.7-71.06,161.42-71.19c19.72-.13,211.3-10.92,222.03-5.21s51.48,56.73,58.59,57.08,41.22-26.12,47.22-23.73c6,2.39,66.74,17.29,74.29,25.33,7.55,8.04,59.68,52.43,74.49,53.74s18.88,4.94,59.13-8.83,382.28-136.06,382.28-136.06"/><path class="cls-2" d="M2093.34,303.19s-467.31,123.79-484.5,126.7c-17.19,2.91-75.28,3.07-75.28,3.07"/><path class="cls-2" d="M1998.06-745.44s-22.86,219.86-21.48,266.9c1.38,47.03,51.49,155.89,61.23,183.34,9.74,27.45,190.29,396.03,203.69,424.35,13.4,28.32,40.66,97.57,46.43,107.88,5.77,10.3,3.09,49.01,1.08,59.18-2.01,10.17-20.61,46.09-25.83,63.08-5.22,17-16.92,37.78-52.1,57.14-35.18,19.36-44.77,16.56-59.97,13.89-15.2-2.66-27.56-38.19-41.06-67.2s-16.71-59.93-16.71-59.93c0,0,12.91-20.58,21.69-24.71,8.78-4.13,52.55-22.65,65.77-25.45,13.21-2.8,98.08-36.16,98.08-36.16"/><path class="cls-2" d="M607.65,77.58s30.89-5.28,50.05,1.9c19.16,7.19,30.79,8.8,39.08,14.93s65.62,49.15,65.62,49.15c32.88,27.25,93.56,65.75,105.74,80.01s41.51,55.01,41.51,55.01c21.4,38.76,37.66,75.86,51.24,103.98,13.58,28.12,32.8,80.69,32.8,80.69"/><path class="cls-2" d="M415.82,1115.04c-1.66,33.55.29,52.61,2.7,78.75s4.32,56.82,3.46,73.03c-.85,16.21-6.52,107.86-7.24,113.03s-3.81,36.3-6.8,44.19-24.42,49.8-25.78,64.59c-1.36,14.79-10.3,62.58-9.74,72.32.56,9.74,6.12,124.73,7.84,132.22s18.89,148.43,19.15,162.09c.25,13.66,18.61,90.71,26.69,122.85,8.08,32.14,34.38,114.56,34.38,114.56"/></g></g><circle class="cls-12" cx="1375.15" cy="1303.56" r="49.1"/><path class="cls-13" d="M1370.75,1305.85v13.87c0,2.63.15,4.58.44,5.85.3,1.27.84,2.32,1.64,3.15.7.72,1.5,1.25,2.41,1.6s2.12.56,3.61.64v.89h-24.69v-.89c1.49-.08,2.7-.29,3.61-.64s1.72-.88,2.41-1.6c.82-.82,1.38-1.87,1.66-3.13s.42-3.22.42-5.87v-28.47c0-2.21-.1-3.92-.29-5.12-.19-1.2-.52-2.17-.99-2.92-.67-1.03-1.52-1.8-2.55-2.3-1.03-.5-2.37-.8-4.02-.91h-.27v-.89h23.29c4.07,0,7.07.21,9,.62,1.93.41,3.7,1.24,5.29,2.47,3.66,2.78,5.49,6.49,5.49,11.13s-1.85,8.16-5.56,10.35c-1.93,1.13-4.28,1.82-7.03,2.05-.88.08-2.99.12-6.33.12h-7.57ZM1370.75,1304.61h3.79c2.55,0,4.51-.19,5.89-.56,1.38-.37,2.61-1.06,3.69-2.07,2.52-2.29,3.79-5.34,3.79-9.16,0-2.11-.37-4.05-1.1-5.81-.73-1.76-1.78-3.2-3.15-4.31-1.57-1.31-3.44-2.09-5.6-2.32-.59-.05-1.95-.08-4.06-.08h-3.24v24.3Z"/><rect class="cls-12" x="1081.98" y="565.28" width="430.42" height="98.71"/><path class="cls-12" d="M1339.37,1407.75l-8.62-12.79h-3.49v12.79h-6.88v-33.79h12.28c4.35,0,7.52.78,9.53,2.34,2.01,1.56,3.01,4.13,3.01,7.69,0,2.88-.61,5.18-1.82,6.88-1.21,1.71-2.93,2.8-5.16,3.27l9.03,13.6h-7.89ZM1338.23,1384.28c0-1.72-.44-2.88-1.31-3.47-.87-.59-2.31-.88-4.31-.88h-5.35v9.01h5.05c1.55,0,2.73-.15,3.56-.44s1.43-.75,1.79-1.37c.37-.62.55-1.57.55-2.86Z"/><path class="cls-12" d="M1356.81,1396.59c.11,2.28.67,3.92,1.66,4.91.99.99,2.55,1.49,4.69,1.49,1.24,0,2.32-.15,3.26-.46.94-.31,1.75-.9,2.45-1.78l4.69,3.34c-1.03,1.48-2.36,2.59-3.99,3.32-1.63.73-3.87,1.1-6.7,1.1-4.22,0-7.36-1.11-9.44-3.32-2.08-2.21-3.11-5.56-3.11-10.03,0-9.16,4.1-13.75,12.3-13.75,3.65,0,6.42,1.03,8.34,3.09,1.91,2.06,2.87,5.06,2.87,9v3.1h-17.02ZM1367.57,1392.24c0-3.89-1.7-5.83-5.1-5.83-1.12,0-2.04.19-2.76.57-.72.38-1.29.95-1.72,1.71-.43.76-.77,1.94-1.01,3.55h10.6Z"/><path class="cls-12" d="M1384.71,1396.59c.11,2.28.67,3.92,1.66,4.91.99.99,2.55,1.49,4.69,1.49,1.24,0,2.32-.15,3.26-.46.94-.31,1.75-.9,2.45-1.78l4.69,3.34c-1.03,1.48-2.36,2.59-3.99,3.32-1.63.73-3.87,1.1-6.7,1.1-4.22,0-7.36-1.11-9.44-3.32-2.08-2.21-3.11-5.56-3.11-10.03,0-9.16,4.1-13.75,12.3-13.75,3.65,0,6.42,1.03,8.34,3.09,1.91,2.06,2.87,5.06,2.87,9v3.1h-17.02ZM1395.48,1392.24c0-3.89-1.7-5.83-5.1-5.83-1.12,0-2.04.19-2.76.57-.72.38-1.29.95-1.72,1.71-.43.76-.77,1.94-1.01,3.55h10.6Z"/><path class="cls-12" d="M1431.32,1394.76c0,2.75-.42,5.18-1.25,7.28s-2.02,3.7-3.56,4.81c-1.55,1.11-3.39,1.66-5.54,1.66-2.83,0-5.25-.89-7.25-2.66v11.55h-6.3v-35.25h5.81v2.51c1.17-1.01,2.41-1.8,3.7-2.38,1.29-.58,2.78-.87,4.46-.87,3.24,0,5.7,1.14,7.4,3.42,1.69,2.28,2.54,5.59,2.54,9.94ZM1424.82,1394.85c0-2.49-.43-4.43-1.29-5.82-.86-1.39-2.15-2.09-3.86-2.09-1.03,0-2.08.24-3.16.72-1.08.48-2.01,1.07-2.8,1.77v11.21c.67.6,1.49,1.14,2.48,1.6.99.46,2,.7,3.04.7,1.72,0,3.09-.74,4.09-2.21,1-1.47,1.5-3.43,1.5-5.87Z"/><path class="cls-12" d="M1012.19,711.9c-1.57,1.81-3.39,2.7-5.45,2.67-2.06-.03-4.23-1.04-6.52-3.03-1.75-1.52-2.94-3.09-3.57-4.72-.63-1.63-.76-3.41-.37-5.35l3.32.42c-.58,2.88.27,5.32,2.56,7.3,1.37,1.19,2.71,1.84,3.99,1.95,1.29.11,2.37-.33,3.23-1.34.49-.57.79-1.16.87-1.77.09-.61.04-1.23-.14-1.85-.18-.62-.47-1.25-.86-1.87-.39-.63-.81-1.26-1.26-1.92-.75-1.06-1.43-2.07-2.04-3.03-.61-.96-1.04-1.9-1.31-2.81-.26-.91-.3-1.83-.12-2.74.19-.91.7-1.85,1.53-2.81,1.49-1.72,3.23-2.6,5.2-2.65,1.98-.04,4.07.89,6.28,2.8,1.76,1.52,2.88,3.06,3.36,4.62.48,1.56.59,3.11.31,4.65l-3.33-.33c.22-1.28.17-2.46-.15-3.55s-1.06-2.12-2.19-3.1c-1.26-1.09-2.48-1.67-3.67-1.72-1.18-.05-2.18.39-2.99,1.32-.43.5-.68,1-.77,1.52-.08.52-.03,1.06.17,1.63.19.57.51,1.19.96,1.86.44.67.96,1.42,1.54,2.26.67,1,1.3,1.96,1.87,2.91.57.95.97,1.89,1.2,2.82.23.94.23,1.88,0,2.85s-.79,1.96-1.68,2.99Z"/><path class="cls-12" d="M1011.58,720.68l12.75-14.71,2.41,2.09-12.75,14.71-2.41-2.09ZM1030.35,704.66c-.49.56-.94.83-1.37.81-.43-.02-.92-.27-1.47-.74-.59-.51-.89-.99-.89-1.44,0-.45.19-.9.59-1.36.43-.5.86-.75,1.31-.77.44-.02.94.21,1.49.69.57.49.88.96.93,1.39.05.43-.14.9-.59,1.42Z"/><path class="cls-12" d="M1027.99,734.91l7.51-8.66c1.22-1.4,1.96-2.4,2.22-2.99.26-.59.33-1.13.19-1.61-.13-.49-.51-.99-1.11-1.52-.62-.54-1.54-.93-2.77-1.17-1.23-.25-2.52-.36-3.87-.36l-9.01,10.39-2.41-2.09,12.75-14.71,2.41,2.09-1.9,2.19c1.27-.09,2.59,0,3.96.25,1.36.26,2.5.78,3.42,1.58,1.42,1.23,2.11,2.54,2.08,3.92-.04,1.38-.89,3.04-2.56,4.96l-8.51,9.81-2.41-2.09Z"/><path class="cls-12" d="M1042.41,747.4c-1.19-.52-2.24-1.18-3.15-1.97-1.5-1.3-2.23-2.62-2.2-3.97.03-1.35.78-2.86,2.23-4.55l7.15-8.24-2.1-1.82,1.75-2.02,2.1,1.82,3.55-4.09,2.41,2.09-3.55,4.09,3.73,3.23-1.75,2.02-3.73-3.23-6.75,7.78c-1.03,1.19-1.65,2.14-1.85,2.86-.21.72.1,1.44.92,2.15.71.62,1.48,1.06,2.32,1.32l-1.08,2.52Z"/><path class="cls-12" d="M1049.68,742.9l2.09-2.41,8.74,7.57-2.09,2.41-8.74-7.57Z"/><path class="cls-12" d="M1068.89,761.1c-1.64,1.9-3.3,2.96-4.96,3.2-1.66.24-3.48-.5-5.45-2.21-.55-.48-1.11-1.08-1.69-1.82-.58-.74-1.02-1.42-1.34-2.05l2.87-1.39c.17.41.47.92.92,1.55.44.62.84,1.09,1.2,1.39.76.66,1.46,1.03,2.09,1.13.64.1,1.31-.08,2.01-.53.7-.45,1.6-1.3,2.69-2.57l11.31-13.05,2.58,2.24-12.24,14.12Z"/><path class="cls-12" d="M1077.64,777.94l1.59-1.84c-1.32,0-2.54-.1-3.67-.33-1.13-.23-2.17-.75-3.12-1.58-1.4-1.21-2.11-2.58-2.13-4.1-.02-1.52.55-2.94,1.71-4.28.88-1.01,1.8-1.68,2.78-2,.98-.32,2.01-.35,3.1-.09,1.09.26,2.42.93,4,2l3.9,2.81.62-.71c.98-1.13,1.33-2.18,1.06-3.13-.28-.96-.97-1.92-2.08-2.88-.99-.86-1.91-1.35-2.74-1.47-.84-.12-1.55-.08-2.13.12l-.93-2.92c1.15-.42,2.38-.45,3.68-.09,1.3.36,2.63,1.14,3.99,2.32,2.11,1.83,3.29,3.53,3.55,5.09.25,1.56-.44,3.29-2.08,5.17l-8.67,10-2.41-2.09ZM1084.11,770.49l-2.55-1.82c-1.72-1.25-3.12-1.91-4.19-2-1.07-.09-2.01.33-2.81,1.26-.76.88-1.09,1.7-.98,2.46.11.76.6,1.53,1.48,2.29.36.32.78.56,1.26.73.47.17.97.31,1.49.41.52.1,1.05.16,1.6.18.54.02,1.08.05,1.6.07l3.11-3.59Z"/><path class="cls-12" d="M1097.73,791.38c-1.14.39-2.33.48-3.59.29s-2.6-.91-4.03-2.15c-2.16-1.87-3.22-3.93-3.18-6.19.04-2.25,1.16-4.66,3.38-7.22,2.22-2.56,4.44-4.03,6.68-4.42,2.23-.38,4.4.34,6.51,2.17,2.42,2.1,3.37,4.49,2.84,7.18l-3.02-.51c.13-.89.09-1.7-.13-2.44-.21-.74-.72-1.46-1.53-2.16-1.41-1.22-2.86-1.58-4.34-1.07-1.48.51-3,1.67-4.57,3.47-1.19,1.37-1.98,2.57-2.36,3.58-.38,1.01-.46,1.98-.22,2.9s.81,1.79,1.73,2.58c.79.68,1.55,1.09,2.3,1.22.75.13,1.61.08,2.59-.15l.93,2.92Z"/><path class="cls-12" d="M1117.69,799.84c-2.21,2.55-4.44,4.01-6.67,4.36-2.23.36-4.4-.38-6.5-2.2-2.1-1.82-3.15-3.86-3.14-6.12s1.13-4.68,3.37-7.26c2.28-2.63,4.53-4.1,6.77-4.42,2.23-.32,4.4.42,6.49,2.24,2.11,1.83,3.15,3.88,3.1,6.14-.04,2.26-1.19,4.68-3.42,7.26ZM1115.2,797.68c1.73-2,2.66-3.74,2.79-5.22.13-1.48-.47-2.79-1.79-3.93-1.36-1.17-2.75-1.59-4.2-1.25-1.45.34-3.03,1.51-4.75,3.5-1.66,1.92-2.58,3.61-2.75,5.08-.17,1.47.44,2.82,1.85,4.03,1.34,1.16,2.73,1.56,4.17,1.21,1.44-.35,3-1.5,4.68-3.43Z"/><path class="cls-12" d="M1134.27,813.97c-2.15,2.48-4.33,3.97-6.55,4.49-2.22.51-4.24-.02-6.07-1.6-.79-.68-1.41-1.5-1.89-2.47-.47-.97-.79-1.92-.94-2.85l-1.05,1.21-2.41-2.09,18.1-20.88,2.41,2.09-6.62,7.64c1.01-.06,2.06.07,3.16.38,1.09.31,2.08.85,2.97,1.62,1.81,1.57,2.61,3.43,2.4,5.57-.21,2.14-1.38,4.44-3.51,6.9ZM1131.73,811.86c1.7-1.96,2.63-3.64,2.8-5.04.16-1.4-.33-2.59-1.47-3.58-.75-.65-1.64-1.08-2.67-1.31-1.03-.22-2.03-.32-2.99-.29l-6.75,7.78c.14.91.43,1.82.87,2.73.44.91.99,1.66,1.67,2.24,1.08.94,2.35,1.24,3.81.9,1.46-.34,3.03-1.49,4.73-3.44Z"/><path class="cls-12" d="M1145.33,829.66c-1.19,1.37-2.61,2.03-4.26,1.97-1.65-.06-3.37-.87-5.16-2.43-1.23-1.06-2.12-2.24-2.69-3.55-.57-1.31-.72-2.57-.44-3.8l2.96.5c-.29,1.83.38,3.45,2.02,4.87,1.07.92,2.04,1.41,2.92,1.46.88.05,1.62-.27,2.22-.96.36-.41.55-.83.59-1.25.04-.42-.06-.89-.29-1.43-.23-.53-.81-1.49-1.74-2.87-1.4-1.92-2.15-3.54-2.25-4.87-.1-1.33.36-2.58,1.38-3.76,1.13-1.3,2.5-1.94,4.11-1.91,1.62.03,3.25.75,4.9,2.19,1.28,1.11,2.14,2.29,2.57,3.55.43,1.26.54,2.42.33,3.48l-2.94-.49c.23-1.81-.36-3.33-1.77-4.56-.8-.7-1.64-1.11-2.5-1.24-.87-.13-1.62.18-2.27.93-.58.66-.75,1.36-.52,2.08.23.72.75,1.66,1.57,2.81,1.29,1.87,2.09,3.27,2.4,4.2s.38,1.79.21,2.6c-.17.81-.62,1.64-1.35,2.48Z"/><path class="cls-12" d="M1154.97,844.97l7.51-8.66c1.22-1.4,1.96-2.4,2.22-2.99.27-.59.33-1.13.19-1.61-.14-.49-.51-.99-1.11-1.52-.62-.54-1.54-.92-2.77-1.17-1.23-.25-2.52-.36-3.87-.36l-9.01,10.39-2.41-2.09,12.75-14.71,2.41,2.09-1.9,2.19c1.27-.09,2.59,0,3.96.25,1.36.26,2.5.78,3.42,1.58,1.42,1.23,2.11,2.54,2.08,3.92-.04,1.38-.89,3.04-2.56,4.96l-8.51,9.81-2.41-2.09Z"/><path class="cls-12" d="M1162.03,851.09l12.75-14.71,2.41,2.09-12.75,14.71-2.41-2.09ZM1180.8,835.08c-.49.56-.94.83-1.37.81-.43-.02-.92-.27-1.47-.74-.59-.51-.89-.99-.89-1.44,0-.45.19-.9.59-1.36.43-.5.86-.75,1.31-.77.44-.02.94.21,1.49.69.57.49.88.96.93,1.39.05.43-.14.9-.59,1.42Z"/><path class="cls-12" d="M1177.09,851.77c-1.69,1.94-2.55,3.62-2.61,5.02-.05,1.4.65,2.74,2.12,4.01.65.57,1.35.93,2.08,1.08.73.15,1.6.12,2.59-.1l.92,2.96c-1.29.35-2.53.41-3.73.17-1.2-.24-2.48-.96-3.86-2.15-2.19-1.9-3.27-3.95-3.25-6.15.02-2.21,1.15-4.6,3.38-7.17,2.33-2.69,4.58-4.22,6.75-4.6,2.17-.37,4.31.36,6.43,2.2,1.91,1.65,2.86,3.44,2.86,5.37,0,1.93-.99,4.03-2.96,6.31l-1.17,1.35-9.56-8.29ZM1185.94,856.12c1.12-1.33,1.73-2.6,1.83-3.79.09-1.19-.46-2.31-1.67-3.36-1.15-1-2.3-1.42-3.44-1.25-1.15.16-2.44.89-3.89,2.19l7.18,6.22Z"/><path class="cls-12" d="M1193.5,878.37l1.9-2.19c-1.4.1-2.76.01-4.09-.27-1.33-.28-2.42-.79-3.29-1.53-.98-.85-1.62-1.73-1.91-2.63-.29-.9-.25-1.84.11-2.82.37-.98,1.12-2.13,2.27-3.45l8.52-9.83,2.41,2.09-7.52,8.68c-1.22,1.4-1.95,2.4-2.21,2.99s-.32,1.13-.19,1.62c.13.49.51.99,1.11,1.52.61.53,1.53.91,2.76,1.15,1.23.24,2.52.36,3.86.36l9.02-10.4,2.41,2.09-12.75,14.71-2.41-2.09Z"/><path class="cls-12" d="M1214.46,896.54l-2.24-1.94,6.17-14.37-13.35,8.15-2.2-1.91,9.09-17.88,2.51,2.18-7.21,13.37,13.22-8.17,2,1.74-6.12,14.31,12.09-9.14,2.41,2.09-16.37,11.57Z"/><path class="cls-12" d="M1234.57,907.02c-1.19,1.37-2.61,2.03-4.26,1.97-1.65-.06-3.37-.87-5.17-2.43-1.22-1.06-2.12-2.25-2.69-3.55-.57-1.31-.72-2.57-.44-3.8l2.96.5c-.29,1.83.38,3.45,2.02,4.87,1.07.92,2.04,1.41,2.92,1.46.88.05,1.62-.27,2.22-.96.36-.41.55-.83.59-1.25.04-.42-.06-.89-.29-1.43-.23-.53-.81-1.49-1.74-2.87-1.4-1.92-2.15-3.54-2.25-4.87-.1-1.33.36-2.58,1.38-3.76,1.13-1.3,2.5-1.94,4.11-1.91,1.62.02,3.25.75,4.9,2.19,1.28,1.11,2.14,2.29,2.57,3.55.43,1.26.54,2.42.33,3.48l-2.94-.49c.23-1.81-.36-3.33-1.77-4.56-.8-.7-1.64-1.11-2.5-1.24-.86-.13-1.62.18-2.27.93-.58.66-.75,1.36-.52,2.08.23.72.75,1.66,1.57,2.81,1.29,1.87,2.09,3.27,2.4,4.2s.38,1.79.21,2.6c-.17.81-.62,1.64-1.35,2.48Z"/><path class="cls-12" d="M1242.04,920.44c-1.19-.52-2.24-1.18-3.15-1.97-1.5-1.3-2.23-2.62-2.2-3.97.03-1.35.78-2.86,2.23-4.55l7.15-8.24-2.1-1.82,1.75-2.02,2.1,1.82,3.55-4.09,2.41,2.09-3.55,4.09,3.73,3.23-1.75,2.02-3.73-3.23-6.75,7.78c-1.03,1.19-1.65,2.14-1.85,2.86-.21.72.1,1.44.92,2.15.71.62,1.48,1.06,2.32,1.32l-1.08,2.52Z"/><path class="cls-12" d="M1263.54,917.5c-.16-.34-.49-.72-.97-1.14-.72-.62-1.56-1.06-2.51-1.31-.96-.25-2.26-.31-3.92-.19l-8.81,10.17-2.41-2.09,12.75-14.71,2.41,2.09-2.07,2.38c1.27-.1,2.5-.09,3.7.03,1.2.12,2.25.57,3.16,1.35.61.53,1.01,1.05,1.2,1.56l-2.53,1.86Z"/><path class="cls-12" d="M1264.36,939.79l1.59-1.84c-1.32,0-2.54-.1-3.67-.33-1.13-.23-2.17-.75-3.12-1.58-1.4-1.22-2.11-2.58-2.13-4.1-.02-1.52.55-2.94,1.71-4.28.88-1.01,1.8-1.68,2.78-2,.98-.32,2.01-.35,3.1-.09,1.09.26,2.42.93,4,2l3.9,2.81.62-.72c.98-1.13,1.33-2.18,1.06-3.13-.28-.96-.97-1.92-2.08-2.88-.99-.86-1.91-1.35-2.74-1.47-.84-.12-1.55-.08-2.13.12l-.93-2.92c1.15-.42,2.38-.46,3.68-.09s2.63,1.14,3.99,2.32c2.11,1.83,3.29,3.53,3.55,5.09.25,1.56-.44,3.28-2.08,5.17l-8.67,10-2.41-2.09ZM1270.82,932.33l-2.55-1.82c-1.72-1.25-3.12-1.91-4.19-2s-2.01.33-2.81,1.26c-.76.88-1.09,1.7-.98,2.46.11.76.6,1.53,1.48,2.29.37.32.78.56,1.26.73.47.17.97.31,1.49.41.52.1,1.05.16,1.6.18.54.02,1.08.04,1.6.07l3.11-3.59Z"/><path class="cls-12" d="M1279.78,953.16l1.59-1.84c-1.32,0-2.54-.1-3.67-.33s-2.17-.75-3.12-1.58c-1.4-1.21-2.11-2.58-2.13-4.1-.02-1.52.55-2.94,1.71-4.28.88-1.01,1.8-1.68,2.78-2,.98-.32,2.01-.35,3.1-.09,1.09.26,2.42.93,4,2l3.9,2.81.62-.71c.98-1.13,1.33-2.18,1.06-3.13-.27-.96-.97-1.92-2.08-2.88-.99-.86-1.9-1.35-2.74-1.47s-1.55-.08-2.13.12l-.93-2.92c1.15-.42,2.38-.46,3.68-.09,1.3.36,2.63,1.14,3.99,2.32,2.11,1.83,3.29,3.53,3.55,5.09.25,1.56-.44,3.29-2.08,5.17l-8.67,10-2.41-2.09ZM1286.24,945.7l-2.55-1.82c-1.72-1.25-3.12-1.91-4.19-2-1.07-.09-2.01.33-2.81,1.26-.76.88-1.09,1.7-.98,2.46.11.76.6,1.53,1.48,2.29.37.32.78.56,1.26.73.47.17.97.31,1.49.41.52.1,1.05.16,1.6.18.54.02,1.08.05,1.6.07l3.11-3.59Z"/><path class="cls-12" d="M1293.91,965.41c-1.19-.52-2.24-1.18-3.15-1.97-1.5-1.3-2.23-2.62-2.2-3.97.03-1.35.78-2.86,2.23-4.55l7.15-8.24-2.1-1.82,1.75-2.02,2.1,1.82,3.55-4.09,2.41,2.09-3.55,4.09,3.73,3.23-1.75,2.02-3.73-3.23-6.75,7.78c-1.03,1.19-1.65,2.14-1.85,2.86-.21.72.1,1.44.92,2.15.71.62,1.48,1.06,2.32,1.32l-1.08,2.52Z"/><path class="cls-12" d="M1302.29,1188.7l-12.2,2-1.73,4.13,9.67,4.05-1.33,3.17-23.69-9.91,3.08-7.36c1.23-2.94,2.66-4.83,4.28-5.65s3.56-.76,5.83.19c1.94.81,3.31,1.84,4.11,3.1.8,1.25,1.02,2.84.67,4.75l12.85-2.17-1.55,3.71ZM1285.09,1182.67c-1.56-.65-2.8-.71-3.72-.16s-1.75,1.7-2.48,3.46l-1.74,4.16,8.42,3.52,1.65-3.95c.55-1.32.85-2.42.89-3.3.04-.87-.18-1.6-.66-2.17-.48-.57-1.26-1.09-2.36-1.55Z"/><path class="cls-12" d="M1297.76,1175.32c2.37.99,4.24,1.3,5.58.91,1.35-.39,2.4-1.48,3.15-3.27.33-.8.46-1.57.38-2.32-.08-.75-.38-1.56-.9-2.43l2.52-1.8c.74,1.11,1.18,2.28,1.33,3.49.14,1.21-.14,2.66-.84,4.34-1.12,2.67-2.73,4.34-4.83,5.01-2.1.67-4.72.35-7.86-.97-3.29-1.38-5.45-3.03-6.48-4.97-1.03-1.94-1.01-4.21.08-6.8.97-2.33,2.38-3.79,4.2-4.4,1.83-.6,4.13-.32,6.92.84l1.64.69-4.88,11.67ZM1299.13,1165.55c-1.62-.65-3.01-.83-4.17-.55-1.16.28-2.05,1.16-2.67,2.63-.59,1.4-.63,2.63-.11,3.66.51,1.04,1.61,2.04,3.29,3.02l3.67-8.76Z"/><path class="cls-12" d="M1305.5,1156.81c2.37.99,4.23,1.3,5.58.91,1.35-.39,2.4-1.48,3.15-3.27.33-.8.46-1.57.38-2.32-.08-.75-.39-1.56-.9-2.43l2.52-1.8c.74,1.11,1.18,2.28,1.33,3.49.14,1.21-.14,2.66-.84,4.34-1.12,2.67-2.73,4.34-4.83,5.01-2.1.67-4.72.35-7.86-.97s-5.45-3.03-6.48-4.97c-1.03-1.94-1.01-4.21.08-6.8.97-2.33,2.38-3.79,4.2-4.4,1.83-.6,4.13-.32,6.92.84l1.64.69-4.88,11.67ZM1306.87,1147.05c-1.62-.65-3.01-.83-4.17-.55-1.16.28-2.05,1.16-2.67,2.63-.59,1.4-.62,2.63-.11,3.66.51,1.04,1.61,2.04,3.29,3.02l3.67-8.76Z"/><path class="cls-12" d="M1318.22,1125.07c2.94,1.23,5.02,2.85,6.22,4.86,1.2,2.01,1.33,4.14.39,6.39-.75,1.79-2.12,3.18-4.1,4.18l8.23,3.44-1.23,2.94-24.72-10.34,1.23-2.94,1.8.75c-.37-.95-.58-1.98-.63-3.12-.05-1.13.15-2.24.61-3.33.89-2.13,2.39-3.46,4.51-3.97,2.11-.51,4.67-.14,7.69,1.12ZM1317.01,1128.14c-4.54-1.9-7.41-1.42-8.6,1.43-.39.94-.53,1.93-.42,2.98.11,1.05.34,2.02.68,2.9l9.5,3.97c1.93-.99,3.22-2.26,3.87-3.81.56-1.33.46-2.67-.3-3.99-.76-1.32-2.33-2.48-4.72-3.48Z"/><path class="cls-12" d="M800.71,823c2.17,1.49,3.27,3.27,3.3,5.33.03,2.06-.84,4.38-2.6,6.95l-4.74,6.9-21.16-14.54,4.31-6.27c1.78-2.59,3.43-4.2,4.96-4.84,1.53-.64,3.16-.36,4.89.83,1.42.97,2.28,2.03,2.6,3.17.31,1.14.29,2.27-.07,3.41,1.15-1.26,2.44-2.03,3.85-2.29s2.97.19,4.67,1.36ZM788.29,820.69c-1.08-.74-2.07-.93-2.98-.56-.91.37-1.95,1.41-3.13,3.14l-2.24,3.26,6.3,4.33,2.14-3.12c1.16-1.69,1.73-3.09,1.69-4.2-.04-1.11-.63-2.05-1.78-2.84ZM798.57,825.85c-.88-.6-1.68-.91-2.42-.91-.74,0-1.47.27-2.2.82-.73.55-1.63,1.62-2.73,3.21l-2.47,3.59,7.29,5.01,1.98-2.88c1.23-1.79,2.01-3.18,2.32-4.15.31-.97.33-1.83.05-2.6-.28-.76-.89-1.47-1.83-2.11Z"/><path class="cls-12" d="M803.52,815.7c2.12,1.46,3.88,2.13,5.28,2.03,1.4-.1,2.65-.96,3.75-2.56.49-.71.77-1.44.84-2.19.07-.75-.06-1.6-.39-2.56l2.84-1.25c.5,1.24.69,2.47.58,3.69-.11,1.22-.68,2.57-1.71,4.07-1.64,2.38-3.56,3.69-5.75,3.91-2.2.23-4.7-.62-7.5-2.55-2.94-2.02-4.71-4.08-5.32-6.19-.61-2.11-.12-4.32,1.46-6.64,1.43-2.08,3.1-3.23,5.01-3.44,1.91-.22,4.11.53,6.6,2.24l1.47,1.01-7.17,10.43ZM806.85,806.42c-1.45-.97-2.78-1.43-3.97-1.39-1.2.04-2.25.72-3.15,2.03-.86,1.25-1.15,2.44-.86,3.56.29,1.12,1.16,2.33,2.61,3.63l5.38-7.83Z"/><path class="cls-12" d="M821.35,806.26l-22.77-15.65,1.81-2.63,22.77,15.65-1.81,2.63Z"/><path class="cls-12" d="M811.75,776.56c-.36.19-.74.47-1.17.84-.42.37-.75.74-1,1.09-.61.89-.81,1.66-.59,2.32.22.66.99,1.44,2.31,2.35l1.56,1.07,2.45-3.56,2.2,1.51-2.45,3.56,13.84,9.51-1.81,2.63-13.84-9.51-1.62,2.36-2.2-1.51,1.62-2.36-1.56-1.07c-1.94-1.33-3.11-2.67-3.52-4.03-.41-1.36.01-2.95,1.27-4.79.79-1.15,1.7-2.05,2.73-2.69l1.77,2.27Z"/><path class="cls-12" d="M834.63,769.84c2.78,1.91,4.48,3.96,5.08,6.14.6,2.18.12,4.42-1.46,6.71-1.58,2.29-3.49,3.56-5.73,3.8-2.25.24-4.78-.6-7.59-2.54-2.87-1.97-4.58-4.05-5.15-6.23-.57-2.18-.07-4.42,1.5-6.7,1.58-2.3,3.5-3.56,5.75-3.77,2.25-.21,4.79.65,7.6,2.59ZM832.76,772.56c-2.18-1.5-4.01-2.23-5.5-2.19-1.48.04-2.72.78-3.71,2.22-1.02,1.48-1.27,2.92-.77,4.31s1.84,2.84,4.01,4.33c2.09,1.44,3.88,2.16,5.36,2.16,1.48,0,2.75-.75,3.8-2.28,1-1.46,1.25-2.88.73-4.28-.51-1.39-1.82-2.82-3.93-4.27Z"/><path class="cls-12" d="M838.15,753.03c-.32.2-.66.57-1.02,1.1-.54.79-.88,1.67-1.02,2.64-.14.98-.06,2.28.25,3.92l11.09,7.62-1.81,2.63-16.04-11.02,1.81-2.63,2.6,1.79c-.24-1.24-.37-2.47-.39-3.68-.02-1.21.31-2.3.99-3.29.46-.66.93-1.12,1.41-1.37l2.13,2.3Z"/><path class="cls-12" d="M859.66,750.52c-.39,1.24-.92,2.36-1.61,3.35-1.12,1.63-2.35,2.51-3.7,2.63s-2.93-.45-4.77-1.71l-8.99-6.18-1.58,2.29-2.2-1.51,1.58-2.29-4.46-3.07,1.81-2.63,4.46,3.07,2.8-4.07,2.2,1.51-2.79,4.07,8.49,5.83c1.29.89,2.31,1.4,3.05,1.52.74.13,1.42-.26,2.03-1.16.53-.77.88-1.59,1.05-2.45l2.63.79Z"/><path class="cls-12" d="M865.02,733.45c1.5,1.03,2.31,2.37,2.43,4.01.12,1.65-.49,3.45-1.83,5.4-.92,1.34-1.99,2.36-3.23,3.07-1.23.71-2.48,1-3.73.86l.17-2.99c1.85.08,3.38-.76,4.61-2.55.8-1.16,1.17-2.18,1.13-3.06-.05-.88-.45-1.58-1.2-2.1-.45-.31-.88-.46-1.3-.45-.42.01-.88.16-1.39.44-.5.29-1.39.97-2.66,2.05-1.75,1.61-3.28,2.53-4.59,2.78-1.31.25-2.61-.07-3.89-.95-1.42-.97-2.2-2.26-2.36-3.87-.16-1.61.39-3.31,1.63-5.12.96-1.4,2.04-2.38,3.24-2.95,1.2-.57,2.34-.81,3.42-.71l-.16,2.98c-1.83-.02-3.27.73-4.33,2.27-.6.88-.92,1.75-.95,2.62-.03.87.36,1.59,1.18,2.15.72.5,1.43.59,2.12.29.69-.31,1.56-.93,2.62-1.87,1.72-1.49,3.02-2.44,3.9-2.86.88-.41,1.74-.58,2.56-.5.82.08,1.69.43,2.61,1.06Z"/><path class="cls-12" d="M877.52,724.52c-.38,1.24-.92,2.36-1.61,3.35-1.12,1.63-2.35,2.51-3.7,2.63s-2.93-.45-4.77-1.71l-8.99-6.18-1.58,2.29-2.2-1.51,1.58-2.29-4.46-3.07,1.81-2.63,4.47,3.07,2.79-4.07,2.2,1.51-2.8,4.07,8.49,5.83c1.29.89,2.31,1.4,3.05,1.52.74.13,1.42-.26,2.03-1.16.53-.77.88-1.59,1.05-2.45l2.63.79Z"/><path class="cls-12" d="M872.19,703.48c-.32.2-.66.57-1.02,1.1-.54.79-.88,1.67-1.02,2.64-.14.98-.06,2.28.25,3.92l11.09,7.62-1.81,2.63-16.04-11.02,1.81-2.63,2.6,1.79c-.24-1.25-.37-2.47-.39-3.68-.02-1.21.31-2.3.99-3.29.46-.66.93-1.12,1.41-1.37l2.13,2.3Z"/><path class="cls-12" d="M894.25,700.18l-2-1.38c.15,1.31.18,2.53.08,3.68-.1,1.15-.5,2.24-1.22,3.28-1.05,1.53-2.33,2.39-3.83,2.58-1.5.19-2.99-.21-4.44-1.22-1.1-.76-1.87-1.6-2.3-2.54-.43-.93-.58-1.96-.43-3.07.14-1.11.65-2.51,1.54-4.2l2.36-4.19-.78-.54c-1.23-.85-2.31-1.08-3.23-.7-.92.38-1.8,1.18-2.63,2.39-.74,1.08-1.13,2.04-1.15,2.89s.09,1.55.36,2.1l-2.8,1.25c-.55-1.1-.72-2.31-.5-3.64.22-1.33.84-2.74,1.86-4.23,1.58-2.3,3.14-3.67,4.66-4.09,1.52-.42,3.31.07,5.37,1.49l10.9,7.49-1.81,2.63ZM886.12,694.59l-1.52,2.74c-1.04,1.85-1.55,3.31-1.52,4.38.03,1.08.56,1.96,1.57,2.65.96.66,1.81.89,2.56.7.75-.19,1.45-.77,2.11-1.73.27-.4.47-.84.59-1.33.12-.49.2-1,.24-1.53.04-.53.04-1.06,0-1.61-.04-.54-.08-1.08-.11-1.59l-3.92-2.69Z"/><path class="cls-12" d="M905.81,683.36l-2-1.38c.15,1.31.18,2.53.08,3.68-.1,1.15-.5,2.24-1.22,3.28-1.05,1.53-2.33,2.39-3.83,2.58-1.5.19-2.99-.22-4.44-1.22-1.1-.76-1.87-1.6-2.3-2.54-.43-.93-.58-1.96-.43-3.07.14-1.11.65-2.51,1.54-4.2l2.36-4.19-.78-.54c-1.23-.85-2.31-1.08-3.23-.7-.92.38-1.8,1.18-2.63,2.39-.74,1.08-1.13,2.04-1.15,2.89-.03.85.09,1.55.36,2.1l-2.8,1.25c-.55-1.1-.72-2.31-.5-3.64.22-1.33.84-2.74,1.86-4.23,1.58-2.3,3.14-3.67,4.66-4.09,1.52-.42,3.31.07,5.37,1.49l10.9,7.49-1.81,2.63ZM897.68,677.77l-1.52,2.74c-1.04,1.85-1.55,3.31-1.52,4.38.03,1.08.56,1.96,1.57,2.65.96.66,1.81.89,2.56.7s1.45-.77,2.11-1.73c.27-.4.47-.84.59-1.33.12-.49.2-1,.24-1.53.04-.53.04-1.06,0-1.61-.04-.54-.08-1.08-.11-1.59l-3.92-2.69Z"/><path class="cls-12" d="M916.41,667.94c-.38,1.24-.92,2.36-1.61,3.35-1.12,1.63-2.35,2.51-3.7,2.63-1.34.12-2.93-.45-4.77-1.71l-8.99-6.18-1.58,2.29-2.2-1.51,1.58-2.29-4.47-3.07,1.81-2.63,4.47,3.07,2.79-4.07,2.2,1.51-2.8,4.07,8.49,5.83c1.29.89,2.31,1.4,3.05,1.52.74.12,1.42-.26,2.03-1.16.53-.77.88-1.59,1.05-2.45l2.63.79Z"/><path class="cls-12" d="M622.67,1828.24l-9.35-14.11-2.05,2.37v11.74h-6.88v-33.79h6.88v13.18l11.06-13.18h8.03l-12.6,14.55,13.5,19.24h-8.59Z"/><path class="cls-12" d="M657.77,1815.49c0,4.26-.98,7.58-2.95,9.95-1.97,2.37-5.07,3.55-9.3,3.55-8.2,0-12.3-4.5-12.3-13.5,0-4.33.98-7.68,2.95-10.05,1.97-2.37,5.09-3.55,9.35-3.55s7.33,1.18,9.3,3.55c1.97,2.37,2.95,5.72,2.95,10.05ZM651.25,1815.49c0-2.82-.44-4.87-1.32-6.16-.88-1.29-2.35-1.94-4.42-1.94s-3.53.66-4.44,1.99c-.91,1.33-1.37,3.37-1.37,6.12s.45,4.75,1.35,6.04c.9,1.29,2.39,1.94,4.46,1.94s3.5-.64,4.39-1.92c.9-1.28,1.34-3.3,1.34-6.07Z"/><path class="cls-12" d="M679.87,1828.24v-3.3c-1.11,1.19-2.46,2.16-4.06,2.92-1.6.76-3.15,1.14-4.63,1.14-2.9,0-4.92-.8-6.08-2.41-1.16-1.6-1.73-3.88-1.73-6.85v-17.11h6.3v14.11c0,1.81.11,3.19.32,4.15.21.96.56,1.62,1.04,1.99.48.37,1.18.55,2.11.55,1.87,0,4.12-1.23,6.74-3.69v-17.11h6.3v25.61h-6.3Z"/><path class="cls-12" d="M707.43,1828.24c-1.69.5-3.48.76-5.35.76-2.96,0-5.09-.67-6.4-2-1.3-1.33-1.95-3.5-1.95-6.49v-12.87h-3.25v-5h3.25v-7.13h6.3v7.13h5.96v5h-5.96v12.06c0,1.6.25,2.68.74,3.25.5.57,1.2.85,2.11.85,1.16,0,2.3-.24,3.44-.71l1.1,5.15Z"/><path class="cls-12" d="M716.02,1817.08c.11,2.28.67,3.92,1.66,4.91.99.99,2.56,1.49,4.69,1.49,1.24,0,2.32-.15,3.26-.46.94-.31,1.75-.9,2.45-1.78l4.69,3.34c-1.03,1.48-2.36,2.59-3.99,3.32s-3.87,1.1-6.7,1.1c-4.22,0-7.36-1.11-9.44-3.32-2.08-2.21-3.11-5.56-3.11-10.03,0-9.16,4.1-13.75,12.3-13.75,3.65,0,6.42,1.03,8.34,3.09,1.91,2.06,2.87,5.06,2.87,9v3.1h-17.02ZM726.79,1812.74c0-3.89-1.7-5.83-5.1-5.83-1.12,0-2.04.19-2.76.57-.72.38-1.29.95-1.72,1.71-.43.76-.77,1.94-1.01,3.55h10.6Z"/><path class="cls-12" d="M754.18,1808.78c-.65-.33-1.51-.49-2.59-.49-1.17,0-2.28.28-3.33.84-1.05.56-2.13,1.38-3.23,2.45v16.65h-6.3v-25.61h6.3v3.66c1.07-1.17,2.23-2.14,3.47-2.91,1.24-.76,2.62-1.15,4.15-1.15,1.3,0,2.23.17,2.78.51l-1.25,6.03Z"/><circle class="cls-12" cx="674.13" cy="500.73" r="49.1"/><path class="cls-13" d="M669.73,503.01v13.87c0,2.63.15,4.58.44,5.85.3,1.27.84,2.32,1.64,3.15.7.72,1.5,1.26,2.41,1.6.91.35,2.12.56,3.61.64v.89h-24.68v-.89c1.49-.08,2.7-.29,3.61-.64.91-.35,1.72-.88,2.41-1.6.82-.82,1.38-1.87,1.66-3.13.28-1.26.42-3.22.42-5.87v-28.47c0-2.21-.1-3.92-.29-5.12-.19-1.2-.52-2.17-.98-2.92-.67-1.03-1.52-1.8-2.55-2.3-1.03-.5-2.37-.8-4.02-.91h-.27v-.89h23.29c4.07,0,7.07.21,9,.62s3.7,1.24,5.29,2.47c3.66,2.78,5.49,6.49,5.49,11.13s-1.85,8.16-5.56,10.35c-1.93,1.13-4.28,1.82-7.03,2.05-.88.08-2.99.12-6.34.12h-7.57ZM669.73,501.77h3.79c2.55,0,4.51-.19,5.89-.56,1.38-.37,2.61-1.06,3.69-2.07,2.52-2.29,3.79-5.34,3.79-9.16,0-2.11-.37-4.05-1.1-5.81-.73-1.76-1.78-3.2-3.15-4.31-1.57-1.31-3.44-2.09-5.6-2.32-.59-.05-1.94-.08-4.06-.08h-3.25v24.3Z"/><path class="cls-12" d="M601.85,601.01h-8.13l-10.4-33.79h6.98l7.62,25.2,7.59-25.2h6.86l-10.52,33.79Z"/><path class="cls-12" d="M630.52,581.55c-.65-.33-1.51-.49-2.59-.49-1.17,0-2.28.28-3.33.84s-2.13,1.38-3.23,2.45v16.65h-6.3v-25.61h6.3v3.66c1.07-1.17,2.23-2.14,3.47-2.91,1.24-.76,2.62-1.15,4.15-1.15,1.3,0,2.23.17,2.78.51l-1.25,6.03Z"/><path class="cls-12" d="M642.23,568.42c0,1.19-.29,2.02-.88,2.49-.59.47-1.48.71-2.69.71-1.33,0-2.24-.28-2.72-.83-.48-.55-.72-1.34-.72-2.37,0-1.14.26-1.96.78-2.45.52-.5,1.41-.74,2.66-.74s2.18.24,2.73.72c.55.48.83,1.31.83,2.48ZM635.57,601.01v-25.61h6.3v25.61h-6.3Z"/><path class="cls-12" d="M655.64,602.11c0,3.06-.68,5.25-2.05,6.57s-3.61,1.98-6.71,1.98c-.7,0-1.62-.08-2.76-.23-1.14-.15-2.02-.32-2.64-.5l1.37-5.47c1.19.47,2.42.71,3.69.71s2.05-.39,2.36-1.17c.3-.78.45-2.08.45-3.88v-24.71h6.3v26.71ZM655.98,568.42c0,1.19-.29,2.02-.88,2.49-.59.47-1.47.71-2.66.71-1.33,0-2.25-.28-2.73-.83-.49-.55-.73-1.34-.73-2.37,0-1.14.26-1.96.78-2.45.52-.5,1.42-.74,2.69-.74s2.18.24,2.72.72c.54.48.82,1.31.82,2.48Z"/><path class="cls-12" d="M679.54,601.01v-2.49c-1.17.99-2.41,1.78-3.71,2.37-1.3.59-2.78.88-4.44.88-3.22,0-5.69-1.16-7.4-3.49-1.71-2.33-2.56-5.62-2.56-9.86s.94-7.72,2.82-10.13c1.88-2.41,4.52-3.61,7.92-3.61,1.2,0,2.44.25,3.71.74,1.27.5,2.32,1.13,3.15,1.89v-12.65h6.3v36.35h-5.79ZM679.03,582.51c-.67-.6-1.49-1.14-2.48-1.6-.98-.46-1.99-.7-3.02-.7-1.69,0-3.05.73-4.08,2.19-1.03,1.46-1.54,3.43-1.54,5.92s.42,4.39,1.26,5.79c.84,1.4,2.14,2.1,3.89,2.1,1.04,0,2.1-.24,3.19-.72,1.08-.48,2.01-1.07,2.77-1.77v-11.21Z"/><path class="cls-12" d="M707.54,601.01v-2.66c-2.49,2.28-5.16,3.42-8.01,3.42s-4.97-.74-6.42-2.23c-1.45-1.49-2.17-3.4-2.17-5.73,0-1.82.37-3.33,1.11-4.52.74-1.19,1.84-2.12,3.3-2.8,1.46-.68,3.55-1.15,6.29-1.43l5.4-.51v-1.15c0-1.43-.43-2.41-1.29-2.94-.86-.53-2.12-.79-3.78-.79-1.37,0-2.54.23-3.53.68-.98.46-1.71,1.11-2.19,1.95l-4.91-3.15c.86-1.45,2.21-2.56,4.05-3.33,1.84-.77,4.06-1.16,6.67-1.16,3.99,0,6.86.7,8.63,2.09,1.77,1.39,2.65,3.67,2.65,6.85v17.41h-5.79ZM707.03,589.12l-3.2.29c-2.26.2-3.89.63-4.9,1.29-1,.67-1.5,1.67-1.5,3,0,1.17.33,1.97.98,2.4.65.43,1.51.65,2.59.65.76,0,1.7-.24,2.8-.72,1.1-.48,2.18-1.16,3.23-2.04v-4.88Z"/><path class="cls-12" d="M742.85,600.52c0,3.42-1.05,5.96-3.15,7.63-2.1,1.67-5.47,2.5-10.11,2.5-3.83,0-7.17-.73-10.03-2.2l1.86-5.15c2.65,1.24,5.38,1.86,8.18,1.86,2.6,0,4.41-.37,5.43-1.12,1.02-.75,1.53-2.01,1.53-3.78v-2.1c-2.08,1.9-4.6,2.86-7.54,2.86-3.12,0-5.58-1.12-7.37-3.37-1.79-2.25-2.69-5.48-2.69-9.69,0-2.64.42-4.96,1.26-6.97.84-2.01,2.07-3.56,3.69-4.66,1.62-1.1,3.58-1.65,5.87-1.65,1.35,0,2.7.3,4.05.89,1.35.59,2.48,1.35,3.39,2.26l.83-2.42h4.81v25.12ZM736.55,582.51c-1.73-1.53-3.61-2.29-5.64-2.29-1.53,0-2.82.7-3.88,2.1-1.06,1.4-1.59,3.25-1.59,5.54,0,2.6.47,4.52,1.4,5.76.94,1.24,2.15,1.86,3.65,1.86,2.08,0,4.1-.84,6.05-2.51v-10.45Z"/><path class="cls-12" d="M748.41,591.27v-6.2h15.21v6.2h-15.21Z"/><path class="cls-12" d="M639.73,651.01v-15.09c0-1.51-.09-2.69-.27-3.54-.18-.85-.45-1.42-.82-1.72-.37-.3-.97-.45-1.82-.45-.96,0-1.98.36-3.05,1.07-1.07.72-2.08,1.6-3,2.64v17.09h-6.3v-15.09c0-1.66-.07-2.86-.22-3.6s-.41-1.28-.78-1.61c-.37-.33-1.01-.5-1.9-.5-.78,0-1.68.3-2.71.89-1.03.59-2.14,1.53-3.34,2.82v17.09h-6.3v-25.61h6.3v3.32c1.17-1.27,2.4-2.26,3.69-2.98,1.29-.72,2.71-1.07,4.27-1.07,2.13,0,3.71.37,4.72,1.1,1.02.73,1.71,1.81,2.09,3.25,1.46-1.46,2.84-2.56,4.11-3.27,1.28-.72,2.77-1.07,4.48-1.07,2.49,0,4.3.71,5.44,2.12,1.14,1.42,1.71,3.79,1.71,7.13v17.09h-6.3Z"/><path class="cls-12" d="M668.03,651.01v-2.66c-2.49,2.28-5.16,3.42-8.01,3.42s-4.97-.74-6.42-2.23c-1.45-1.49-2.17-3.4-2.17-5.73,0-1.82.37-3.33,1.11-4.52.74-1.19,1.84-2.12,3.3-2.79,1.46-.68,3.55-1.15,6.29-1.43l5.4-.51v-1.15c0-1.43-.43-2.41-1.29-2.94-.86-.53-2.12-.79-3.78-.79-1.37,0-2.54.23-3.53.68-.98.46-1.71,1.11-2.19,1.95l-4.91-3.15c.86-1.45,2.21-2.56,4.05-3.33,1.84-.77,4.06-1.16,6.67-1.16,3.99,0,6.86.7,8.63,2.09,1.77,1.39,2.65,3.67,2.65,6.85v17.41h-5.79ZM667.52,639.12l-3.2.29c-2.26.2-3.89.63-4.9,1.29-1,.67-1.5,1.67-1.5,3,0,1.17.33,1.97.98,2.41.65.43,1.51.65,2.59.65.76,0,1.7-.24,2.8-.72s2.18-1.16,3.23-2.04v-4.88Z"/><path class="cls-12" d="M696.18,631.55c-.65-.33-1.51-.49-2.59-.49-1.17,0-2.28.28-3.33.84s-2.13,1.38-3.23,2.45v16.65h-6.3v-25.61h6.3v3.66c1.07-1.17,2.23-2.14,3.47-2.91,1.24-.76,2.62-1.15,4.15-1.15,1.3,0,2.23.17,2.78.51l-1.25,6.03Z"/><path class="cls-12" d="M716.83,651.01l-6.84-10.6-2.47,2.64v7.96h-6.3v-36.35h6.3v20.8l8.62-10.06h7.3l-9.67,10.77,10.21,14.84h-7.15Z"/><path class="cls-12" d="M742.25,651.01c-1.69.5-3.48.76-5.35.76-2.96,0-5.09-.67-6.4-2-1.3-1.33-1.95-3.5-1.95-6.49v-12.87h-3.25v-5h3.25v-7.13h6.3v7.13h5.96v5h-5.96v12.06c0,1.6.25,2.68.74,3.25.5.57,1.2.85,2.11.85,1.16,0,2.3-.24,3.44-.71l1.1,5.15Z"/><path class="cls-12" d="M1786.52,257.79c0,4.07-.56,7.34-1.68,9.81-1.12,2.47-2.82,4.27-5.08,5.4s-5.44,1.68-9.55,1.68h-10.3v-33.79h10.21c3.99,0,7.16.58,9.51,1.73,2.35,1.16,4.09,2.96,5.21,5.41,1.12,2.45,1.68,5.7,1.68,9.75ZM1779.42,257.74c0-2.95-.29-5.13-.87-6.56-.58-1.42-1.56-2.45-2.94-3.06-1.38-.62-3.43-.93-6.15-.93h-2.64v21.19h2.64c2.72,0,4.76-.31,6.14-.94,1.38-.63,2.36-1.67,2.94-3.14s.88-3.65.88-6.57Z"/><path class="cls-12" d="M1807.28,274.68v-2.66c-2.49,2.28-5.16,3.42-8.01,3.42s-4.97-.74-6.42-2.23-2.17-3.4-2.17-5.73c0-1.82.37-3.33,1.11-4.52.74-1.19,1.84-2.12,3.29-2.8,1.46-.68,3.55-1.15,6.29-1.43l5.4-.51v-1.15c0-1.43-.43-2.41-1.29-2.94-.86-.53-2.12-.79-3.78-.79-1.37,0-2.54.23-3.53.68-.98.46-1.71,1.11-2.18,1.95l-4.91-3.15c.86-1.45,2.21-2.56,4.05-3.33,1.84-.77,4.06-1.16,6.67-1.16,3.99,0,6.86.7,8.63,2.09s2.65,3.67,2.65,6.85v17.41h-5.79ZM1806.76,262.79l-3.2.29c-2.26.2-3.89.63-4.89,1.29-1,.67-1.5,1.67-1.5,3,0,1.17.33,1.97.98,2.4.65.43,1.51.65,2.59.65.76,0,1.7-.24,2.79-.72,1.1-.48,2.18-1.16,3.24-2.04v-4.88Z"/><path class="cls-12" d="M1850.49,274.68v-15.09c0-1.51-.09-2.69-.27-3.54-.18-.85-.45-1.42-.82-1.72-.37-.3-.97-.45-1.82-.45-.96,0-1.98.36-3.05,1.07-1.07.72-2.08,1.6-3,2.64v17.09h-6.3v-15.09c0-1.66-.07-2.86-.22-3.6-.15-.74-.41-1.28-.78-1.61-.38-.33-1.01-.5-1.9-.5-.78,0-1.68.3-2.71.89-1.03.59-2.14,1.53-3.34,2.82v17.09h-6.3v-25.61h6.3v3.32c1.17-1.27,2.4-2.26,3.69-2.98,1.29-.72,2.71-1.07,4.27-1.07,2.13,0,3.71.37,4.72,1.1,1.02.73,1.71,1.81,2.09,3.25,1.46-1.46,2.84-2.56,4.11-3.27,1.28-.72,2.77-1.07,4.48-1.07,2.49,0,4.3.71,5.44,2.12,1.14,1.42,1.71,3.79,1.71,7.13v17.09h-6.3Z"/><path class="cls-12" d="M1887.57,261.69c0,2.75-.42,5.18-1.25,7.28s-2.02,3.7-3.56,4.81c-1.55,1.11-3.39,1.66-5.54,1.66-2.83,0-5.25-.89-7.25-2.66v11.55h-6.3v-35.25h5.81v2.51c1.17-1.01,2.4-1.8,3.7-2.38,1.29-.58,2.78-.87,4.46-.87,3.24,0,5.71,1.14,7.4,3.42,1.69,2.28,2.54,5.59,2.54,9.94ZM1881.08,261.79c0-2.49-.43-4.43-1.29-5.82-.86-1.39-2.15-2.09-3.86-2.09-1.03,0-2.08.24-3.16.72-1.08.48-2.01,1.07-2.79,1.77v11.21c.67.6,1.49,1.14,2.48,1.6.98.46,2,.7,3.04.7,1.72,0,3.09-.74,4.09-2.21,1-1.47,1.5-3.43,1.5-5.87Z"/><path class="cls-12" d="M1916.65,261.94c0,4.26-.98,7.58-2.95,9.95s-5.07,3.55-9.3,3.55c-8.2,0-12.3-4.5-12.3-13.5,0-4.33.98-7.68,2.95-10.05s5.09-3.55,9.35-3.55,7.33,1.18,9.3,3.55,2.95,5.72,2.95,10.05ZM1910.13,261.94c0-2.82-.44-4.87-1.32-6.16s-2.35-1.94-4.42-1.94-3.53.66-4.44,1.99c-.91,1.33-1.37,3.37-1.37,6.12s.45,4.75,1.36,6.04c.9,1.29,2.39,1.94,4.46,1.94s3.5-.64,4.39-1.92c.89-1.28,1.34-3.3,1.34-6.07Z"/><path class="cls-12" d="M1945.7,261.94c0,4.26-.98,7.58-2.95,9.95s-5.07,3.55-9.3,3.55c-8.2,0-12.3-4.5-12.3-13.5,0-4.33.98-7.68,2.95-10.05s5.09-3.55,9.35-3.55,7.33,1.18,9.3,3.55,2.95,5.72,2.95,10.05ZM1939.18,261.94c0-2.82-.44-4.87-1.32-6.16s-2.35-1.94-4.42-1.94-3.53.66-4.44,1.99c-.91,1.33-1.37,3.37-1.37,6.12s.45,4.75,1.36,6.04c.9,1.29,2.39,1.94,4.46,1.94s3.5-.64,4.39-1.92c.89-1.28,1.34-3.3,1.34-6.07Z"/><path class="cls-12" d="M1966.94,255.22c-.65-.33-1.51-.49-2.59-.49-1.17,0-2.28.28-3.33.84-1.05.56-2.13,1.38-3.24,2.45v16.65h-6.3v-25.61h6.3v3.66c1.07-1.17,2.23-2.14,3.47-2.91,1.24-.76,2.62-1.15,4.15-1.15,1.3,0,2.23.17,2.78.51l-1.25,6.03Z"/><path class="cls-12" d="M1986.16,274.68c-1.69.5-3.48.76-5.35.76-2.96,0-5.09-.67-6.4-2-1.3-1.33-1.95-3.5-1.95-6.49v-12.87h-3.25v-5h3.25v-7.13h6.3v7.13h5.96v5h-5.96v12.06c0,1.6.25,2.68.74,3.25.5.57,1.2.85,2.11.85,1.16,0,2.3-.24,3.44-.71l1.1,5.15Z"/><path class="cls-12" d="M1392.61,1929.7v-5.81l15.5-21.68h-14.77v-6.3h23v5.54l-15.65,21.95h16.06v6.3h-24.15Z"/><path class="cls-12" d="M1438.7,1929.7v-3.3c-1.11,1.19-2.46,2.16-4.07,2.92s-3.14,1.13-4.63,1.13c-2.9,0-4.92-.8-6.08-2.4-1.16-1.6-1.73-3.89-1.73-6.85v-17.11h6.3v14.11c0,1.81.11,3.19.32,4.15.21.96.56,1.62,1.04,1.99s1.18.55,2.11.55c1.87,0,4.12-1.23,6.74-3.69v-17.11h6.3v25.61h-6.3Z"/><path class="cls-12" d="M1458.77,1897.11c0,1.19-.29,2.02-.88,2.49-.59.47-1.48.71-2.69.71-1.33,0-2.24-.28-2.72-.83-.48-.55-.72-1.34-.72-2.37,0-1.14.26-1.96.78-2.45.52-.5,1.41-.75,2.66-.75s2.18.24,2.73.72.83,1.31.83,2.48ZM1452.1,1929.7v-25.61h6.3v25.61h-6.3Z"/><path class="cls-12" d="M1482.33,1929.7v-2.49c-1.17.99-2.41,1.78-3.71,2.37-1.3.59-2.78.88-4.44.88-3.22,0-5.69-1.16-7.4-3.49-1.71-2.33-2.56-5.62-2.56-9.86s.94-7.72,2.82-10.13c1.88-2.41,4.52-3.61,7.92-3.61,1.2,0,2.44.25,3.71.75s2.32,1.13,3.15,1.89v-12.65h6.3v36.35h-5.79ZM1481.82,1911.2c-.67-.6-1.49-1.13-2.48-1.6-.99-.46-1.99-.7-3.02-.7-1.69,0-3.05.73-4.08,2.19s-1.54,3.43-1.54,5.92.42,4.39,1.26,5.79c.84,1.4,2.14,2.1,3.89,2.1,1.04,0,2.1-.24,3.19-.72,1.08-.48,2.01-1.07,2.77-1.77v-11.21Z"/><path class="cls-12" d="M1372.16,1978.59v-33.79h21.95v6.08h-15.06v7.2h12.7v6.1h-12.7v8.11h15.06v6.3h-21.95Z"/><path class="cls-12" d="M1421.65,1973v5.59h-6.59v-5.59h-16.97v-6.35l16.5-21.85h7.06v22.29h4.15v5.91h-4.15ZM1415.05,1953.83l-10.25,13.26h10.25v-13.26Z"/><path class="cls-12" d="M1456.61,1961.69c0,6.07-1.07,10.53-3.2,13.38-2.13,2.85-5.47,4.27-10.01,4.27s-7.83-1.42-9.96-4.27c-2.13-2.85-3.2-7.29-3.2-13.33s1.07-10.49,3.2-13.35,5.45-4.3,9.96-4.3,7.88,1.42,10.01,4.27c2.13,2.85,3.2,7.29,3.2,13.33ZM1449.5,1961.69c0-4.04-.49-6.99-1.48-8.88-.99-1.88-2.53-2.82-4.63-2.82s-3.63.95-4.6,2.84c-.97,1.9-1.45,4.86-1.45,8.9s.48,6.99,1.45,8.88c.97,1.88,2.5,2.82,4.6,2.82s3.64-.95,4.63-2.84c.98-1.9,1.48-4.86,1.48-8.9Z"/><path class="cls-12" d="M1464.96,1985.89h-6.2l16.85-44.41h6.25l-16.89,44.41Z"/><path class="cls-12" d="M1488,1978.59v-33.79h21.95v6.08h-15.06v7.2h12.7v6.1h-12.7v8.11h15.06v6.3h-21.95Z"/><path class="cls-12" d="M1526.65,1978.59v-22.66h-8.2v-4.64c2.34-.15,4.11-.43,5.31-.84,1.2-.42,2.15-1.06,2.86-1.94s1.26-2.12,1.67-3.71h5.25v33.79h-6.88Z"/><path class="cls-12" d="M1559.05,1978.59h-7.71l12.45-27.49h-17.38v-6.3h25.34v4.2l-12.7,29.59Z"/><path class="cls-12" d="M1892.06,1944.36v-33.79h21.95v6.08h-15.06v7.2h12.7v6.1h-12.7v8.11h15.06v6.3h-21.95Z"/><path class="cls-12" d="M1941.55,1938.77v5.59h-6.59v-5.59h-16.97v-6.35l16.5-21.85h7.06v22.29h4.15v5.91h-4.15ZM1934.96,1919.6l-10.25,13.26h10.25v-13.26Z"/><path class="cls-12" d="M1976.51,1927.47c0,6.07-1.07,10.53-3.2,13.38-2.13,2.85-5.47,4.27-10.01,4.27s-7.83-1.42-9.96-4.27c-2.13-2.85-3.2-7.29-3.2-13.33s1.07-10.49,3.2-13.35c2.13-2.86,5.45-4.3,9.96-4.3s7.88,1.42,10.01,4.27c2.13,2.85,3.2,7.29,3.2,13.33ZM1969.41,1927.47c0-4.04-.49-7-1.48-8.88s-2.53-2.82-4.63-2.82-3.63.95-4.6,2.84c-.97,1.9-1.45,4.86-1.45,8.9s.48,6.99,1.45,8.87,2.5,2.82,4.6,2.82,3.64-.95,4.63-2.84c.98-1.9,1.48-4.86,1.48-8.9Z"/><path class="cls-12" d="M1892.06,1992.36v-33.79h21.95v6.08h-15.06v7.2h12.7v6.1h-12.7v8.11h15.06v6.3h-21.95Z"/><path class="cls-12" d="M1930.71,1992.36v-22.66h-8.2v-4.64c2.34-.15,4.11-.43,5.31-.84s2.15-1.06,2.86-1.94,1.27-2.12,1.67-3.71h5.25v33.79h-6.88Z"/><path class="cls-12" d="M1963.11,1992.36h-7.71l12.45-27.49h-17.38v-6.3h25.34v4.2l-12.7,29.59Z"/><path class="cls-12" d="M507.82,1919.92c0,3.39-1.11,5.98-3.33,7.79s-5.5,2.71-9.83,2.71c-3,0-5.6-.5-7.8-1.49-2.21-.99-4-2.6-5.38-4.81l5.3-4.05c.78,1.11,1.52,1.94,2.22,2.49.7.55,1.53.98,2.49,1.29.96.31,2.07.46,3.32.46,1.87,0,3.33-.32,4.38-.96,1.05-.64,1.57-1.62,1.57-2.94,0-.75-.18-1.38-.55-1.88s-.92-.94-1.65-1.31-2-.79-3.81-1.26c-1.76-.47-3.41-.95-4.97-1.43-1.55-.48-2.9-1.1-4.03-1.87-1.13-.76-2.02-1.73-2.67-2.88-.65-1.16-.98-2.61-.98-4.37,0-3.21,1.08-5.71,3.25-7.51,2.16-1.8,5.27-2.7,9.3-2.7,5.84,0,9.98,2,12.4,6.01l-5.25,4.1c-.93-1.43-1.97-2.46-3.12-3.08-1.16-.62-2.53-.93-4.13-.93s-2.89.29-3.89.87c-1,.58-1.5,1.49-1.5,2.72,0,1.09.52,1.92,1.56,2.5,1.04.58,2.86,1.16,5.44,1.75,1.43.37,2.85.78,4.25,1.21,1.4.43,2.65,1.03,3.75,1.79s1.98,1.77,2.65,3c.67,1.24,1,2.82,1,4.76Z"/><path class="cls-12" d="M527.57,1929.71c-1.69.5-3.48.76-5.35.76-2.96,0-5.09-.67-6.4-2-1.3-1.33-1.95-3.5-1.95-6.49v-12.87h-3.25v-5h3.25v-7.13h6.3v7.13h5.96v5h-5.96v12.06c0,1.59.25,2.68.74,3.25.5.57,1.2.85,2.11.85,1.16,0,2.3-.24,3.44-.71l1.1,5.15Z"/><path class="cls-12" d="M547.06,1929.71v-2.66c-2.49,2.28-5.16,3.42-8.01,3.42s-4.97-.75-6.42-2.23c-1.45-1.49-2.17-3.4-2.17-5.72,0-1.82.37-3.33,1.11-4.52.74-1.19,1.84-2.12,3.3-2.8,1.46-.67,3.55-1.15,6.29-1.43l5.4-.51v-1.15c0-1.43-.43-2.41-1.29-2.94-.86-.53-2.12-.79-3.78-.79-1.37,0-2.54.23-3.53.68-.98.46-1.71,1.11-2.19,1.95l-4.91-3.15c.86-1.45,2.21-2.56,4.05-3.33,1.84-.77,4.06-1.16,6.67-1.16,3.99,0,6.86.7,8.63,2.09,1.77,1.39,2.65,3.67,2.65,6.85v17.41h-5.79ZM546.54,1917.82l-3.2.29c-2.26.2-3.89.63-4.9,1.29s-1.5,1.67-1.5,3c0,1.17.33,1.97.98,2.4.65.43,1.51.65,2.59.65.76,0,1.7-.24,2.8-.72,1.1-.48,2.18-1.16,3.23-2.04v-4.88Z"/><path class="cls-12" d="M573.42,1929.71c-1.69.5-3.48.76-5.35.76-2.96,0-5.09-.67-6.4-2-1.3-1.33-1.95-3.5-1.95-6.49v-12.87h-3.25v-5h3.25v-7.13h6.3v7.13h5.96v5h-5.96v12.06c0,1.59.25,2.68.74,3.25.5.57,1.2.85,2.11.85,1.16,0,2.3-.24,3.44-.71l1.1,5.15Z"/><path class="cls-12" d="M583.97,1897.11c0,1.19-.29,2.02-.88,2.49s-1.48.71-2.69.71c-1.33,0-2.24-.28-2.72-.83-.48-.55-.72-1.34-.72-2.37,0-1.14.26-1.96.78-2.45.52-.5,1.41-.74,2.66-.74s2.18.24,2.73.72c.55.48.83,1.31.83,2.48ZM577.31,1929.71v-25.61h6.3v25.61h-6.3Z"/><path class="cls-12" d="M613.98,1916.96c0,4.26-.98,7.58-2.95,9.95-1.97,2.37-5.07,3.55-9.3,3.55-8.2,0-12.3-4.5-12.3-13.5,0-4.33.98-7.68,2.95-10.05,1.97-2.37,5.09-3.55,9.35-3.55s7.33,1.18,9.3,3.55c1.97,2.37,2.95,5.72,2.95,10.05ZM607.46,1916.96c0-2.82-.44-4.87-1.32-6.17s-2.35-1.94-4.42-1.94-3.53.66-4.44,1.99c-.91,1.33-1.37,3.37-1.37,6.12s.45,4.75,1.35,6.04,2.39,1.94,4.46,1.94,3.5-.64,4.39-1.92c.9-1.28,1.34-3.3,1.34-6.07Z"/><path class="cls-12" d="M636.27,1929.71v-14.11c0-2.67-.24-4.45-.72-5.35-.48-.9-1.39-1.34-2.72-1.34-1.87,0-4.13,1.24-6.76,3.71v17.09h-6.3v-25.61h6.3v3.32c1.33-1.33,2.76-2.34,4.27-3.03s2.99-1.03,4.44-1.03c2.62,0,4.57.72,5.86,2.15,1.29,1.43,1.93,3.8,1.93,7.1v17.09h-6.3Z"/><path class="cls-12" d="M505.87,1953.41c-.86-1.4-1.91-2.43-3.15-3.1-1.24-.67-2.79-1-4.66-1-3.08,0-5.3.99-6.68,2.97-1.38,1.98-2.06,4.92-2.06,8.83s.68,6.71,2.04,8.51c1.36,1.8,3.54,2.7,6.56,2.7,2.28,0,4.38-.47,6.3-1.42v-5.25h-6.59v-6.08h13.5v14.94c-1.56,1.17-3.5,2.12-5.82,2.83s-4.71,1.07-7.17,1.07c-5.27,0-9.25-1.38-11.91-4.13-2.67-2.75-4-7.15-4-13.18,0-11.93,5.25-17.9,15.75-17.9,3.06,0,5.73.51,8.01,1.54,2.28,1.03,4.01,2.53,5.2,4.52l-5.3,4.15Z"/><path class="cls-12" d="M523.16,1966.55c.11,2.28.67,3.91,1.66,4.91.99.99,2.56,1.49,4.69,1.49,1.24,0,2.32-.15,3.26-.46.94-.31,1.75-.9,2.45-1.78l4.69,3.34c-1.03,1.48-2.36,2.59-3.99,3.32s-3.87,1.1-6.7,1.1c-4.22,0-7.36-1.11-9.44-3.32s-3.11-5.56-3.11-10.03c0-9.16,4.1-13.75,12.3-13.75,3.65,0,6.42,1.03,8.34,3.09,1.91,2.06,2.87,5.06,2.87,9v3.1h-17.02ZM533.92,1962.2c0-3.89-1.7-5.83-5.1-5.83-1.12,0-2.04.19-2.76.57-.72.38-1.29.95-1.72,1.71-.43.76-.77,1.94-1.01,3.55h10.6Z"/><path class="cls-12" d="M562.36,1977.71v-14.11c0-2.67-.24-4.45-.72-5.35-.48-.9-1.39-1.34-2.72-1.34-1.87,0-4.13,1.24-6.76,3.71v17.09h-6.3v-25.61h6.3v3.32c1.33-1.33,2.76-2.34,4.27-3.03s2.99-1.03,4.44-1.03c2.62,0,4.57.72,5.86,2.15,1.29,1.43,1.93,3.8,1.93,7.1v17.09h-6.3Z"/><path class="cls-12" d="M589.73,1977.71c-1.69.5-3.48.76-5.35.76-2.96,0-5.09-.67-6.4-2-1.3-1.33-1.95-3.5-1.95-6.49v-12.87h-3.25v-5h3.25v-7.13h6.3v7.13h5.96v5h-5.96v12.06c0,1.59.25,2.68.74,3.25.5.57,1.2.85,2.11.85,1.16,0,2.3-.24,3.44-.71l1.1,5.15Z"/><path class="cls-12" d="M592.08,1967.96v-6.2h15.21v6.2h-15.21Z"/><path class="cls-12" d="M637.22,1967.92c0,3.39-1.11,5.98-3.33,7.79s-5.5,2.71-9.83,2.71c-3,0-5.6-.5-7.8-1.49-2.21-.99-4-2.6-5.38-4.81l5.3-4.05c.78,1.11,1.52,1.94,2.22,2.49.7.55,1.53.98,2.49,1.29.96.31,2.07.46,3.32.46,1.87,0,3.33-.32,4.38-.96,1.05-.64,1.57-1.62,1.57-2.94,0-.75-.18-1.38-.55-1.88s-.92-.94-1.65-1.31-2-.79-3.81-1.26c-1.76-.47-3.41-.95-4.97-1.43-1.55-.48-2.9-1.1-4.03-1.87-1.13-.76-2.02-1.73-2.67-2.88-.65-1.16-.98-2.61-.98-4.37,0-3.21,1.08-5.71,3.25-7.51,2.16-1.8,5.27-2.7,9.3-2.7,5.84,0,9.98,2,12.4,6.01l-5.25,4.1c-.93-1.43-1.97-2.46-3.12-3.08-1.16-.62-2.53-.93-4.13-.93s-2.89.29-3.89.87c-1,.58-1.5,1.49-1.5,2.72,0,1.09.52,1.92,1.56,2.5,1.04.58,2.86,1.16,5.44,1.75,1.43.37,2.85.78,4.25,1.21,1.4.43,2.65,1.03,3.75,1.79s1.98,1.77,2.65,3c.67,1.24,1,2.82,1,4.76Z"/><path class="cls-12" d="M649.47,1945.11c0,1.19-.29,2.02-.88,2.49s-1.48.71-2.69.71c-1.33,0-2.24-.28-2.72-.83-.48-.55-.72-1.34-.72-2.37,0-1.14.26-1.96.78-2.45.52-.5,1.41-.74,2.66-.74s2.18.24,2.73.72c.55.48.83,1.31.83,2.48ZM642.81,1977.71v-25.61h6.3v25.61h-6.3Z"/><path class="cls-12" d="M672.72,1977.71v-14.11c0-2.67-.24-4.45-.72-5.35-.48-.9-1.39-1.34-2.72-1.34-1.87,0-4.13,1.24-6.76,3.71v17.09h-6.3v-25.61h6.3v3.32c1.33-1.33,2.76-2.34,4.27-3.03s2.99-1.03,4.44-1.03c2.62,0,4.57.72,5.86,2.15,1.29,1.43,1.93,3.8,1.93,7.1v17.09h-6.3Z"/><path class="cls-12" d="M700.08,1977.71c-1.69.5-3.48.76-5.35.76-2.96,0-5.09-.67-6.4-2-1.3-1.33-1.95-3.5-1.95-6.49v-12.87h-3.25v-5h3.25v-7.13h6.3v7.13h5.96v5h-5.96v12.06c0,1.59.25,2.68.74,3.25.5.57,1.2.85,2.11.85,1.16,0,2.3-.24,3.44-.71l1.1,5.15Z"/><path class="cls-12" d="M702.43,1967.96v-6.2h15.21v6.2h-15.21Z"/><path class="cls-12" d="M747.96,1955.24c0,4.07-.96,7.09-2.87,9.06-1.91,1.97-5.02,2.95-9.31,2.95h-5.62v10.45h-6.88v-33.79h12.7c3.82,0,6.78.89,8.86,2.67,2.08,1.78,3.12,4.67,3.12,8.66ZM740.86,1955.29c0-1.9-.52-3.28-1.57-4.13s-2.94-1.27-5.68-1.27h-3.44v11.35h2.81c2.52,0,4.27-.17,5.24-.53.97-.35,1.65-.94,2.05-1.77.4-.83.6-2.05.6-3.66Z"/><path class="cls-12" d="M760.07,1945.11c0,1.19-.29,2.02-.88,2.49s-1.48.71-2.69.71c-1.33,0-2.24-.28-2.72-.83-.48-.55-.72-1.34-.72-2.37,0-1.14.26-1.96.78-2.45.52-.5,1.41-.74,2.66-.74s2.18.24,2.73.72c.55.48.83,1.31.83,2.48ZM753.4,1977.71v-25.61h6.3v25.61h-6.3Z"/><path class="cls-12" d="M772.01,1966.55c.11,2.28.67,3.91,1.66,4.91.99.99,2.55,1.49,4.69,1.49,1.24,0,2.32-.15,3.26-.46.94-.31,1.75-.9,2.45-1.78l4.69,3.34c-1.03,1.48-2.36,2.59-3.99,3.32-1.63.73-3.87,1.1-6.7,1.1-4.22,0-7.36-1.11-9.44-3.32-2.08-2.21-3.11-5.56-3.11-10.03,0-9.16,4.1-13.75,12.3-13.75,3.65,0,6.42,1.03,8.34,3.09,1.91,2.06,2.87,5.06,2.87,9v3.1h-17.02ZM782.77,1962.2c0-3.89-1.7-5.83-5.1-5.83-1.12,0-2.04.19-2.76.57-.72.38-1.29.95-1.72,1.71-.43.76-.77,1.94-1.01,3.55h10.6Z"/><path class="cls-12" d="M808.87,1977.71c-1.69.5-3.48.76-5.35.76-2.96,0-5.09-.67-6.4-2-1.3-1.33-1.95-3.5-1.95-6.49v-12.87h-3.25v-5h3.25v-7.13h6.3v7.13h5.96v5h-5.96v12.06c0,1.59.25,2.68.74,3.25.5.57,1.2.85,2.11.85,1.16,0,2.3-.24,3.44-.71l1.1,5.15Z"/><path class="cls-12" d="M817.47,1966.55c.11,2.28.67,3.91,1.66,4.91.99.99,2.55,1.49,4.69,1.49,1.24,0,2.32-.15,3.26-.46.94-.31,1.75-.9,2.45-1.78l4.69,3.34c-1.03,1.48-2.36,2.59-3.99,3.32-1.63.73-3.87,1.1-6.7,1.1-4.22,0-7.36-1.11-9.44-3.32-2.08-2.21-3.11-5.56-3.11-10.03,0-9.16,4.1-13.75,12.3-13.75,3.65,0,6.42,1.03,8.34,3.09,1.91,2.06,2.87,5.06,2.87,9v3.1h-17.02ZM828.23,1962.2c0-3.89-1.7-5.83-5.1-5.83-1.12,0-2.04.19-2.76.57-.72.38-1.29.95-1.72,1.71-.43.76-.77,1.94-1.01,3.55h10.6Z"/><path class="cls-12" d="M855.63,1958.25c-.65-.33-1.51-.49-2.59-.49-1.17,0-2.28.28-3.33.84-1.05.56-2.13,1.38-3.24,2.45v16.65h-6.3v-25.61h6.3v3.66c1.07-1.17,2.23-2.14,3.47-2.91,1.24-.76,2.62-1.15,4.15-1.15,1.3,0,2.23.17,2.78.51l-1.25,6.03Z"/><path class="cls-12" d="M879.75,1970.41c0,1.69-.43,3.14-1.28,4.35-.86,1.2-2.07,2.12-3.64,2.76-1.57.63-3.37.95-5.38.95-5.36,0-9-1.49-10.94-4.47l4.69-3.3c.76,1.04,1.65,1.74,2.65,2.09,1,.35,2.07.53,3.21.53,2.99,0,4.49-.87,4.49-2.61,0-.76-.42-1.36-1.27-1.77-.85-.42-2.17-.84-3.98-1.28-3.4-.75-5.79-1.81-7.18-3.17-1.38-1.37-2.08-3.14-2.08-5.32s.87-4.13,2.6-5.59c1.73-1.46,4.29-2.2,7.65-2.2,2.29,0,4.32.37,6.07,1.1,1.75.73,3.1,1.83,4.04,3.3l-4.71,3.34c-1.12-1.73-2.95-2.59-5.49-2.59-1.3,0-2.29.22-2.95.67-.67.45-1,1.02-1,1.72s.3,1.2.9,1.6c.6.4,1.79.82,3.56,1.26,2.91.72,4.99,1.43,6.24,2.14,1.25.71,2.19,1.59,2.83,2.64.64,1.05.96,2.34.96,3.87Z"/><path class="cls-12" d="M133.21,1639.5l-8.62-12.79h-3.49v12.79h-6.88v-33.79h12.28c4.35,0,7.52.78,9.53,2.34,2.01,1.56,3.02,4.13,3.02,7.69,0,2.88-.61,5.18-1.82,6.88-1.21,1.71-2.93,2.8-5.16,3.27l9.03,13.6h-7.89ZM132.06,1616.03c0-1.72-.44-2.88-1.31-3.47-.87-.59-2.31-.88-4.31-.88h-5.35v9.01h5.05c1.55,0,2.73-.15,3.56-.44s1.43-.75,1.79-1.37c.37-.62.55-1.57.55-2.86Z"/><path class="cls-12" d="M167,1633.91v5.59h-6.59v-5.59h-16.97v-6.35l16.5-21.85h7.06v22.29h4.15v5.91h-4.15ZM160.41,1614.74l-10.25,13.26h10.25v-13.26Z"/><path class="cls-12" d="M201.96,1622.6c0,6.07-1.07,10.53-3.2,13.38-2.13,2.85-5.47,4.27-10.01,4.27s-7.83-1.42-9.96-4.27c-2.13-2.85-3.2-7.29-3.2-13.33s1.07-10.49,3.2-13.35c2.13-2.86,5.45-4.3,9.96-4.3s7.88,1.42,10.01,4.27c2.13,2.85,3.2,7.29,3.2,13.33ZM194.85,1622.6c0-4.04-.49-6.99-1.48-8.87-.98-1.88-2.53-2.82-4.63-2.82s-3.63.95-4.6,2.84c-.97,1.9-1.45,4.86-1.45,8.9s.48,7,1.45,8.88c.97,1.88,2.5,2.82,4.6,2.82s3.64-.95,4.63-2.84c.98-1.9,1.48-4.86,1.48-8.9Z"/><path class="cls-12" d="M845.21,149l-8.62-12.79h-3.49v12.79h-6.88v-33.79h12.28c4.35,0,7.52.78,9.53,2.34,2.01,1.56,3.02,4.13,3.02,7.69,0,2.88-.61,5.18-1.82,6.88-1.21,1.71-2.93,2.8-5.16,3.27l9.03,13.6h-7.89ZM844.06,125.54c0-1.73-.44-2.88-1.31-3.47-.87-.59-2.31-.88-4.31-.88h-5.35v9.01h5.05c1.55,0,2.73-.15,3.56-.44s1.43-.75,1.79-1.37c.37-.62.55-1.57.55-2.86Z"/><path class="cls-12" d="M879,143.41v5.59h-6.59v-5.59h-16.97v-6.35l16.5-21.85h7.06v22.29h4.15v5.91h-4.15ZM872.41,124.24l-10.25,13.26h10.25v-13.26Z"/><path class="cls-12" d="M913.96,132.11c0,6.07-1.07,10.53-3.2,13.38-2.13,2.85-5.47,4.27-10.01,4.27s-7.83-1.42-9.96-4.27c-2.13-2.85-3.2-7.29-3.2-13.33s1.07-10.49,3.2-13.35c2.13-2.86,5.45-4.3,9.96-4.3s7.88,1.42,10.01,4.27c2.13,2.85,3.2,7.29,3.2,13.33ZM906.85,132.11c0-4.04-.49-6.99-1.48-8.87-.98-1.88-2.53-2.82-4.63-2.82s-3.63.95-4.6,2.84c-.97,1.9-1.45,4.86-1.45,8.9s.48,6.99,1.45,8.87c.97,1.88,2.5,2.82,4.6,2.82s3.64-.95,4.63-2.84c.98-1.9,1.48-4.86,1.48-8.9Z"/><path class="cls-12" d="M214.54,716.14c-.8-1.46-1.86-2.64-3.17-3.52s-3.09-1.32-5.32-1.32c-3.4,0-5.89,1.12-7.47,3.37-1.58,2.25-2.37,5.69-2.37,10.33s.85,8.17,2.56,10.3c1.71,2.13,4.25,3.2,7.62,3.2,1.3,0,2.51-.15,3.63-.45,1.11-.3,2.32-.74,3.63-1.31v-8.01h-8.2v-4.08h12.72v14.55c-1.84,1.03-3.67,1.83-5.48,2.42-1.81.59-3.91.88-6.29.88-5.08,0-8.84-1.46-11.28-4.37-2.44-2.91-3.66-7.31-3.66-13.18s1.22-10.39,3.67-13.29c2.45-2.91,6.11-4.36,10.97-4.36,2.77,0,5.16.49,7.17,1.46,2.01.98,3.66,2.6,4.94,4.88l-3.66,2.49Z"/><path class="cls-12" d="M240.25,720.34c-.46-.2-1.11-.29-1.95-.29-1.25,0-2.46.29-3.63.87-1.16.58-2.52,1.64-4.06,3.19v17.7h-4.2v-25.61h4.2v4.15c1.17-1.19,2.4-2.24,3.7-3.16s2.73-1.38,4.31-1.38c1.06,0,1.9.17,2.54.51l-.9,4.03Z"/><path class="cls-12" d="M260.27,741.8v-3.2c-1.3,1.14-2.61,2.08-3.93,2.83-1.32.75-2.81,1.12-4.47,1.12-2.44,0-4.33-.74-5.65-2.23-1.33-1.49-1.99-3.4-1.99-5.73,0-1.76.35-3.22,1.04-4.38.69-1.16,1.69-2.08,3-2.76,1.31-.68,3.21-1.16,5.7-1.45l6.3-.56v-1.25c0-1.97-.55-3.31-1.65-4.03-1.1-.72-2.62-1.07-4.55-1.07-1.73,0-3.06.3-3.99.9-.94.6-1.61,1.25-2.01,1.95l-3.44-2.1c.78-1.42,1.97-2.5,3.58-3.26,1.6-.76,3.59-1.14,5.97-1.14,3.68,0,6.31.67,7.91,2,1.59,1.33,2.39,3.65,2.39,6.93v17.41h-4.2ZM260.27,728.81l-4.1.39c-2.78.24-4.74.79-5.88,1.62-1.14.84-1.71,2.06-1.71,3.67s.38,2.63,1.15,3.3c.76.67,1.91,1,3.44,1,.63,0,1.26-.12,1.88-.35.62-.24,1.23-.53,1.83-.88.6-.35,1.18-.75,1.75-1.2s1.11-.88,1.65-1.31v-6.25Z"/><path class="cls-12" d="M282.02,741.8h-4.15l-8.96-25.61h4.52l6.64,20.12,6.59-20.12h4.35l-8.98,25.61Z"/><path class="cls-12" d="M298.99,729.5c0,3.39.58,5.8,1.73,7.24,1.16,1.44,3.01,2.16,5.57,2.16,1.14,0,2.14-.24,3-.72.86-.48,1.69-1.26,2.49-2.33l3.47,2.15c-.98,1.46-2.17,2.59-3.56,3.38-1.4.79-3.3,1.18-5.69,1.18-3.81,0-6.65-1.11-8.53-3.32-1.88-2.21-2.82-5.56-2.82-10.03s.92-8.15,2.75-10.39,4.59-3.36,8.29-3.36c3.32,0,5.81.96,7.47,2.87s2.49,4.85,2.49,8.83v2.34h-16.65ZM311.54,726.2c-.03-2.29-.52-4.08-1.45-5.35-.94-1.27-2.45-1.9-4.55-1.9s-3.5.57-4.5,1.72-1.66,2.99-1.99,5.53h12.5Z"/><path class="cls-12" d="M338.42,741.8v-15.09c0-2.44-.12-4.07-.37-4.88-.24-.81-.64-1.4-1.2-1.77-.55-.37-1.36-.55-2.42-.55s-2.33.41-3.76,1.22c-1.43.81-2.82,1.81-4.15,2.98v18.09h-4.2v-25.61h4.2v3.81c1.19-1.19,2.57-2.24,4.15-3.16,1.58-.92,3.17-1.38,4.76-1.38,2.47,0,4.29.7,5.44,2.11,1.16,1.41,1.73,3.79,1.73,7.14v17.09h-4.2Z"/><path class="cls-12" d="M368.23,734.89c0,2.39-.85,4.27-2.54,5.63-1.69,1.36-4.1,2.04-7.23,2.04-2.13,0-4.04-.4-5.74-1.21-1.69-.81-2.93-1.94-3.71-3.41l3.37-2.05c1.29,2.07,3.35,3.1,6.2,3.1,1.86,0,3.24-.35,4.16-1.06.92-.71,1.38-1.66,1.38-2.87,0-.72-.16-1.3-.49-1.75-.33-.45-.83-.84-1.51-1.17s-2.08-.79-4.2-1.36c-3.04-.7-5.19-1.67-6.43-2.91-1.25-1.24-1.87-2.88-1.87-4.93,0-2.26.81-4.08,2.44-5.44,1.63-1.37,3.88-2.05,6.76-2.05,2.23,0,4.1.44,5.62,1.32s2.62,1.94,3.32,3.17l-3.34,2.05c-1.33-2-3.23-3-5.69-3-1.4,0-2.58.31-3.55.93-.97.62-1.45,1.58-1.45,2.88,0,1.16.42,1.99,1.27,2.51.85.52,2.17,1,3.98,1.44,2.9.75,4.9,1.45,6.01,2.1,1.11.65,1.92,1.45,2.45,2.41.53.95.79,2.16.79,3.62Z"/><path class="cls-12" d="M387.22,741.8c-1.63.5-3.24.76-4.83.76-2.6,0-4.47-.68-5.6-2.05-1.13-1.37-1.7-3.52-1.7-6.45v-14.36h-3.66v-3.52h3.66v-7.13h4.2v7.13h6.49v3.52h-6.49v13.55c0,2.07.21,3.55.62,4.44.42.9,1.34,1.34,2.77,1.34,1.24,0,2.38-.23,3.44-.68l1.1,3.44Z"/><path class="cls-12" d="M394.79,729.5c0,3.39.58,5.8,1.73,7.24,1.16,1.44,3.01,2.16,5.57,2.16,1.14,0,2.14-.24,3-.72.86-.48,1.69-1.26,2.49-2.33l3.47,2.15c-.98,1.46-2.17,2.59-3.56,3.38-1.4.79-3.3,1.18-5.69,1.18-3.81,0-6.65-1.11-8.53-3.32-1.88-2.21-2.82-5.56-2.82-10.03s.92-8.15,2.75-10.39,4.59-3.36,8.29-3.36c3.32,0,5.81.96,7.47,2.87s2.49,4.85,2.49,8.83v2.34h-16.65ZM407.34,726.2c-.03-2.29-.52-4.08-1.45-5.35-.94-1.27-2.45-1.9-4.55-1.9s-3.5.57-4.5,1.72-1.66,2.99-1.99,5.53h12.5Z"/><path class="cls-12" d="M421.18,729.5c0,3.39.58,5.8,1.73,7.24,1.16,1.44,3.01,2.16,5.57,2.16,1.14,0,2.14-.24,3-.72.86-.48,1.69-1.26,2.49-2.33l3.47,2.15c-.98,1.46-2.17,2.59-3.56,3.38-1.4.79-3.3,1.18-5.69,1.18-3.81,0-6.65-1.11-8.53-3.32-1.88-2.21-2.82-5.56-2.82-10.03s.92-8.15,2.75-10.39,4.59-3.36,8.29-3.36c3.32,0,5.81.96,7.47,2.87s2.49,4.85,2.49,8.83v2.34h-16.65ZM433.73,726.2c-.03-2.29-.52-4.08-1.45-5.35-.94-1.27-2.45-1.9-4.55-1.9s-3.5.57-4.5,1.72-1.66,2.99-1.99,5.53h12.5Z"/><path class="cls-12" d="M460.61,741.8v-15.09c0-2.44-.12-4.07-.37-4.88-.24-.81-.64-1.4-1.2-1.77-.55-.37-1.36-.55-2.42-.55s-2.33.41-3.76,1.22c-1.43.81-2.82,1.81-4.15,2.98v18.09h-4.2v-25.61h4.2v3.81c1.19-1.19,2.57-2.24,4.15-3.16,1.58-.92,3.17-1.38,4.76-1.38,2.47,0,4.29.7,5.44,2.11,1.16,1.41,1.73,3.79,1.73,7.14v17.09h-4.2Z"/><path class="cls-12" d="M917.81,1099.86c0,3.47-1.11,5.99-3.32,7.56-2.21,1.57-5.37,2.36-9.47,2.36h-11.01v-33.79h10.01c4.13,0,7.12.59,8.95,1.77s2.75,3.15,2.75,5.92c0,2.26-.5,3.99-1.5,5.18-1,1.19-2.25,2.01-3.75,2.47,2.23.31,4.01,1.13,5.35,2.47,1.33,1.33,2,3.36,2,6.08ZM911.07,1084.68c0-1.72-.54-2.94-1.61-3.65s-2.99-1.06-5.74-1.06h-5.2v10.06h4.98c2.7,0,4.64-.43,5.81-1.29,1.17-.86,1.76-2.21,1.76-4.05ZM913.13,1099.67c0-1.4-.27-2.5-.82-3.31-.55-.81-1.39-1.4-2.53-1.77-1.14-.37-2.98-.56-5.52-.56h-5.74v11.65h4.59c2.86,0,4.94-.19,6.23-.57,1.29-.38,2.24-1.01,2.86-1.88.62-.87.93-2.05.93-3.55Z"/><path class="cls-12" d="M927.82,1097.47c0,3.39.58,5.8,1.73,7.24,1.16,1.44,3.01,2.16,5.57,2.16,1.14,0,2.14-.24,3-.72.86-.48,1.69-1.26,2.49-2.33l3.47,2.15c-.98,1.46-2.17,2.59-3.56,3.38-1.4.79-3.3,1.18-5.69,1.18-3.81,0-6.65-1.11-8.53-3.32-1.88-2.21-2.82-5.56-2.82-10.03s.92-8.15,2.75-10.39,4.59-3.36,8.29-3.36c3.32,0,5.81.96,7.47,2.87s2.49,4.85,2.49,8.83v2.34h-16.65ZM940.37,1094.18c-.03-2.29-.52-4.08-1.45-5.35-.94-1.27-2.45-1.9-4.55-1.9s-3.5.57-4.5,1.72-1.66,2.99-1.99,5.53h12.5Z"/><path class="cls-12" d="M951.36,1109.78v-36.35h4.2v36.35h-4.2Z"/><path class="cls-12" d="M976.41,1077.23c-.47-.24-1.07-.46-1.78-.63-.72-.18-1.36-.27-1.93-.27-1.42,0-2.4.36-2.95,1.09-.55.72-.83,2.14-.83,4.26v2.49h5.69v3.52h-5.69v22.09h-4.2v-22.09h-3.76v-3.52h3.76v-2.49c0-3.09.58-5.37,1.75-6.82,1.16-1.46,3.21-2.19,6.14-2.19,1.84,0,3.49.32,4.96.95l-1.15,3.61Z"/><path class="cls-12" d="M1000.75,1097.03c0,4.44-.96,7.8-2.87,10.08-1.91,2.28-4.7,3.42-8.36,3.42s-6.46-1.13-8.4-3.38c-1.94-2.25-2.91-5.63-2.91-10.12s.97-7.98,2.92-10.23c1.94-2.25,4.74-3.37,8.39-3.37s6.47,1.14,8.37,3.43,2.86,5.68,2.86,10.17ZM996.4,1097.03c0-3.48-.57-6.01-1.72-7.59-1.15-1.58-2.87-2.37-5.16-2.37s-4.11.79-5.25,2.38c-1.14,1.59-1.71,4.11-1.71,7.58s.55,5.81,1.65,7.42,2.87,2.42,5.31,2.42,4.06-.8,5.19-2.39c1.13-1.59,1.7-4.08,1.7-7.45Z"/><path class="cls-12" d="M1021.6,1088.32c-.46-.2-1.11-.29-1.95-.29-1.25,0-2.46.29-3.63.87-1.16.58-2.52,1.64-4.06,3.19v17.7h-4.2v-25.61h4.2v4.15c1.17-1.19,2.4-2.24,3.7-3.16s2.73-1.38,4.31-1.38c1.06,0,1.9.17,2.54.51l-.9,4.03Z"/><path class="cls-12" d="M1040.35,1109.78c-1.63.5-3.24.76-4.83.76-2.6,0-4.47-.68-5.6-2.05-1.13-1.37-1.7-3.52-1.7-6.45v-14.36h-3.66v-3.52h3.66v-7.13h4.2v7.13h6.49v3.52h-6.49v13.55c0,2.07.21,3.55.62,4.44.42.9,1.34,1.34,2.77,1.34,1.24,0,2.38-.23,3.44-.68l1.1,3.44Z"/><path class="cls-12" d="M801.65,381.78c0,3.16-1.04,5.61-3.11,7.35-2.08,1.74-5.11,2.61-9.09,2.61-3.04,0-5.58-.54-7.62-1.61-2.03-1.07-3.69-2.74-4.98-5l3.66-2.44c1.9,3.37,4.85,5.05,8.84,5.05,2.39,0,4.28-.5,5.65-1.5,1.38-1,2.06-2.37,2.06-4.11,0-.99-.22-1.83-.66-2.51s-1.02-1.26-1.73-1.72c-.72-.46-1.54-.84-2.47-1.12-.93-.28-1.9-.56-2.91-.82-1.66-.41-3.21-.83-4.64-1.26-1.43-.43-2.67-.99-3.72-1.67s-1.88-1.56-2.48-2.62c-.6-1.07-.9-2.44-.9-4.11,0-2.99.96-5.37,2.89-7.12,1.93-1.75,4.81-2.62,8.65-2.62,3.06,0,5.5.57,7.32,1.7,1.82,1.13,3.26,2.58,4.32,4.36l-3.59,2.54c-.88-1.46-1.95-2.6-3.21-3.39-1.26-.8-2.88-1.2-4.85-1.2-2.2,0-3.91.48-5.13,1.45-1.22.97-1.83,2.27-1.83,3.89,0,.86.18,1.59.55,2.17s.89,1.08,1.57,1.48c.68.4,1.53.74,2.55,1.03,1.02.29,2.18.59,3.48.92,1.53.41,2.99.83,4.37,1.28,1.38.45,2.59,1.04,3.63,1.77,1.03.73,1.85,1.68,2.45,2.83.6,1.16.9,2.63.9,4.42Z"/><path class="cls-12" d="M813.46,358.93c0,.98-.22,1.64-.66,1.99-.44.35-1.14.52-2.1.52-1.03,0-1.73-.22-2.12-.66s-.59-1.06-.59-1.86c0-.86.21-1.49.63-1.89.42-.4,1.11-.6,2.08-.6s1.7.19,2.12.57c.42.38.63,1.02.63,1.92ZM808.6,391.04v-25.61h4.2v25.61h-4.2Z"/><path class="cls-12" d="M837.19,391.04v-15.09c0-2.44-.12-4.07-.37-4.88-.24-.81-.64-1.4-1.2-1.77-.55-.37-1.36-.55-2.42-.55s-2.33.41-3.76,1.22c-1.43.81-2.82,1.81-4.15,2.98v18.09h-4.2v-25.61h4.2v3.81c1.19-1.19,2.57-2.24,4.15-3.16,1.58-.92,3.17-1.38,4.76-1.38,2.47,0,4.29.7,5.44,2.11,1.16,1.41,1.73,3.79,1.73,7.14v17.09h-4.2Z"/><path class="cls-12" d="M862.29,391.04c-1.63.5-3.24.76-4.83.76-2.6,0-4.47-.68-5.6-2.05-1.13-1.37-1.7-3.52-1.7-6.45v-14.36h-3.66v-3.52h3.66v-7.13h4.2v7.13h6.49v3.52h-6.49v13.55c0,2.07.21,3.55.62,4.44.42.9,1.34,1.34,2.77,1.34,1.24,0,2.38-.23,3.44-.68l1.1,3.44Z"/><path class="cls-12" d="M865.64,380.29v-4.2h15.21v4.2h-15.21Z"/><path class="cls-12" d="M900.43,381.83c0,3.3-.72,5.79-2.17,7.46-1.45,1.67-3.89,2.5-7.32,2.5-.96,0-2.04-.12-3.25-.35-1.2-.24-2.24-.53-3.1-.89l1.66-3.86c.52.26,1.27.51,2.25.74.98.24,1.77.35,2.39.35,1.32,0,2.34-.23,3.05-.68.72-.46,1.23-1.21,1.54-2.26.31-1.05.46-2.67.46-4.87v-22.73h4.49v24.58Z"/><path class="cls-12" d="M923.64,391.04v-3.2c-1.3,1.14-2.61,2.08-3.93,2.83s-2.81,1.12-4.47,1.12c-2.44,0-4.33-.74-5.65-2.23-1.33-1.49-1.99-3.4-1.99-5.73,0-1.76.35-3.22,1.04-4.38.69-1.16,1.69-2.08,3-2.76,1.31-.68,3.21-1.16,5.7-1.45l6.3-.56v-1.25c0-1.97-.55-3.31-1.65-4.03-1.1-.72-2.62-1.07-4.55-1.07-1.73,0-3.06.3-3.99.9-.94.6-1.61,1.25-2.01,1.95l-3.44-2.1c.78-1.42,1.97-2.5,3.58-3.26,1.6-.76,3.59-1.14,5.97-1.14,3.68,0,6.31.67,7.91,2,1.59,1.33,2.39,3.65,2.39,6.93v17.41h-4.2ZM923.64,378.05l-4.1.39c-2.78.24-4.74.79-5.88,1.62-1.14.84-1.71,2.06-1.71,3.67s.38,2.63,1.15,3.3c.76.67,1.91,1,3.44,1,.63,0,1.26-.12,1.88-.35.62-.24,1.23-.53,1.83-.88.6-.35,1.18-.75,1.75-1.2.56-.45,1.11-.88,1.65-1.31v-6.25Z"/><path class="cls-12" d="M955.19,387.08c-.8,1.37-1.9,2.49-3.32,3.38s-3.37,1.33-5.86,1.33c-3.76,0-6.59-1.14-8.5-3.41s-2.86-5.64-2.86-10.1.94-7.84,2.83-10.14c1.89-2.3,4.67-3.45,8.35-3.45,4.22,0,7.22,1.56,9.01,4.69l-3.44,2.1c-.63-.99-1.38-1.77-2.23-2.32-.85-.55-1.98-.83-3.38-.83-2.46,0-4.2.89-5.24,2.67-1.03,1.78-1.55,4.24-1.55,7.39,0,2.39.24,4.26.73,5.59.49,1.33,1.25,2.36,2.28,3.08,1.03.72,2.35,1.07,3.94,1.07,1.37,0,2.48-.26,3.34-.77.86-.51,1.68-1.31,2.44-2.38l3.44,2.1Z"/><path class="cls-12" d="M982.34,378.29c0,4.44-.96,7.8-2.87,10.08-1.91,2.28-4.7,3.42-8.36,3.42s-6.46-1.13-8.4-3.38c-1.94-2.25-2.91-5.63-2.91-10.12s.97-7.98,2.92-10.23c1.94-2.25,4.74-3.37,8.39-3.37s6.47,1.14,8.37,3.43c1.9,2.29,2.86,5.68,2.86,10.17ZM977.99,378.29c0-3.48-.57-6.01-1.72-7.59-1.15-1.58-2.87-2.37-5.16-2.37s-4.11.79-5.25,2.38c-1.14,1.59-1.71,4.11-1.71,7.58s.55,5.81,1.65,7.42,2.87,2.42,5.31,2.42,4.06-.8,5.19-2.39c1.13-1.59,1.7-4.08,1.7-7.45Z"/><path class="cls-12" d="M1011,378.05c0,4.31-.88,7.68-2.65,10.11-1.77,2.43-4.24,3.64-7.41,3.64-1.37,0-2.7-.28-4-.83-1.3-.55-2.43-1.23-3.39-2.03v2.1h-4.2v-36.35h4.2v13.31c.96-.93,2.12-1.71,3.47-2.34,1.35-.63,2.8-.95,4.35-.95,3.16,0,5.55,1.16,7.19,3.47,1.64,2.31,2.45,5.61,2.45,9.89ZM1006.65,378.15c0-3.42-.52-5.89-1.56-7.42-1.04-1.53-2.56-2.29-4.54-2.29-1.3,0-2.56.33-3.78,1-1.22.67-2.29,1.43-3.22,2.29v13.55c.93.78,2,1.44,3.22,1.97,1.22.53,2.42.79,3.59.79,1.89,0,3.41-.8,4.57-2.39,1.16-1.59,1.73-4.09,1.73-7.5Z"/><path class="cls-12" d="M1035.51,384.13c0,2.39-.85,4.27-2.54,5.63-1.69,1.36-4.1,2.04-7.23,2.04-2.13,0-4.04-.4-5.74-1.21-1.69-.81-2.93-1.94-3.71-3.41l3.37-2.05c1.29,2.07,3.35,3.1,6.2,3.1,1.86,0,3.24-.35,4.16-1.06.92-.71,1.38-1.66,1.38-2.87,0-.72-.16-1.3-.49-1.75-.33-.45-.83-.84-1.51-1.17-.68-.33-2.08-.79-4.2-1.35-3.04-.7-5.19-1.67-6.43-2.91-1.25-1.24-1.87-2.88-1.87-4.93,0-2.26.81-4.08,2.44-5.44,1.63-1.37,3.88-2.05,6.76-2.05,2.23,0,4.1.44,5.62,1.32s2.62,1.94,3.32,3.17l-3.34,2.05c-1.33-2-3.23-3-5.69-3-1.4,0-2.58.31-3.55.93-.97.62-1.45,1.58-1.45,2.88,0,1.16.42,1.99,1.27,2.51.85.52,2.17,1,3.98,1.44,2.9.75,4.9,1.45,6.01,2.1,1.11.65,1.92,1.45,2.45,2.4.53.95.79,2.16.79,3.63Z"/><path class="cls-12" d="M233.29,588.39l5.46,7.9-.26,8.74s7.33,1.25,8.79,2.08v14.92l25.22-2.65v-17.63s1.61-2.81,7.96-2.81,9.61,1.46,12.34,1.61,4.5.05,4.5.05v-1.98s-2.55-1.72-2.55-3.48.78-2.76,3.02-4.84,16.07-14.92,16.07-14.92l16.69,14.25v-7.9l.36-.73.42-20.96s-1.98-1.92-3.64-2.13-3.59.21-3.59.21l-.1,8.01-17.37-10.04v-5.3l-1.09-.57v-5.82s-1.98-5.04-7.8-5.04-10.24,4.32-10.24,4.32v5.67l-6.92,3.07v5.88l-22.67,10.45v5.15l-13.62,6.19v-6.34l-3.02-.44-7.96,4.39v10.71Z"/><polygon class="cls-10" points="222.62 573.29 192.67 587.29 184.79 595.2 181.12 596.69 179.91 597.47 173.56 602.69 174.34 618.84 174.34 664.47 237.56 670.71 238.06 596.73 222.62 573.29"/><path class="cls-10" d="M154.72,682.09v-56.31l8.19-.47.23-5.26s3.04-.51,5.65-.51,8.62.9,8.62.9v11.47l13.42-2.11v-15.37s2.69-1.09,5.62-1.09,10.69,1.09,10.69,1.09v13.34l19.89-2.69v-17.98s2.89-1.52,7.8-1.52,11.74,2.18,11.74,2.18v15.25l26.75-2.96v-17.55s1.33-2.61,8.54-2.61,10.72,1.72,10.72,1.72l5.73-.12v-3.43s-2.53-1.21-2.53-3.08,2.53-3.67,2.53-3.67l15.52-14.55,16.3,13.69s2.07,1.25,2.14,2.61-1.4,3.59-2.3,4.25v20.71h8.7v-16.11l13.42-2.85,6.82.39,3.86,3.31v17.28l6.71.27v-16.46l3.74-.31s7.37-2.07,13.22-1.87,6.12.94,6.12.94v19.85l8.62,1.21v-14.51l5.11-.19s4.68-.97,10.41-.97,4.91,1.48,4.91,1.48v5.3s5.42.12,7.21.27,2.03.86,2.03.86v23.01l-1.83,1.83v46.95s-41.57,6.55-117.5,6.55-156.81-12.17-156.81-12.17Z"/><path class="cls-13" d="M1132.26,616.2c-2.51,2.24-5.6,3.36-9.28,3.36h-9.01v24h-2.69v-48h11.7c3.68,0,6.77,1.08,9.28,3.23,2.51,2.15,3.76,5.04,3.76,8.67s-1.26,6.59-3.76,8.74ZM1130.17,600.61c-1.84-1.52-4.26-2.29-7.26-2.29h-8.94v18.49h8.94c2.96,0,5.42-.81,7.39-2.42,1.97-1.7,2.96-4.01,2.96-6.92s-1.03-5.2-3.09-6.86Z"/><path class="cls-13" d="M1177.14,643.56l-5.51-14.39h-21.85l-5.58,14.39h-2.69l19.16-49.54,19.23,49.54h-2.76ZM1160.67,601.01l-9.82,25.41h19.63l-9.82-25.41Z"/><path class="cls-13" d="M1199.56,598.32v45.24h-2.76v-45.24h-10.62v-2.76h24v2.76h-10.62Z"/><path class="cls-13" d="M1223.05,643.56v-48h23.06v2.76h-20.3v17.48h20.3v2.96h-20.3v22.05h20.3v2.76h-23.06Z"/><path class="cls-13" d="M1263.08,602.83v40.74h-2.69v-48.33l35.83,42.01v-41.68h2.76v48.8l-35.9-41.54Z"/><path class="cls-13" d="M1325.18,598.32v45.24h-2.76v-45.24h-10.62v-2.76h24v2.76h-10.62Z"/><path class="cls-13" d="M1345.53,582.44v14.5h-.88v-14.5h-3.4v-.88h7.69v.88h-3.41Z"/><path class="cls-13" d="M1381.31,643.56l-5.51-14.39h-21.85l-5.58,14.39h-2.69l19.16-49.54,19.23,49.54h-2.76ZM1364.84,601.01l-9.82,25.41h19.63l-9.82-25.41Z"/><path class="cls-13" d="M1396.85,643.56v-48h2.69v45.24h13.51v2.76h-16.2Z"/><path class="cls-13" d="M1425.91,643.56v-48h23.06v2.76h-20.3v17.48h20.3v2.96h-20.3v22.05h20.3v2.76h-23.06Z"/><path class="cls-13" d="M1480.31,643.16c-1.75.63-3.81.94-6.19.94-7.35,0-12.08-3.47-14.18-10.42l2.76-.94c1.57,5.74,5.38,8.6,11.43,8.6,3.45,0,6.16-.85,8.14-2.55,2.02-1.75,3.02-4.3,3.02-7.66,0-3.18-1.19-5.82-3.56-7.93-.63-.58-1.59-1.23-2.89-1.95-1.3-.72-2.96-1.52-4.97-2.42-3.81-1.7-6.41-3.18-7.8-4.44-2.33-2.02-3.5-4.68-3.5-8s1.19-5.98,3.56-8c2.33-2.06,5.2-3.09,8.6-3.09,5.65,0,9.64,2.11,11.97,6.32l-2.62,1.14c-.9-1.48-1.97-2.58-3.23-3.29-1.57-.98-3.61-1.48-6.12-1.48-2.64,0-4.84.74-6.59,2.22-1.88,1.57-2.82,3.63-2.82,6.18,0,2.29.99,4.28,2.96,5.98,1.12.9,3.36,2.11,6.72,3.63,2.11.94,3.92,1.87,5.45,2.79,1.52.92,2.76,1.85,3.7,2.79,2.6,2.55,3.9,5.74,3.9,9.54,0,6.1-2.58,10.11-7.73,12.03Z"/><path class="cls-12" d="M839.11,564.17c-1.23,0-2.23-1-2.23-2.23v-37.27c0-.28.05-.56.16-.83l6.27-15.75c.34-.85,1.16-1.41,2.07-1.41h18.07v-52.76c0-.26.05-.52.14-.77l11.26-30.75c.32-.88,1.16-1.46,2.1-1.46s1.77.58,2.1,1.46l11.26,30.75c.09.25.14.51.14.77v31.42l1.44-1.76v-8.38c0-.64.27-1.24.75-1.67l2.72-2.41,8.74-58.49c.16-1.09,1.1-1.9,2.21-1.9h0c1.11,0,2.04.81,2.21,1.9l8.74,58.49,2.72,2.41c.48.42.75,1.03.75,1.67v8.38l1.44,1.76v-31.42c0-.18.02-.35.06-.52l3.44-14.35c.23-.95,1.04-1.63,2-1.7l5.83-22.01c.26-.98,1.15-1.66,2.16-1.66s1.9.68,2.16,1.66l5.83,22.01c.96.07,1.77.76,2,1.7l3.44,14.35c.04.17.06.35.06.52v52.76h18.07c.91,0,1.74.56,2.07,1.41l6.27,15.75c.1.26.16.54.16.83v37.27c0,1.23-1,2.23-2.23,2.23h-134.33Z"/><path class="cls-13" d="M906.27,412.96l8.86,59.29,3.32,2.95v9.18l5.9,7.2v-37.66l3.44-14.35.73,3.06,7.08-26.72,7.08,26.72.73-3.06,3.44,14.35v54.99h20.3l6.27,15.75v37.27h-134.33v-37.27l6.27-15.75h20.3v-54.99l11.26-30.75,11.26,30.75v37.66l5.9-7.2v-9.18l3.32-2.95,8.86-59.29M906.27,408.5c-2.21,0-4.09,1.62-4.41,3.8l-8.62,57.69-.59.52v-16.59c0-.52-.09-1.04-.27-1.53l-11.26-30.75c-.64-1.76-2.32-2.93-4.19-2.93s-3.55,1.17-4.19,2.93l-11.26,30.75c-.18.49-.27,1.01-.27,1.53v50.52h-15.83c-1.83,0-3.47,1.11-4.15,2.81l-6.27,15.75c-.21.53-.32,1.09-.32,1.65v37.27c0,2.47,2,4.46,4.46,4.46h134.33c2.47,0,4.46-2,4.46-4.46v-37.27c0-.57-.11-1.13-.32-1.65l-6.27-15.75c-.68-1.7-2.32-2.81-4.15-2.81h-15.83v-50.52c0-.35-.04-.7-.12-1.04l-3.44-14.35c-.31-1.31-1.18-2.36-2.32-2.94l-5.51-20.82c-.52-1.96-2.29-3.32-4.31-3.32s-3.8,1.36-4.32,3.32l-5.51,20.82c-1.14.58-2.01,1.63-2.32,2.94l-3.44,14.35c-.08.34-.12.69-.12,1.04v16.59l-.59-.52-8.62-57.69c-.33-2.19-2.2-3.8-4.41-3.8h0Z"/><path class="cls-13" d="M906.27,538.05c-5.71,0-10.33,4.63-10.33,10.33v13.56h20.67v-13.56c0-5.71-4.63-10.33-10.33-10.33Z"/><circle class="cls-13" cx="906.27" cy="503.77" r="6.7"/><polygon class="cls-4" points="565.81 985.15 565.81 969.13 557.27 950.89 550.14 976.27 543.13 976.27 535.53 970.65 535.53 966.09 529.68 962 529.68 893.48 523.6 881.09 518.46 893.48 516.35 893.48 505.83 878.99 495.3 893.48 493.2 893.48 488.05 881.09 481.97 893.48 481.97 962 476.13 966.09 476.13 970.65 468.53 976.27 461.51 976.27 454.38 950.89 445.85 969.13 445.85 985.15 440.35 985.15 440.35 1091.55 505.83 1091.55 571.31 1091.55 571.31 985.15 565.81 985.15"/><path class="cls-4" d="M970.73,1137.65v-22.11s.99-9.19,15.4-14.41c14.41,5.22,15.4,14.41,15.4,14.41v22.11h-30.8Z"/><polygon class="cls-12" points="1917.28 320.83 1951.32 322.71 1950.23 318.61 1981.16 310.35 1977.87 298.05 1946.94 306.32 1945.85 302.22 1917.28 320.83"/><polygon class="cls-12" points="1991.96 377.45 1957.87 378.08 1959.26 382.08 1929.02 392.6 1933.21 404.62 1963.45 394.11 1964.84 398.11 1991.96 377.45"/><polygon class="cls-12" points="1469.97 1824.12 1477.81 1857.3 1481.43 1855.09 1498.11 1882.42 1508.97 1875.78 1492.29 1848.46 1495.91 1846.25 1469.97 1824.12"/><polygon class="cls-12" points="1371.34 1898.83 1388.4 1869.31 1384.25 1868.44 1390.85 1837.11 1378.39 1834.48 1371.79 1865.81 1367.64 1864.94 1371.34 1898.83"/><polygon class="cls-12" points="1836.63 1992.98 1841.45 1959.23 1837.27 1959.96 1831.71 1928.44 1819.17 1930.65 1824.73 1962.18 1820.55 1962.91 1836.63 1992.98"/><polygon class="cls-12" points="462.19 1992.98 467.01 1959.23 462.83 1959.96 457.27 1928.44 444.73 1930.65 450.29 1962.18 446.11 1962.91 462.19 1992.98"/><polygon class="cls-12" points="110.55 1666.1 142.95 1676.71 142.95 1672.47 174.97 1672.47 174.97 1659.74 142.95 1659.74 142.95 1655.5 110.55 1666.1"/><polygon class="cls-12" points="759.52 102.64 777.47 131.62 780.2 128.38 804.69 149 812.89 139.26 788.4 118.64 791.14 115.39 759.52 102.64"/><line class="cls-6" x1="1324.95" y1="1319.81" x2="1319.27" y2="1317.86"/><path class="cls-5" d="M1300.04,1311.28l-56.81-19.46c-10.39-3.56-15.97-14.83-12.49-25.25l12.3-36.89s18.34-50.33,24.76-64.37c6.42-14.04,29.42-60.24,38.78-73.68,9.36-13.44,19.57-28.1,33.64-41.07,8.46-7.8,26.76-22.3,40.01-32.61,8.52-6.63,10.24-18.82,3.89-27.55l-12.9-17.73-149.79-132.84"/><line class="cls-6" x1="1213.81" y1="833.09" x2="1209.33" y2="829.1"/><circle class="cls-12" cx="674.13" cy="1725.82" r="49.1"/><path class="cls-13" d="M669.73,1728.1v13.87c0,2.63.15,4.58.44,5.85.3,1.27.84,2.32,1.64,3.15.7.72,1.5,1.25,2.41,1.6.91.35,2.12.56,3.61.64v.89h-24.68v-.89c1.49-.08,2.7-.29,3.61-.64.91-.35,1.72-.88,2.41-1.6.82-.82,1.38-1.87,1.66-3.13.28-1.26.42-3.22.42-5.87v-28.47c0-2.21-.1-3.92-.29-5.12-.19-1.2-.52-2.17-.98-2.92-.67-1.03-1.52-1.8-2.55-2.3-1.03-.5-2.37-.8-4.02-.91h-.27v-.89h23.29c4.07,0,7.07.21,9,.62s3.7,1.24,5.29,2.47c3.66,2.78,5.49,6.49,5.49,11.13s-1.85,8.16-5.56,10.35c-1.93,1.13-4.28,1.82-7.03,2.05-.88.08-2.99.12-6.34.12h-7.57ZM669.73,1726.86h3.79c2.55,0,4.51-.19,5.89-.56,1.38-.37,2.61-1.06,3.69-2.07,2.52-2.29,3.79-5.34,3.79-9.16,0-2.11-.37-4.05-1.1-5.81-.73-1.76-1.78-3.2-3.15-4.31-1.57-1.31-3.44-2.09-5.6-2.32-.59-.05-1.94-.08-4.06-.08h-3.25v24.3Z"/><line class="cls-7" x1="1214.25" y1="760.38" x2="1214.25" y2="663.99"/><path class="cls-8" d="M679.15,1090.48l50.6-81.05,40.96-98.2,186.17-271.57c5.32-7.77,15.34-10.77,24.06-7.21l21.95,8.97c4.81,1.97,8.67,5.73,10.76,10.49l3.48,7.94c1.19,2.72,2.98,5.15,5.22,7.09l172.79,149.74"/><circle class="cls-11" cx="1214.25" cy="797.3" r="36.92"/><circle class="cls-12" cx="1214.25" cy="797.3" r="25.3"/><path class="cls-12" d="M708.21,1112.96c-1.38,0-2.5-1.12-2.5-2.5v-62.3c0-.09,0-.18.01-.27l2.34-21.78c.13-1.24,1.16-2.19,2.4-2.23.03,0,.06,0,.09,0,1.21,0,2.25.86,2.46,2.06l1.19,6.63c.11-.01.22-.02.33-.02h10.85v-63.86h-.54c-1.38,0-2.5-1.12-2.5-2.5v-40.52c0-1.25.91-2.28,2.11-2.47v-26.81c0-.19.02-.39.07-.57l5.86-24.83c.26-1.12,1.25-1.91,2.4-1.93h.04c1.13,0,2.12.76,2.42,1.86l4.19,15.76,5.97-26.09c-1.01-.32-1.73-1.27-1.73-2.38v-5.85c0-1.38,1.12-2.5,2.5-2.5h.13l5.35-43.24c.15-1.25,1.22-2.19,2.48-2.19s2.33.94,2.48,2.19l5.35,43.24h.13c1.38,0,2.5,1.12,2.5,2.5v5.85c0,1.11-.73,2.06-1.73,2.38l5.97,26.09,4.19-15.76c.29-1.1,1.28-1.86,2.42-1.86h.04c1.15.02,2.13.81,2.4,1.93l5.85,24.83c.04.19.07.38.07.57v26.81c1.19.19,2.11,1.22,2.11,2.47v40.52c0,1.38-1.12,2.5-2.5,2.5h-.54v63.86h79.94c.11,0,.23,0,.33.02l1.19-6.63c.21-1.2,1.25-2.06,2.46-2.06.03,0,.06,0,.09,0,1.24.04,2.27.99,2.4,2.23l2.34,21.78c0,.09.01.18.01.27v62.3c0,1.38-1.12,2.5-2.5,2.5h-160.9Z"/><path class="cls-13" d="M754.11,806.93l5.62,45.44h2.34v5.86h-2.34l8.9,38.88,6.79-25.53,5.86,24.83v29.28h2.11v40.52h-3.04v68.86h82.44v13.58l3.98-22.25,2.34,21.78v62.3h-160.9v-62.3l2.34-21.78,3.98,22.25v-13.58h13.35v-68.86h-3.04v-40.52h2.11v-29.28l5.86-24.83,6.79,25.53,8.9-38.88h-2.34v-5.86h2.34l5.62-45.44M754.11,801.93c-2.52,0-4.65,1.88-4.96,4.39l-5.14,41.53c-1.69.8-2.86,2.52-2.86,4.52v5.86c0,1.36.54,2.58,1.41,3.49l-3.34,14.58-1.6-6c-.58-2.19-2.57-3.71-4.83-3.71-.02,0-.05,0-.07,0-2.29.03-4.27,1.62-4.8,3.85l-5.86,24.83c-.09.38-.13.76-.13,1.15v25.2c-1.28.91-2.11,2.4-2.11,4.08v40.52c0,2.07,1.26,3.84,3.04,4.6v59.25h-6.6l-.81-4.55c-.43-2.39-2.51-4.12-4.92-4.12-.06,0-.12,0-.18,0-2.49.09-4.53,1.99-4.8,4.46l-2.34,21.78c-.02.18-.03.36-.03.53v62.3c0,2.76,2.24,5,5,5h160.9c2.76,0,5-2.24,5-5v-62.3c0-.18,0-.36-.03-.53l-2.34-21.78c-.27-2.47-2.31-4.38-4.8-4.46-.06,0-.12,0-.18,0-2.41,0-4.49,1.73-4.92,4.12l-.81,4.55h-75.69v-59.25c1.79-.76,3.04-2.54,3.04-4.6v-40.52c0-1.68-.83-3.17-2.11-4.08v-25.2c0-.39-.04-.77-.13-1.15l-5.86-24.83c-.53-2.23-2.5-3.82-4.8-3.85-.02,0-.05,0-.07,0-2.26,0-4.25,1.52-4.83,3.71l-1.6,6-3.34-14.58c.88-.9,1.41-2.13,1.41-3.49v-5.86c0-2-1.17-3.72-2.86-4.52l-5.14-41.53c-.31-2.5-2.44-4.39-4.96-4.39h0Z"/><rect class="cls-9" x="90" y="90" width="1920" height="1920"/></svg>